<svg id="Capa_1" enable-background="new 0 0 512 512" height="512" viewBox="0 0 512 512" width="512" xmlns="http://www.w3.org/2000/svg"><g><path d="m227.814 454.098c0 15.542 12.644 28.186 28.186 28.186s28.185-12.644 28.185-28.186c0-15.541-12.644-28.186-28.185-28.186s-28.186 12.644-28.186 28.186zm41.371 0c0 7.271-5.915 13.186-13.185 13.186s-13.186-5.915-13.186-13.186 5.915-13.186 13.186-13.186 13.185 5.915 13.185 13.186z"/><path d="m308.08 30.332h-104.16c-4.142 0-7.5 3.358-7.5 7.5s3.358 7.5 7.5 7.5h104.16c4.142 0 7.5-3.358 7.5-7.5s-3.358-7.5-7.5-7.5z"/><path d="m399.011 0h-286.022c-17.921 0-32.5 14.58-32.5 32.5v58.763c0 4.142 3.358 7.5 7.5 7.5s7.5-3.358 7.5-7.5v-58.763c0-9.649 7.85-17.5 17.5-17.5h286.021c9.649 0 17.5 7.851 17.5 17.5v363.695h-39.632c-4.142 0-7.5 3.358-7.5 7.5s3.358 7.5 7.5 7.5h39.632v68.305c0 9.649-7.851 17.5-17.5 17.5h-286.021c-9.65 0-17.5-7.851-17.5-17.5v-68.305h248.703c4.142 0 7.5-3.358 7.5-7.5s-3.358-7.5-7.5-7.5h-248.703v-272.245c0-4.142-3.358-7.5-7.5-7.5s-7.5 3.358-7.5 7.5v355.55c0 17.92 14.579 32.5 32.5 32.5h286.021c17.921 0 32.5-14.58 32.5-32.5v-447c.001-17.92-14.579-32.5-32.499-32.5z"/><path d="m187.151 168.385c-1.776-6.629-6.028-12.171-11.971-15.602s-12.867-4.341-19.498-2.567c-13.684 3.668-21.835 17.784-18.168 31.469l5.808 21.676c3.073 11.466 13.48 19.046 24.825 19.046 2.195 0 4.425-.284 6.643-.878 0 0 .001 0 .001-.001 13.685-3.667 21.835-17.784 18.169-31.469zm-16.243 38.655c-5.696 1.528-11.571-1.867-13.097-7.562l-5.808-21.675c-1.526-5.696 1.866-11.572 7.562-13.098.921-.247 1.856-.369 2.785-.369 1.853 0 3.682.486 5.33 1.438 2.474 1.428 4.243 3.734 4.982 6.494l5.808 21.675c1.526 5.695-1.866 11.571-7.562 13.097z"/><path d="m336.819 221.529c2.213.593 4.46.886 6.692.886 4.452 0 8.846-1.167 12.805-3.453 5.943-3.432 10.195-8.973 11.971-15.602l5.808-21.676c3.666-13.685-4.484-27.801-18.169-31.469-6.629-1.775-13.553-.864-19.497 2.567-5.943 3.432-10.195 8.973-11.971 15.602l-5.808 21.676c-3.667 13.685 4.484 27.802 18.169 31.469-.001 0 0 0 0 0zm-3.68-27.586 5.808-21.676c.739-2.759 2.509-5.065 4.982-6.493s5.356-1.807 8.114-1.069c5.696 1.527 9.088 7.402 7.562 13.098l-5.808 21.676c-.739 2.759-2.509 5.065-4.982 6.493s-5.354 1.808-8.114 1.069c-5.696-1.527-9.088-7.403-7.562-13.098z"/><path d="m194.664 151.064c0 14.167 11.526 25.694 25.694 25.694 14.167 0 25.694-11.526 25.694-25.694v-22.44c0-14.167-11.526-25.694-25.694-25.694s-25.694 11.526-25.694 25.694zm15-22.44c0-5.896 4.797-10.694 10.694-10.694 5.896 0 10.694 4.797 10.694 10.694v22.44c0 5.896-4.797 10.694-10.694 10.694s-10.694-4.797-10.694-10.694z"/><path d="m291.25 102.931c-14.167 0-25.694 11.526-25.694 25.694v22.44c0 14.167 11.526 25.694 25.694 25.694s25.694-11.526 25.694-25.694v-22.44c0-14.168-11.526-25.694-25.694-25.694zm10.694 48.133c0 5.896-4.797 10.694-10.694 10.694-5.896 0-10.694-4.797-10.694-10.694v-22.44c0-5.896 4.797-10.694 10.694-10.694s10.694 4.797 10.694 10.694z"/><path d="m171.766 274.66c.667 27.305 22.534 49.855 49.782 51.338.969.053 1.938.079 2.904.079 8.678 0 17.205-2.118 24.824-6.187 4.333-2.313 9.506-2.313 13.839.001 8.468 4.521 18.053 6.632 27.726 6.107 4.835-.263 9.604-1.197 14.174-2.775 3.915-1.353 5.992-5.623 4.64-9.538-1.353-3.915-5.624-5.993-9.538-4.64-3.252 1.124-6.647 1.788-10.09 1.976-6.935.375-13.796-1.131-19.845-4.361-8.758-4.676-19.213-4.677-27.971 0-6.05 3.231-12.913 4.739-19.847 4.362-19.487-1.06-35.126-17.193-35.603-36.727-.39-15.972 9.367-30.524 24.281-36.211 4.938-1.883 8.967-5.559 11.344-10.348 6.425-12.941 19.38-20.98 33.811-20.98s27.386 8.039 33.81 20.98c2.377 4.79 6.406 8.465 11.344 10.349 14.914 5.687 24.671 20.24 24.281 36.213-.13 5.293-1.359 10.405-3.655 15.196-1.79 3.735-.213 8.215 3.522 10.005 3.736 1.79 8.214.212 10.005-3.522 3.218-6.715 4.941-13.885 5.123-21.311.546-22.316-13.09-42.649-33.931-50.596-1.402-.535-2.558-1.602-3.253-3.003-8.976-18.08-27.08-29.311-47.246-29.311s-38.27 11.231-47.247 29.311c-.695 1.401-1.851 2.467-3.253 3.002-20.842 7.945-34.477 28.277-33.931 50.591z"/></g></svg>