<svg id="Capa_1" enable-background="new 0 0 512 512" height="512" viewBox="0 0 512 512" width="512" xmlns="http://www.w3.org/2000/svg"><g><path d="m310.141 415.298c-4.142 0-7.5 3.358-7.5 7.5v14.936h-14.936c-4.142 0-7.5 3.358-7.5 7.5s3.358 7.5 7.5 7.5h14.936v14.936c0 4.142 3.358 7.5 7.5 7.5s7.5-3.358 7.5-7.5v-14.936h14.936c4.142 0 7.5-3.358 7.5-7.5s-3.358-7.5-7.5-7.5h-14.936v-14.936c0-4.142-3.358-7.5-7.5-7.5z"/><path d="m144.5 403.3c0 4.142 3.358 7.5 7.5 7.5s7.5-3.358 7.5-7.5c0-4.142-3.358-7.5-7.5-7.5-4.142.001-7.5 3.358-7.5 7.5z"/><path d="m139.862 324.937c-34.239 0-62.095 27.855-62.095 62.095v41.859c0 4.142 3.358 7.5 7.5 7.5s7.5-3.358 7.5-7.5v-41.859c0-25.968 21.126-47.095 47.095-47.095h4.637v29.789c-15.376 3.433-26.908 17.178-26.908 33.575 0 18.973 15.435 34.408 34.408 34.408s34.408-15.436 34.408-34.408c0-16.396-11.531-30.142-26.908-33.575v-29.789h28.042l43.736 36.225c7.163 5.933 15.943 8.899 24.723 8.899s17.56-2.966 24.723-8.899l43.736-36.225h47.679c25.968 0 47.095 21.126 47.095 47.095v11.923c0 4.142 3.358 7.5 7.5 7.5s7.5-3.358 7.5-7.5v-11.923c0-34.239-27.855-62.095-62.095-62.095h-71.379v-20.882h66.191c10.362 0 18.792-8.431 18.792-18.793v-155.52c0-71.54-58.202-129.742-129.742-129.742s-129.742 58.202-129.742 129.742v52.937c0 4.142 3.358 7.5 7.5 7.5s7.5-3.358 7.5-7.5v-52.937c0-63.269 51.473-114.742 114.742-114.742s114.742 51.473 114.742 114.742v155.519c0 2.091-1.701 3.793-3.792 3.793h-46.902c20.484-18.127 33.445-44.754 33.445-74.39v-63.218c0-26.533-10.439-51.666-28.895-70.17 1.992-1.949 3.103-3.134 3.27-3.313 2.82-3.031 2.648-7.771-.38-10.594s-7.774-2.654-10.598.372c-.156.166-15.851 16.851-42.404 33.927-24.295 15.624-62.968 34.815-109.235 37.506-4.135.241-7.292 3.788-7.052 7.923.001.023.006.045.007.068v67.498c0 29.636 12.961 56.263 33.445 74.39h-46.601c-2.091 0-3.793-1.702-3.793-3.793v-69.896c0-4.142-3.358-7.5-7.5-7.5s-7.5 3.358-7.5 7.5v69.896c0 10.362 8.43 18.793 18.793 18.793h66.191v20.882h-71.379zm31.546 78.363c0 10.702-8.706 19.408-19.408 19.408s-19.408-8.706-19.408-19.408 8.706-19.408 19.408-19.408c10.701.001 19.408 8.707 19.408 19.408zm1.798-188.635v-61.062c46.534-4.315 85.146-23.667 109.79-39.572 12.719-8.209 22.991-16.245 30.489-22.646 15.964 15.746 25.008 37.292 25.008 60.063v63.218c0 46.215-37.074 83.814-82.643 83.814-45.57-.001-82.644-37.6-82.644-83.815zm97.949 149.945c-8.781 7.273-21.528 7.273-30.31 0l-29.789-24.673h7.686c4.142 0 7.5-3.358 7.5-7.5v-23.606c9.343 3.015 19.29 4.649 29.608 4.649 10.429 0 20.478-1.67 29.909-4.748v23.705c0 4.142 3.358 7.5 7.5 7.5h7.685z"/><path d="m426.732 424.141c-4.142 0-7.5 3.358-7.5 7.5v61.94c0 1.885-1.534 3.419-3.419 3.419h-48.313v-42.581c0-4.142-3.358-7.5-7.5-7.5s-7.5 3.358-7.5 7.5v42.581h-193.001v-42.581c0-4.142-3.358-7.5-7.5-7.5s-7.5 3.358-7.5 7.5v42.581h-48.312c-1.886 0-3.419-1.534-3.419-3.419v-32.004c0-4.142-3.358-7.5-7.5-7.5s-7.5 3.358-7.5 7.5v32.004c0 10.156 8.263 18.419 18.419 18.419h319.626c10.157 0 18.419-8.263 18.419-18.419v-61.94c0-4.142-3.358-7.5-7.5-7.5z"/></g></svg>