<svg id="Capa_1" enable-background="new 0 0 512.008 512.008" height="512" viewBox="0 0 512.008 512.008" width="512" xmlns="http://www.w3.org/2000/svg"><g><g><path d="m266.149 164.243c-11.165 0-21.407-7.46-24.432-18.745l-5.678-21.191c-1.749-6.524-.852-13.339 2.525-19.188 3.377-5.85 8.83-10.034 15.354-11.782 13.474-3.61 27.361 4.412 30.971 17.88l5.678 21.191c1.749 6.524.852 13.339-2.525 19.189s-8.83 10.034-15.355 11.781c-2.183.585-4.379.865-6.538.865zm-5.687-56.77c-.879 0-1.772.113-2.66.352-2.654.712-4.873 2.414-6.247 4.794-1.374 2.379-1.738 5.151-1.027 7.806l5.678 21.191c1.469 5.479 7.12 8.744 12.6 7.274h.001c2.653-.711 4.872-2.413 6.246-4.793s1.738-5.152 1.027-7.807l-5.678-21.191c-1.231-4.591-5.399-7.626-9.94-7.626z"/></g><g><path d="m437.595 164.251c-2.196 0-4.407-.289-6.586-.873-6.524-1.748-11.977-5.932-15.354-11.781-3.378-5.85-4.275-12.665-2.526-19.189l5.678-21.191c3.61-13.467 17.498-21.495 30.971-17.88 13.468 3.608 21.489 17.502 17.881 30.97l-5.679 21.192c-1.747 6.523-5.932 11.977-11.781 15.354-3.898 2.249-8.222 3.398-12.604 3.398zm5.639-56.778c-4.542 0-8.709 3.035-9.939 7.626l-5.678 21.191c-.711 2.654-.346 5.427 1.028 7.807 1.374 2.379 3.592 4.081 6.246 4.793h.001c2.655.711 5.427.347 7.806-1.028 2.38-1.373 4.082-3.592 4.793-6.245l5.679-21.192c1.468-5.479-1.796-11.131-7.275-12.6-.889-.238-1.782-.352-2.661-.352z"/></g><g><g><path d="m317.194 119.614c-13.943 0-25.287-11.344-25.287-25.288v-21.938c0-13.943 11.344-25.287 25.287-25.287 13.944 0 25.288 11.344 25.288 25.287v21.938c0 13.945-11.344 25.288-25.288 25.288zm0-57.513c-5.672 0-10.287 4.615-10.287 10.287v21.938c0 5.673 4.615 10.288 10.287 10.288 5.673 0 10.288-4.615 10.288-10.288v-21.938c0-5.672-4.615-10.287-10.288-10.287z"/></g></g><g><g><path d="m386.502 119.614c-13.943 0-25.287-11.344-25.287-25.288v-21.938c0-13.943 11.344-25.287 25.287-25.287 13.944 0 25.288 11.344 25.288 25.287v21.938c.001 13.945-11.343 25.288-25.288 25.288zm0-57.513c-5.672 0-10.287 4.615-10.287 10.287v21.938c0 5.673 4.615 10.288 10.287 10.288 5.673 0 10.288-4.615 10.288-10.288v-21.938c.001-5.672-4.615-10.287-10.288-10.287z"/></g></g><g><path d="m321.196 265.597c-.947 0-1.897-.025-2.847-.077-26.728-1.455-48.176-23.574-48.83-50.355-.534-21.886 12.84-41.828 33.28-49.623 1.332-.508 2.43-1.521 3.09-2.852 8.806-17.735 26.563-28.751 46.342-28.751 19.78 0 37.537 11.016 46.341 28.749.661 1.333 1.759 2.346 3.09 2.854 20.442 7.795 33.816 27.738 33.281 49.626-.179 7.282-1.869 14.315-5.025 20.902-1.79 3.736-6.271 5.313-10.004 3.523-3.736-1.79-5.313-6.269-3.523-10.004 2.234-4.664 3.431-9.64 3.557-14.789.381-15.545-9.115-29.709-23.629-35.243-4.867-1.855-8.838-5.479-11.182-10.199-6.253-12.595-18.861-20.419-32.905-20.419-14.043 0-26.651 7.824-32.905 20.419-2.342 4.72-6.313 8.343-11.182 10.199-14.513 5.534-24.009 19.697-23.629 35.241.464 19.011 15.684 34.711 34.649 35.743 6.748.37 13.427-1.1 19.315-4.244 8.61-4.6 18.892-4.599 27.503-.001 5.887 3.145 12.577 4.614 19.314 4.245 3.353-.182 6.655-.829 9.818-1.922 3.913-1.358 8.186.724 9.538 4.638 1.353 3.914-.723 8.185-4.638 9.538-4.48 1.55-9.158 2.466-13.904 2.725-9.48.51-18.889-1.557-27.194-5.992-4.186-2.234-9.186-2.233-13.371 0-7.474 3.992-15.838 6.069-24.35 6.069z"/></g><g><path d="m315.205 512.008c-38.225 0-82.823-17.219-132.794-51.305-40.465-27.602-68.87-55.858-70.06-57.048-1.885-1.886-46.543-46.84-78.112-104.165-1.998-3.629-.677-8.189 2.951-10.188 3.631-1.998 8.19-.677 10.188 2.951 30.553 55.478 75.134 100.348 75.581 100.794 1.119 1.119 113.127 111.944 202.258 103.495 4.744-.448 9.324-2.665 12.899-6.24l28.914-28.914c6.251-6.251 9.468-14.893 8.826-23.709s-5.076-16.901-12.166-22.181l-33.975-25.3c-15.311-11.405-37.04-9.823-50.544 3.679l-12.053 12.053c-4.218 4.216-10.219 6.277-16.044 5.523-30.441-3.965-68.499-38.069-88.477-58.046-19.978-19.979-54.083-58.037-58.045-88.476-.76-5.826 1.305-11.825 5.523-16.044l12.053-12.053c13.502-13.502 15.083-35.231 3.679-50.545l-25.3-33.974c-5.279-7.09-13.364-11.524-22.181-12.166-8.808-.639-17.457 2.574-23.71 8.826l-28.912 28.914c-3.576 3.575-5.793 8.156-6.242 12.899-2.121 22.417 3.188 48.324 15.778 77.001 1.665 3.793-.06 8.218-3.852 9.883-3.794 1.665-8.218-.06-9.883-3.852-13.628-31.041-19.339-59.452-16.975-84.442.778-8.211 4.531-16.058 10.569-22.094l28.912-28.913c9.336-9.336 22.248-14.141 35.405-13.18 13.166.958 25.238 7.58 33.123 18.167l25.3 33.974c15.818 21.241 13.625 51.382-5.103 70.11l-12.053 12.054c-.949.948-1.418 2.256-1.257 3.499 1.172 8.998 8.756 34.783 53.778 79.806 45.021 45.021 70.808 52.606 79.806 53.778 1.244.166 2.553-.308 3.5-1.256l12.053-12.053c18.73-18.73 48.871-20.923 70.11-5.102l33.975 25.299c10.587 7.885 17.209 19.957 18.167 33.123.959 13.165-3.845 26.07-13.179 35.404l-28.914 28.914c-6.037 6.037-13.884 9.791-22.094 10.567-3.739.355-7.551.533-11.423.533z"/></g><g><path d="m291.807 348.893c-1.596 0-3.207-.311-4.746-.948-4.639-1.921-7.636-6.407-7.636-11.428v-39.075c0-.827-.479-1.595-1.25-2.001-51.607-27.245-83.666-80.389-83.667-138.694 0-4.142 3.357-7.5 7.5-7.5 4.142 0 7.5 3.357 7.5 7.5.001 52.728 28.996 100.789 75.67 125.429 5.704 3.012 9.247 8.861 9.247 15.267v32.724l27.552-27.553c3.702-3.702 8.823-5.506 14.044-4.941 5.059.543 10.184.818 15.232.818 78.158 0 141.744-63.587 141.744-141.745 0-37.755-14.673-73.278-41.315-100.027-26.635-26.74-62.083-41.556-99.815-41.716-.195-.003-.398-.003-.592-.003-66.11 0-124.297 46.803-138.498 111.501-.887 4.045-4.88 6.608-8.934 5.717-4.045-.888-6.605-4.888-5.717-8.934 7.558-34.434 26.936-65.758 54.564-88.201 27.867-22.638 62.856-35.083 98.591-35.083.217 0 .433 0 .649.001 41.727.177 80.927 16.561 110.38 46.131 29.462 29.58 45.688 68.862 45.688 110.612 0 86.43-70.315 156.745-156.744 156.745-5.581 0-11.245-.305-16.835-.904-.683-.073-1.357.157-1.834.635l-32.044 32.044c-2.373 2.371-5.522 3.628-8.734 3.629z"/></g></g></svg>