<svg id="Capa_1" enable-background="new 0 0 512 512" height="512" viewBox="0 0 512 512" width="512" xmlns="http://www.w3.org/2000/svg"><g><path d="m320.917 411.521c-4.142 0-7.5 3.358-7.5 7.5v14.033h-14.033c-4.142 0-7.5 3.358-7.5 7.5s3.358 7.5 7.5 7.5h14.033v14.033c0 4.142 3.358 7.5 7.5 7.5s7.5-3.358 7.5-7.5v-14.033h14.033c4.142 0 7.5-3.358 7.5-7.5s-3.358-7.5-7.5-7.5h-14.033v-14.033c0-4.142-3.358-7.5-7.5-7.5z"/><path d="m123.995 314.881c-37.043 0-67.205 30.043-67.252 67.021v35.205c0 4.142 3.358 7.5 7.5 7.5s7.5-3.358 7.5-7.5v-35.195c.037-28.706 23.468-52.031 52.259-52.031h.068l6.711.002v29.787c-15.377 3.433-26.908 17.178-26.908 33.575 0 18.973 15.435 34.408 34.408 34.408s34.408-15.436 34.408-34.408c0-16.396-11.531-30.142-26.908-33.575v-29.782l30.764.01 42.151 36.295c18.438 15.876 44.996 18.422 66.088 6.335 3.594-2.06 4.837-6.642 2.778-10.237-2.06-3.594-6.643-4.837-10.237-2.778-15.584 8.932-35.212 7.048-48.841-4.688l-28.942-24.921 4.613.001h.004c3.338 0 6.477-1.3 8.837-3.66 2.361-2.361 3.662-5.501 3.662-8.84v-17.938c12.035 5.411 25.346 8.425 39.342 8.425 14.16 0 27.621-3.081 39.766-8.613v18.128c0 6.893 5.607 12.5 12.5 12.5h4.622l-11.339 9.763c-3.139 2.703-3.493 7.438-.79 10.577 2.702 3.138 7.438 3.493 10.577.79l24.544-21.131 52.057-.025h.068c28.781 0 52.215 23.327 52.252 52.021v112.598c0 1.378-1.122 2.5-2.5 2.5h-56.537v-44.131c0-4.142-3.358-7.5-7.5-7.5s-7.5 3.358-7.5 7.5v44.131h-220.44v-44.131c0-4.142-3.358-7.5-7.5-7.5s-7.5 3.358-7.5 7.5v44.131h-56.537c-1.378 0-2.5-1.122-2.5-2.5v-44.707c0-4.142-3.358-7.5-7.5-7.5s-7.5 3.358-7.5 7.5v44.707c0 9.649 7.851 17.5 17.5 17.5h363.515c9.649 0 17.5-7.851 17.5-17.5v-112.608c-.047-36.97-30.206-67.011-67.246-67.011l-77.245.027v-24.155c24.104-16.692 40.433-44.07 42.273-75.334 20.246-.488 36.568-17.098 36.568-37.459 0-10.173-4.079-19.406-10.68-26.166v-54.315c0-4.142-3.358-7.5-7.5-7.5s-7.5 3.358-7.5 7.5v44.912c-3.44-1.144-7.098-1.801-10.895-1.892-.865-14.08-4.717-27.892-11.27-40.279-2.145-4.056-6.321-6.575-10.898-6.575h-38.595c-28.049 0-55.603-9.605-77.586-27.046-4.272-3.39-10.356-3.536-14.797-.355-24.092 17.261-39.095 44.682-40.915 74.256-3.758.09-7.379.732-10.787 1.855v-45.524c0-.196-.008-.392-.023-.587-.607-7.727 1.957-15.116 7.218-20.807 5.262-5.69 12.427-8.825 20.178-8.825 4.142 0 7.5-3.358 7.5-7.5 0-24.323 19.788-44.112 44.112-44.112h118.974c9.807 0 17.785 7.979 17.785 17.785v33.136c0 4.142 3.358 7.5 7.5 7.5s7.5-3.358 7.5-7.5v-33.136c-.002-18.077-14.71-32.785-32.787-32.785h-118.975c-30.261 0-55.284 22.858-58.712 52.214-9.177 1.565-17.7 6.127-24.091 13.04-7.946 8.594-12.012 20.189-11.182 31.856v54.569c-6.666 6.77-10.79 16.052-10.79 26.281 0 20.361 16.322 36.971 36.568 37.459 1.851 31.449 18.359 58.969 42.697 75.632v23.854zm33.693 78.364c0 10.702-8.706 19.408-19.408 19.408s-19.408-8.707-19.408-19.408c0-10.702 8.706-19.408 19.408-19.408s19.408 8.706 19.408 19.408zm195.531-192.831v-44.91c11.89.573 21.388 10.425 21.388 22.455 0 12.031-9.498 21.882-21.388 22.455zm-215.826-22.454c0-12.03 9.497-21.882 21.388-22.455v44.91c-11.891-.574-21.388-10.426-21.388-22.455zm36.388 31.548v-62.92c0-26.368 12.38-51.245 33.218-66.959 24.348 18.727 54.542 29.016 85.27 29.016h36.963c5.884 11.665 8.987 24.748 8.987 37.943v62.92c0 45.978-36.883 83.384-82.219 83.384s-82.219-37.406-82.219-83.384z"/><path d="m130.78 393.245c0 4.142 3.358 7.5 7.5 7.5s7.5-3.358 7.5-7.5c0-4.142-3.358-7.5-7.5-7.5s-7.5 3.358-7.5 7.5z"/></g></svg>