<?xml version="1.0" encoding="UTF-8"?>
<svg version="1.1" xmlns="http://www.w3.org/2000/svg" width="1254" height="1254">
<path d="M0 0 C413.82 0 827.64 0 1254 0 C1254 413.82 1254 827.64 1254 1254 C840.18 1254 426.36 1254 0 1254 C0 840.18 0 426.36 0 0 Z " fill="none" transform="translate(0,0)"/>
<path d="M0 0 C1.42064752 0.64593568 2.84264286 1.28891132 4.265625 1.9296875 C21.95025963 9.96899114 37.75941318 19.9854296 53 32 C54.49466797 33.17369141 54.49466797 33.17369141 56.01953125 34.37109375 C66.24284271 42.57606905 75.65669189 51.57339892 84.9375 60.8125 C86.0205542 61.88854492 86.0205542 61.88854492 87.12548828 62.98632812 C90.17619643 66.04630461 93.14839133 69.09772384 95.87890625 72.44921875 C97.74374301 75.03928211 97.74374301 75.03928211 100 76 C100.226875 75.45601563 100.45375 74.91203125 100.6875 74.3515625 C102.38986093 71.30149916 104.62268921 68.90249408 107 66.375 C107.77428345 65.54597168 107.77428345 65.54597168 108.56420898 64.70019531 C130.59539302 41.30345524 130.59539302 41.30345524 143 32 C143.5465625 31.58234375 144.093125 31.1646875 144.65625 30.734375 C184.08745243 0.64214157 231.30412559 -18.54920043 281.35717773 -18.26074219 C283.56587023 -18.24998358 285.77375298 -18.2607454 287.98242188 -18.2734375 C302.88550149 -18.29150472 316.92211171 -16.35698739 331.375 -12.5625 C332.55449219 -12.26279297 333.73398437 -11.96308594 334.94921875 -11.65429688 C345.78559159 -8.87589427 355.92594801 -5.88474381 366 -1 C366.71478516 -0.66081543 367.42957031 -0.32163086 368.16601562 0.02783203 C397.91122919 14.17449943 424.73991655 33.75544922 445 60 C445.40734375 60.52174805 445.8146875 61.04349609 446.234375 61.58105469 C458.99990443 78.11362722 468.35478168 96.63819437 476 116 C476.47953125 117.18335938 476.9590625 118.36671875 477.453125 119.5859375 C487.52104439 145.90271414 491.22370107 174.1118492 491.3125 202.125 C491.31511841 202.92258728 491.31773682 203.72017456 491.32043457 204.54193115 C491.33065417 233.98095501 487.43746622 263.32230119 477.93652344 291.24267578 C477.27470853 293.19119966 476.62264771 295.14304947 475.97753906 297.09716797 C461.5234369 340.73669409 438.70797567 381.34376729 408.51171875 416.0859375 C406.10245769 418.88112995 403.7975562 421.73780549 401.5 424.625 C397.48681697 429.56596191 393.09409543 434.00644818 388.55078125 438.44921875 C386.43367802 440.56632198 384.48182994 442.70707786 382.5625 445 C378.34707542 449.92465478 373.48827234 454.14628096 368.6796875 458.47314453 C366.33505388 460.60444375 364.03104528 462.77781971 361.72314453 464.94873047 C355.36134072 470.92085858 348.83374113 476.56829 342 482 C340.89501342 482.89612535 339.79089215 483.79331843 338.6875 484.69140625 C322.95255813 497.45512814 306.64462915 509.45379851 290 521 C289.35675781 521.44762695 288.71351563 521.89525391 288.05078125 522.35644531 C262.72030369 539.96703595 236.81001287 556.73828909 210.75585938 573.25292969 C206.06399432 576.22732607 201.37525979 579.20663867 196.6875 582.1875 C195.7692041 582.77136475 194.8509082 583.35522949 193.90478516 583.95678711 C187.66053696 587.93146758 181.4410226 591.94264848 175.23413086 595.9753418 C171.02084447 598.7076543 166.78527831 601.40084256 162.53100586 604.06884766 C132.31992358 623.02393321 102.41600934 642.64568515 74.50390625 664.890625 C73 666 73 666 72 666 C71.09733832 661.32605616 70.79743036 656.75532847 70.7265625 652.0078125 C70.70777039 650.8520295 70.70777039 650.8520295 70.68859863 649.67289734 C70.32773923 622.00096083 72.47231083 595.23673878 82 569 C82.26055176 568.26152832 82.52110352 567.52305664 82.78955078 566.76220703 C87.82004678 552.70417442 94.5190078 539.37546425 101.10397339 525.99914551 C117.37037914 495.58377612 117.37037914 495.58377612 116.94921875 462.33984375 C113.76209303 454.48351328 108.49834428 450.26433583 100.9140625 446.9921875 C97.20424253 445.72905845 93.45294139 444.94458443 89.625 444.125 C82.31812968 442.52555337 76.235669 440.26432605 70 436 C69.29746094 435.52175781 68.59492187 435.04351563 67.87109375 434.55078125 C58.37207747 427.17091929 52.31158654 415.33967514 49 404 C48.70351563 403.08476563 48.40703125 402.16953125 48.1015625 401.2265625 C46.04475434 394.49004404 44.09346633 387.07220783 47.20703125 380.421875 C49.24787261 377.66518296 51.11676196 376.36277352 54.0625 374.625 C57.90877787 372.27846443 61.71537034 369.91532588 65.4375 367.375 C66.21996094 366.84648438 67.00242187 366.31796875 67.80859375 365.7734375 C73.40300534 361.24605272 75.01084186 356.50334451 76.875 349.8125 C81.98350282 332.82805303 91.44713083 321.35583471 107.09960938 312.93261719 C115.4782835 308.60852378 123.83588361 305.92489043 133 303.8125 C133.72364746 303.64516357 134.44729492 303.47782715 135.19287109 303.30541992 C141.09196044 302.02567789 146.98496061 301.44620911 153 301 C154.02344682 297.52159716 155.04325336 294.04213572 156.0625 290.5625 C156.53296753 288.96172607 156.53296753 288.96172607 157.01293945 287.32861328 C158.69319723 281.58364813 160.32922888 275.83138654 161.8828125 270.05078125 C162.18566162 268.9330835 162.48851074 267.81538574 162.80053711 266.66381836 C163.38082573 264.51213433 163.95231754 262.35805372 164.51391602 260.20141602 C166.09305545 254.37349226 167.63002726 249.36997274 172 245 C177.39677425 244.77035003 179.87641049 246.41935978 183.875 250 C185.5948386 251.65479175 187.30327387 253.32151824 189 255 C189.76699219 255.70640625 190.53398438 256.4128125 191.32421875 257.140625 C197.59143669 263.04690368 202.40930188 269.76177833 207 277 C207.680625 278.06992187 208.36125 279.13984375 209.0625 280.2421875 C216.52125717 292.62488984 221.9325856 305.84684001 225.13134766 319.94360352 C227.63556554 330.9504938 230.73170467 337.47722535 238.58740234 345.46777344 C266.85481585 376.12907436 276.12401976 422.38300596 276.1875 462.5 C276.18876892 463.28249115 276.19003784 464.0649823 276.19134521 464.8711853 C276.18698338 488.62603323 276.18698338 488.62603323 274 493 C296.09021723 478.58989414 317.273383 463.10891801 336.6484375 445.16796875 C338.79288047 443.19094906 340.97531568 441.27542862 343.1875 439.375 C346.69578976 436.33400293 349.94222938 433.07957497 353.1953125 429.76953125 C355 428 355 428 357.5625 426 C360.42510123 423.65119899 362.65740891 421.00770426 365.0546875 418.1953125 C367.0723892 415.91830777 369.19385619 413.80784537 371.375 411.6875 C376.33831644 406.77440261 380.65509036 401.45898904 385 396 C385.93619219 394.85309789 386.87375373 393.70731253 387.8125 392.5625 C422.14537264 350.49781248 446.28058022 301.28412316 457 248 C457.17934082 247.15034668 457.35868164 246.30069336 457.54345703 245.42529297 C467.91025576 194.86784652 457.98735783 136.91677889 430.0625 93.6875 C428.72840049 91.77749218 427.37352404 89.88185629 426 88 C424.85724609 86.41251953 424.85724609 86.41251953 423.69140625 84.79296875 C409.5855186 65.7520847 392.09788102 50.78827106 371.84765625 38.70703125 C369.50905293 37.30515244 367.25901574 35.83580289 365 34.3125 C359.73671046 31.00064197 353.81811977 29.10897624 348 27 C346.72870736 26.50116898 345.45779773 26.00135919 344.1875 25.5 C337.57438241 23.0271462 330.76409264 21.0212664 324 19 C322.90469971 18.66838867 321.80939941 18.33677734 320.6809082 17.99511719 C308.60768143 14.73117394 296.16918159 14.6296383 283.75 14.6875 C282.52860321 14.69023422 282.52860321 14.69023422 281.28253174 14.69302368 C269.29292226 14.7381881 257.69964379 15.1587727 246 18 C244.77579346 18.28931396 244.77579346 18.28931396 243.52685547 18.58447266 C212.93253695 25.9291829 184.37904793 40.12112147 160 60 C159.225354 60.6202002 159.225354 60.6202002 158.43505859 61.25292969 C150.0328056 68.01109423 142.32832805 75.46574224 134.6875 83.0625 C133.30896851 84.42713379 133.30896851 84.42713379 131.90258789 85.81933594 C122.53493863 95.23013069 114.48817869 105.53907469 106.53320312 116.14257812 C103.8699275 119.6624817 101.24896725 122.98703522 98 126 C97.18917969 124.99582031 96.37835937 123.99164063 95.54296875 122.95703125 C80.98127956 104.84467973 80.98127956 104.84467973 65 88 C62.40361458 85.42047423 59.82828117 82.82385289 57.2734375 80.203125 C50.86475972 73.64774255 44.2988732 67.57401511 37 62 C36.06124023 61.27925293 36.06124023 61.27925293 35.10351562 60.54394531 C8.45602438 40.23567207 -21.30542761 25.39602064 -54.0625 18.125 C-54.97741211 17.92165039 -55.89232422 17.71830078 -56.83496094 17.50878906 C-69.16275299 14.93622631 -81.57985753 14.75986122 -94.125 14.75 C-94.9016803 14.74932526 -95.6783606 14.74865051 -96.47857666 14.74795532 C-107.94688257 14.76375921 -118.8144155 15.30801273 -130 18 C-131.84089777 18.41516396 -133.68206125 18.8291509 -135.5234375 19.2421875 C-145.05883814 21.38309654 -145.05883814 21.38309654 -154.421875 24.15234375 C-157 25 -157 25 -160 25 C-160 25.66 -160 26.32 -160 27 C-161.16789062 27.34998047 -161.16789062 27.34998047 -162.359375 27.70703125 C-196.49037541 38.83499567 -229.71189478 65.56251832 -250 95 C-250.44150391 95.64018066 -250.88300781 96.28036133 -251.33789062 96.93994141 C-260.35003518 110.15880378 -268.45511236 123.89528618 -273.89453125 138.98828125 C-274.96020646 141.8915872 -276.17556577 144.67756665 -277.4375 147.5 C-286.10936417 168.30702001 -291.01826688 192.30485733 -291.23828125 214.84375 C-291.24802979 215.67798492 -291.25777832 216.51221985 -291.26782227 217.37173462 C-291.4640955 238.59942126 -290.57804834 259.03820518 -287 280 C-286.82339844 281.0410791 -286.64679688 282.0821582 -286.46484375 283.15478516 C-281.77841981 309.72420531 -274.99131535 338.80972522 -263.26953125 363.18359375 C-261.72047881 366.620107 -260.46205725 370.14329928 -259.1875 373.6875 C-256.35928912 381.4471391 -252.81600097 388.70825024 -249.01464844 396.03076172 C-247.71445341 398.55419125 -246.4568886 401.09752489 -245.20019531 403.64282227 C-243.4864378 407.10512323 -241.74287811 410.55229151 -240 414 C-239.57235352 414.84949219 -239.14470703 415.69898438 -238.70410156 416.57421875 C-226.24795459 441.22279751 -211.45371363 464.16237643 -196 487 C-196.33 487.66 -196.66 488.32 -197 489 C-207.89548984 479.18633185 -218.59380961 469.33603107 -227.734375 457.828125 C-229.7504034 455.31156541 -231.82390574 452.85796807 -233.9309082 450.41748047 C-250.59758551 431.05597904 -264.29949252 409.73947527 -276.65820312 387.42089844 C-277.49976669 385.90253156 -278.34662118 384.3870723 -279.20117188 382.87597656 C-289.84443052 364.051981 -298.44735517 343.601671 -305 323 C-305.36617432 321.86618896 -305.36617432 321.86618896 -305.73974609 320.70947266 C-315.40021465 290.56709986 -321.21555992 259.25186893 -321.13037109 227.55834961 C-321.1250334 225.20224503 -321.13033432 222.84633302 -321.13671875 220.49023438 C-321.16007069 182.2081263 -312.16231183 145.63783944 -296 111 C-295.63326172 110.21125488 -295.26652344 109.42250977 -294.88867188 108.60986328 C-286.03284002 89.95296135 -273.91971854 72.22538371 -260 57 C-258.79923828 55.63875 -258.79923828 55.63875 -257.57421875 54.25 C-229.34748712 22.37039722 -192.83707101 0.587452 -152 -11 C-150.94554687 -11.31324219 -149.89109375 -11.62648438 -148.8046875 -11.94921875 C-101.35004033 -25.02345828 -44.51851835 -21.58131219 0 0 Z " fill="#0FA798" transform="translate(542,286)"/>
<path d="M0 0 C1.14210938 0.31066406 2.28421875 0.62132812 3.4609375 0.94140625 C17.53638448 5.14894603 29.90680354 12.49810345 41 22 C41.75925781 22.64582031 42.51851562 23.29164063 43.30078125 23.95703125 C55.64709063 35.34440398 61.67256297 51.51113518 65.68212891 67.38867188 C68.06939187 76.42628755 72.05556667 83.77631234 80 89 C90.52991969 94.75713133 101.84069957 97.85152076 113.3125 101.125 C115.99760184 101.8942467 118.68160626 102.66666016 121.36308289 103.44845581 C123.01603548 103.93018192 124.67104337 104.40493685 126.32844543 104.87112427 C133.46776652 106.94796423 141.20914104 109.54173024 145.8125 115.69067383 C149.16632262 122.21283834 147.2842525 130.89062509 145.3125 137.61328125 C144.56555148 139.85445652 143.79403227 142.08757047 143 144.3125 C142.59354248 145.48659424 142.18708496 146.66068848 141.76831055 147.87036133 C137.502497 159.90033677 132.68579085 172.40786576 124 182 C123.15953125 182.94359375 122.3190625 183.8871875 121.453125 184.859375 C114.48150057 192.3977693 107.19658329 197.5011026 98 202 C97.00097656 202.49242187 96.00195312 202.98484375 94.97265625 203.4921875 C77.39685439 211.46617546 59.43267055 210.25169535 40.57446289 209.86303711 C37.06398935 209.79639615 33.55383394 209.75465204 30.04296875 209.71484375 C28.98232712 209.68478745 27.92168549 209.65473114 26.8289032 209.62376404 C18.34140315 209.54001373 11.85667315 211.47832909 4.75 216.125 C-6.84877417 228.25099118 -7.48389087 241.90056005 -7.265625 257.8125 C-6.39892593 285.71681108 10.05812322 307.58687867 27.55078125 327.97265625 C35.05420705 336.72253478 42.09906318 345.76853213 49 355 C49.45262207 355.59925293 49.90524414 356.19850586 50.37158203 356.81591797 C78.81779587 394.59688785 91.25819662 439.09310317 91.1875 486.0625 C91.18689575 486.8071048 91.1862915 487.55170959 91.18566895 488.31887817 C91.13494108 511.5172869 88.71719371 534.10706467 85 557 C81.23004847 555.62849282 78.11135254 553.89735723 74.7890625 551.65625 C73.30418335 550.65984497 73.30418335 550.65984497 71.78930664 549.64331055 C70.74508545 548.93601807 69.70086426 548.22872559 68.625 547.5 C67.00742798 546.41295776 67.00742798 546.41295776 65.35717773 545.30395508 C63.20710397 543.85892385 61.05823145 542.41210347 58.91064453 540.96337891 C43.75606967 530.7408415 28.42766954 520.80504661 13 511 C9.33261315 508.66779652 5.66582775 506.33465339 2 504 C1.30567871 503.55785156 0.61135742 503.11570312 -0.10400391 502.66015625 C-26.49723613 485.81369857 -52.72803164 468.56512417 -77.39501953 449.25341797 C-79.11095428 447.91334967 -80.83446717 446.58341492 -82.55859375 445.25390625 C-88.74822286 440.46155972 -94.76809853 435.58146536 -100.5234375 430.265625 C-102.54655001 428.41482807 -104.59844289 426.62065567 -106.67578125 424.83203125 C-119.73886449 413.42315841 -131.71036486 400.95118571 -142 387 C-142.83775892 385.93509648 -143.68024716 384.87389709 -144.52734375 383.81640625 C-159.21505381 365.41443284 -171.53740369 343.95247755 -180 322 C-180.47308594 320.783125 -180.94617188 319.56625 -181.43359375 318.3125 C-184.76468597 309.37220975 -187.34252063 300.15741795 -190 291 C-190.36996094 289.74445313 -190.73992187 288.48890625 -191.12109375 287.1953125 C-199.0110002 256.31520016 -188.8409756 221.54504508 -177 193 C-176.41329044 191.50443103 -175.83116891 190.00705313 -175.25390625 188.5078125 C-174.97619385 187.78835449 -174.69848145 187.06889648 -174.41235352 186.32763672 C-174.13190186 185.6007666 -173.8514502 184.87389648 -173.5625 184.125 C-170.81778083 177.03490854 -167.97688045 169.99635497 -165 163 C-161.44386343 163.55947838 -160.1757418 164.62150084 -158 167.4375 C-146.22396211 181.41373181 -128.86516847 192.0292604 -111 196 C-97.65739169 196.94246476 -86.09290892 196.13405907 -75.125 187.5625 C-64.4967389 177.24683481 -60.2016536 161.09506956 -59.796875 146.7421875 C-59.60407508 132.06310247 -60.62935116 117.79271229 -63.52587891 103.3840332 C-64.95914444 96.1818413 -65.41879185 89.14577747 -65.625 81.8125 C-65.66367187 80.66974609 -65.70234375 79.52699219 -65.7421875 78.34960938 C-65.83534411 75.56655555 -65.92115849 72.78348978 -66 70 C-66.48108275 71.41601714 -66.95978141 72.83284437 -67.4375 74.25 C-67.70433594 75.03890625 -67.97117187 75.8278125 -68.24609375 76.640625 C-69.56685257 80.77398421 -70.10925559 84.16859556 -70.01831055 88.53686523 C-69.98914803 90.20657631 -69.98914803 90.20657631 -69.95939636 91.91001892 C-69.93541275 93.11404861 -69.91142914 94.31807831 -69.88671875 95.55859375 C-69.85453237 98.13865256 -69.82398963 100.71873229 -69.79492188 103.29882812 C-69.74754242 107.3424534 -69.6886221 111.38494788 -69.60229492 115.42797852 C-69.19541263 135.31112387 -68.78807501 157.47110271 -82.9921875 173.20703125 C-90.13081386 179.29411721 -96.00045851 181.67339936 -105.4765625 181.40234375 C-124.78777472 179.19718315 -141.50413296 165.16017621 -153.5625 150.75 C-155.05960679 148.84731337 -156.53739798 146.92933679 -158 145 C-158.44762695 144.41138184 -158.89525391 143.82276367 -159.35644531 143.21630859 C-171.48242471 127.20125401 -181.07206888 112.93430419 -179 92 C-171.83624704 58.59741223 -125.81047116 28.51381735 -98.984375 11.03515625 C-69.41637939 -7.02978224 -32.85182548 -9.60541422 0 0 Z " fill="#085278" transform="translate(509,386)"/>
<path d="M0 0 C1.84387844 -0.01655449 3.68769283 -0.04383803 5.53125 -0.08203125 C8.19182569 -0.13685899 10.85089801 -0.15868213 13.51196289 -0.17333984 C14.33295975 -0.19600922 15.1539566 -0.21867859 15.99983215 -0.24203491 C20.34360187 -0.22603972 21.9496673 -0.06086401 25.45800781 2.7578125 C28.92038472 7.23843626 28.59157503 10.81122062 28.55883789 16.29541016 C28.55742294 17.18042206 28.556008 18.06543396 28.55455017 18.9772644 C28.54894304 21.80990956 28.53638935 24.6424763 28.52368164 27.47509766 C28.51866756 29.39306527 28.51410449 31.31103411 28.51000977 33.22900391 C28.4989713 37.93606547 28.48170189 42.64306826 28.46118164 47.35009766 C29.64147949 47.32915039 30.82177734 47.30820312 32.0378418 47.28662109 C36.43224881 47.21401996 40.82660318 47.16822495 45.22143555 47.13037109 C47.12061489 47.11030136 49.01973279 47.08303915 50.91870117 47.04833984 C53.65437003 46.99961656 56.38921935 46.97708258 59.12524414 46.95947266 C60.39121933 46.92850494 60.39121933 46.92850494 61.68276978 46.89691162 C67.07738002 46.89487528 70.24553208 47.65846832 74.46118164 51.35009766 C77.21233777 54.88871342 76.76717807 59.14191572 76.76196289 63.43994141 C76.76624802 64.22148087 76.77053314 65.00302032 76.77494812 65.8082428 C76.78068079 67.45817091 76.78119951 69.10812429 76.77685547 70.75805664 C76.77369681 73.27550597 76.797162 75.791778 76.82250977 78.30908203 C76.82478309 79.91520035 76.8254861 81.52132181 76.82446289 83.12744141 C76.83367264 83.87654282 76.84288239 84.62564423 76.85237122 85.39744568 C76.81272173 89.90078768 76.3501269 92.84167047 73.46118164 96.35009766 C69.07144181 100.08262086 64.69834452 99.74290921 59.22290039 99.64306641 C58.34213333 99.63882156 57.46136627 99.63457672 56.5539093 99.63020325 C53.75185054 99.6134641 50.95052155 99.57582095 48.14868164 99.53759766 C46.24439518 99.52254465 44.34009741 99.50885732 42.43579102 99.49658203 C37.77730842 99.46357619 33.1193686 99.41182694 28.46118164 99.35009766 C28.49260254 101.12054443 28.49260254 101.12054443 28.5246582 102.92675781 C28.59725933 107.32116483 28.64305435 111.71551919 28.6809082 116.11035156 C28.70097794 118.00953091 28.72824015 119.9086488 28.76293945 121.80761719 C28.81166273 124.54328605 28.83419671 127.27813536 28.85180664 130.01416016 C28.87245178 130.85814362 28.89309692 131.70212708 28.91436768 132.57168579 C28.91640114 137.95866332 28.14261042 141.13099745 24.46118164 145.35009766 C18.34743797 147.38801221 11.26395536 146.69834414 4.84692383 146.75512695 C3.00981886 146.77673422 1.17281759 146.81086963 -0.66381836 146.85766602 C-3.31792967 146.92463847 -5.9699191 146.95211547 -8.62475586 146.97119141 C-9.44261566 146.99902206 -10.26047546 147.02685272 -11.1031189 147.05552673 C-15.44372593 147.03990161 -17.07867111 146.72131106 -20.56542969 143.90844727 C-23.39176884 139.80920417 -23.17073866 135.61478774 -23.02709961 130.79541016 C-23.02002487 129.893862 -23.01295013 128.99231384 -23.00566101 128.06344604 C-22.97779727 125.19979906 -22.91507536 122.33814795 -22.85131836 119.47509766 C-22.82622505 117.52720934 -22.80341369 115.5792902 -22.78295898 113.63134766 C-22.72799703 108.87016855 -22.64178131 104.11047083 -22.53881836 99.35009766 C-23.77970215 99.37628174 -25.02058594 99.40246582 -26.29907227 99.42944336 C-30.91705184 99.52016348 -35.53495315 99.57742626 -40.15356445 99.62475586 C-42.14979309 99.64985038 -44.14593029 99.68393391 -46.1418457 99.72729492 C-49.01658724 99.78817012 -51.89011083 99.8163579 -54.76538086 99.83837891 C-55.65311188 99.86418533 -56.5408429 99.88999176 -57.45547485 99.9165802 C-61.5103887 99.91840234 -64.68991906 99.73612637 -68.09765625 97.39746094 C-71.42020284 93.24984352 -71.42560666 90.28407 -71.37084961 85.10400391 C-71.37896164 84.21527084 -71.38707367 83.32653778 -71.39543152 82.41087341 C-71.40387698 80.53572354 -71.39706263 78.66045072 -71.37597656 76.78540039 C-71.35141359 73.92369293 -71.39606413 71.0687624 -71.44702148 68.20751953 C-71.44665095 66.38134201 -71.44222784 64.55515989 -71.43334961 62.72900391 C-71.45065628 61.87883194 -71.46796295 61.02865997 -71.48579407 60.15272522 C-71.38136548 55.69417445 -70.81975523 52.99823288 -67.58618164 49.80053711 C-63.19824083 46.59627194 -59.16455893 46.57425547 -53.88647461 46.76416016 C-52.9863414 46.77264984 -52.08620819 46.78113953 -51.15879822 46.78988647 C-48.30504815 46.82327237 -45.45420315 46.89851984 -42.60131836 46.97509766 C-40.65800001 47.00521658 -38.71463704 47.032589 -36.77124023 47.05712891 C-32.02599316 47.12301466 -27.28289695 47.22643008 -22.53881836 47.35009766 C-22.55976562 46.13427002 -22.58071289 44.91844238 -22.60229492 43.66577148 C-22.67480152 39.14652322 -22.72065692 34.62732619 -22.75854492 30.10766602 C-22.7786361 28.15315092 -22.80591425 26.19869576 -22.84057617 24.24438477 C-22.88920437 21.43181558 -22.91181196 18.62004239 -22.92944336 15.80712891 C-22.9500885 14.93611038 -22.97073364 14.06509186 -22.99200439 13.16767883 C-22.99352962 9.02563982 -22.8891022 6.90861578 -20.6394043 3.3215332 C-15.40829782 -1.587949 -6.81860666 0.04489518 0 0 Z " fill="#0DA798" transform="translate(823.538818359375,383.64990234375)"/>
<path d="M0 0 C0.66 0 1.32 0 2 0 C4.10900443 3.42713219 4.47895471 6.00871074 4 10 C1.32455074 15.14509474 -2.21144847 18.72074884 -7.8046875 20.609375 C-16.30605805 22.12207439 -23.85138802 20.34461921 -30.8984375 15.55859375 C-31.93871094 14.78708984 -31.93871094 14.78708984 -33 14 C-34.03125 13.2575 -35.0625 12.515 -36.125 11.75 C-36.74375 11.1725 -37.3625 10.595 -38 10 C-38 9.34 -38 8.68 -38 8 C-36.89205078 8.32484375 -36.89205078 8.32484375 -35.76171875 8.65625 C-26.01544132 11.33121306 -17.27311343 12.91217719 -7.9453125 8.21484375 C-4.53014563 6.0820789 -1.807689 3.61537799 0 0 Z " fill="#EFF4F6" transform="translate(541,470)"/>
<path d="M0 0 C0.59425781 0.433125 1.18851563 0.86625 1.80078125 1.3125 C10.561046 7.19809 17.9391685 6.78859227 28 5 C28 5.66 28 6.32 28 7 C25.953125 8.47265625 25.953125 8.47265625 23.25 10.0625 C22.36828125 10.58972656 21.4865625 11.11695313 20.578125 11.66015625 C15.88435582 14.09949387 11.26323954 14.58713429 6 14 C2.34528237 12.37568105 -0.03920508 10.50879091 -2 7 C-2.3125 4.375 -2.3125 4.375 -2 2 C-1.34 1.34 -0.68 0.68 0 0 Z " fill="#F0F9F8" transform="translate(642,647)"/>
<path d="M0 0 C3.34292611 3.1019945 5.76244801 6.43575362 8.25 10.25 C8.95640625 11.32765625 9.6628125 12.4053125 10.390625 13.515625 C10.92171875 14.33546875 11.4528125 15.1553125 12 16 C11.67 16.66 11.34 17.32 11 18 C8.95291072 16.33767934 6.94151159 14.65042611 4.9375 12.9375 C4.06641602 12.23850586 4.06641602 12.23850586 3.17773438 11.52539062 C1.52734375 10.08984375 1.52734375 10.08984375 -1 7 C-0.87109375 3.12890625 -0.87109375 3.12890625 0 0 Z " fill="#21B3A3" transform="translate(334,757)"/>
<path d="M0 0 C5.94 1.485 5.94 1.485 12 3 C11.67 4.32 11.34 5.64 11 7 C11 7.99 11 8.98 11 10 C10.45730469 9.59007812 9.91460938 9.18015625 9.35546875 8.7578125 C8.64003906 8.21898437 7.92460937 7.68015625 7.1875 7.125 C6.47980469 6.59132813 5.77210938 6.05765625 5.04296875 5.5078125 C3.39543703 4.29185219 1.70375789 3.13583859 0 2 C0 1.34 0 0.68 0 0 Z " fill="#DDE8EE" transform="translate(503,478)"/>
<path d="M0 0 C0 0.66 0 1.32 0 2 C-1.75 3.2890625 -1.75 3.2890625 -4 4.625 C-4.7425 5.07101562 -5.485 5.51703125 -6.25 5.9765625 C-6.8275 6.31429687 -7.405 6.65203125 -8 7 C-8.99 6.34 -9.98 5.68 -11 5 C-10.67 4.01 -10.34 3.02 -10 2 C-6.3962102 0.47839986 -3.94779314 0 0 0 Z " fill="#DEF2F0" transform="translate(670,652)"/>
<path d="M0 0 C0.66 0.33 1.32 0.66 2 1 C0.61559342 2.63474589 -0.78303245 4.25745662 -2.1875 5.875 C-2.96480469 6.77992188 -3.74210937 7.68484375 -4.54296875 8.6171875 C-6.99573203 10.99586095 -8.77053123 12.00190486 -12 13 C-8.19524578 8.43969176 -4.25030379 4.14910608 0 0 Z " fill="#25B0A1" transform="translate(298,326)"/>
<path d="M0 0 C1 4 1 4 -0.21484375 6.140625 C-0.78332031 6.83671875 -1.35179687 7.5328125 -1.9375 8.25 C-2.50339844 8.95640625 -3.06929687 9.6628125 -3.65234375 10.390625 C-4.31943359 11.18726563 -4.31943359 11.18726563 -5 12 C-5.99 11.67 -6.98 11.34 -8 11 C-5.36 7.37 -2.72 3.74 0 0 Z " fill="#20B0A4" transform="translate(951,650)"/>
<path d="M0 0 C0.33 0 0.66 0 1 0 C1 5.94 1 11.88 1 18 C0.67 18 0.34 18 0 18 C-0.33 14.7 -0.66 11.4 -1 8 C-1.66 8 -2.32 8 -3 8 C-1.125 2.25 -1.125 2.25 0 0 Z " fill="#A3BCCC" transform="translate(443,454)"/>
<path d="M0 0 C2.38672669 2.96283313 4.7353371 5.94270509 7 9 C6.67 9.66 6.34 10.32 6 11 C3.69 9.02 1.38 7.04 -1 5 C-0.67 3.35 -0.34 1.7 0 0 Z " fill="#2DB6A8" transform="translate(339,764)"/>
<path d="M0 0 C0.33 0.99 0.66 1.98 1 3 C-1.97 5.475 -1.97 5.475 -5 8 C-5 5 -5 5 -2.5 2.3125 C-1.675 1.549375 -0.85 0.78625 0 0 Z " fill="#1BAFA0" transform="translate(891,720)"/>
<path d="M0 0 C1.32 0.66 2.64 1.32 4 2 C3.01 3.485 3.01 3.485 2 5 C1.34 5 0.68 5 0 5 C0 5.66 0 6.32 0 7 C-0.66 7 -1.32 7 -2 7 C-1.34 4.69 -0.68 2.38 0 0 Z " fill="#2A688C" transform="translate(344,549)"/>
<path d="M0 0 C-0.66 0 -1.32 0 -2 0 C-2 0.66 -2 1.32 -2 2 C-4.64 2.33 -7.28 2.66 -10 3 C-10 2.34 -10 1.68 -10 1 C-3.71428571 -1.42857143 -3.71428571 -1.42857143 0 0 Z " fill="#34B9AC" transform="translate(780,274)"/>
<path d="M0 0 C-5.20333134 2.24281523 -8.34264585 3.55577239 -14 2 C-14 1.67 -14 1.34 -14 1 C-12.41913952 0.63495397 -10.83516093 0.28339494 -9.25 -0.0625 C-8.36828125 -0.25972656 -7.4865625 -0.45695312 -6.578125 -0.66015625 C-4.01320972 -0.99825872 -2.42908361 -0.81158635 0 0 Z " fill="#59C6BB" transform="translate(795,271)"/>
<path d="M0 0 C0.66 0.99 1.32 1.98 2 3 C0.68 5.31 -0.64 7.62 -2 10 C-3 8 -3 8 -2.44140625 6.0546875 C-2.15136719 5.33539063 -1.86132812 4.61609375 -1.5625 3.875 C-1.27503906 3.15054687 -0.98757813 2.42609375 -0.69140625 1.6796875 C-0.46324219 1.12539063 -0.23507812 0.57109375 0 0 Z " fill="#C5EBE8" transform="translate(264,432)"/>
<path d="M0 0 C0.33 0.99 0.66 1.98 1 3 C-0.32 4.32 -1.64 5.64 -3 7 C-3.99 6.67 -4.98 6.34 -6 6 C-4.02 4.02 -2.04 2.04 0 0 Z " fill="#EFF9F9" transform="translate(312,357)"/>
<path d="M0 0 C0.66 0.33 1.32 0.66 2 1 C0.35 2.65 -1.3 4.3 -3 6 C-3.99 5.67 -4.98 5.34 -6 5 C-4.02 3.35 -2.04 1.7 0 0 Z " fill="#E4F5F4" transform="translate(332,339)"/>
<path d="M0 0 C0 0.99 0 1.98 0 3 C-0.66 3.66 -1.32 4.32 -2 5 C-4.625 4.625 -4.625 4.625 -7 4 C-4.68143083 2.45428722 -2.49361571 1.20381448 0 0 Z " fill="#246587" transform="translate(429,577)"/>
<path d="M0 0 C0.6875 1.8125 0.6875 1.8125 1 4 C-0.4375 5.75 -0.4375 5.75 -2 7 C-2.99 6.67 -3.98 6.34 -5 6 C-3.35 4.02 -1.7 2.04 0 0 Z " fill="#22AFA3" transform="translate(279,346)"/>
</svg>
