<svg id="Capa_1" enable-background="new 0 0 512.003 512.003" height="512" viewBox="0 0 512.003 512.003" width="512" xmlns="http://www.w3.org/2000/svg"><g><path d="m196.085 237.162v-12.58c0-14.316-11.647-25.962-25.962-25.962-14.316 0-25.962 11.646-25.962 25.962v12.58c0 14.316 11.646 25.962 25.962 25.962 14.316.001 25.962-11.646 25.962-25.962zm-36.924 0v-12.58c0-6.045 4.917-10.962 10.962-10.962 6.044 0 10.962 4.917 10.962 10.962v12.58c0 6.045-4.918 10.962-10.962 10.962-6.045.001-10.962-4.917-10.962-10.962z"/><path d="m367.841 237.162v-12.58c0-14.316-11.646-25.962-25.962-25.962-14.315 0-25.962 11.646-25.962 25.962v12.58c0 14.316 11.646 25.962 25.962 25.962 14.316.001 25.962-11.646 25.962-25.962zm-36.924 0v-12.58c0-6.045 4.918-10.962 10.962-10.962s10.962 4.917 10.962 10.962v12.58c0 6.045-4.918 10.962-10.962 10.962-6.044.001-10.962-4.917-10.962-10.962z"/><path d="m463.111 23.092c0-8.824-7.179-16.002-16.003-16.002-48.254 0-91.596 27.383-112.445 70.381-24.946-10.266-51.371-15.465-78.661-15.465-2.526 0-5.086.046-7.609.137-4.139.149-7.374 3.626-7.225 7.766.149 4.139 3.633 7.382 7.766 7.225 2.343-.084 4.722-.127 7.068-.127 7.93 0 15.777.489 23.53 1.431l13.203 61.116-101.139-51.48c8.441-3.002 17.093-5.412 25.863-7.198 4.059-.827 6.679-4.788 5.852-8.846-.827-4.059-4.789-6.68-8.846-5.852-12.685 2.584-25.139 6.376-37.123 11.297-20.849-43.005-64.19-70.385-112.447-70.385-8.824 0-16.002 7.179-16.002 16.002v143.622c0 4.142 3.358 7.5 7.5 7.5s7.5-3.358 7.5-7.5v-143.622c0-.553.45-1.002 1.002-1.002 44.712 0 84.632 26.717 101.7 68.064.671 1.632 1.95 3.028 3.53 3.823l277.985 141.494v47.275l-90.08 17.071c-4.069.771-6.743 4.695-5.973 8.765.683 3.598 3.828 6.105 7.36 6.105.464 0 .934-.043 1.405-.133l87.284-16.541c-.015 13.623-1.494 27.206-4.357 40.468h-84.323c-4.143 0-7.5 3.358-7.5 7.5s3.357 7.5 7.5 7.5h80.443c-3.431 11.377-7.897 22.426-13.377 32.946-.544 1.044-1.114 2.074-1.678 3.108l-63.992-12.127c-4.062-.772-7.994 1.902-8.766 5.972-.771 4.07 1.903 7.994 5.973 8.765l58.55 11.096c-12.746 19.338-28.992 36.428-47.747 50.062-3.351 2.436-4.092 7.126-1.656 10.477 1.468 2.019 3.754 3.09 6.072 3.09 1.529 0 3.072-.466 4.404-1.434 21.887-15.911 40.608-36.189 54.796-59.188l70.656 13.39c.472.09.941.133 1.405.133 3.532 0 6.679-2.507 7.36-6.105.77-4.07-1.903-7.994-5.973-8.765l-65.651-12.441c6.39-12.418 11.498-25.498 15.246-38.979h49.008c4.143 0 7.5-3.358 7.5-7.5s-3.357-7.5-7.5-7.5h-45.447c2.67-13.362 4.057-27.001 4.057-40.677v-2.634l42.787-8.109c4.069-.771 6.743-4.695 5.973-8.765-.771-4.071-4.7-6.741-8.766-5.972l-39.994 7.579v-256.811zm-15 152.343-55.651-49.852h55.651zm0-152.343v50.122l-61.346-33.16c17.524-11.489 38.35-17.965 60.343-17.965.552.001 1.003.45 1.003 1.003zm-74.374 26.972 74.373 40.202v20.318h-72.395l-28.173-25.238c6.409-13.667 15.373-25.588 26.195-35.282zm-63.76 98.265-14.534-67.276c13.34 2.783 26.345 6.997 38.921 12.625l113.746 101.894v23.067z"/><path d="m294.021 325.564v-5.432c0-9.649-7.851-17.5-17.5-17.5h-41.039c-9.649 0-17.5 7.851-17.5 17.5v5.432c0 20.964 17.056 38.02 38.02 38.02 20.963-.001 38.019-17.056 38.019-38.02zm-61.039 0v-5.432c0-1.378 1.122-2.5 2.5-2.5h41.039c1.379 0 2.5 1.122 2.5 2.5v5.432c0 12.693-10.326 23.02-23.019 23.02-12.694-.001-23.02-10.327-23.02-23.02z"/><path d="m341.939 469.668c-26.81 13.434-55.724 20.245-85.938 20.245-67.024 0-126.13-34.509-160.514-86.684l58.485-11.083c4.07-.771 6.744-4.695 5.972-8.765-.771-4.07-4.694-6.745-8.765-5.972l-63.94 12.117c-6.205-11.37-11.285-23.437-15.11-36.044h80.446c4.142 0 7.5-3.358 7.5-7.5s-3.358-7.5-7.5-7.5h-84.334c-2.825-13.051-4.331-26.587-4.346-40.468l87.284 16.541c.472.09.941.133 1.405.133 3.532 0 6.679-2.507 7.36-6.105.771-4.07-1.902-7.994-5.972-8.765l-90.08-17.071v-83.347c0-4.142-3.358-7.5-7.5-7.5s-7.5 3.358-7.5 7.5v80.503l-39.995-7.579c-4.072-.777-7.994 1.902-8.765 5.972-.771 4.07 1.902 7.994 5.972 8.765l42.788 8.109v2.634c0 13.92 1.39 27.52 4.021 40.677h-45.412c-4.142 0-7.5 3.358-7.5 7.5s3.358 7.5 7.5 7.5h49.002c3.801 13.601 8.954 26.643 15.313 38.967l-65.711 12.454c-4.07.771-6.744 4.695-5.972 8.765.682 3.598 3.828 6.105 7.36 6.105.463 0 .933-.043 1.405-.133l70.721-13.402c36.502 59.159 101.911 98.676 176.383 98.676 32.567 0 63.742-7.346 92.656-21.833 3.704-1.856 5.201-6.362 3.346-10.065-1.856-3.704-6.361-5.202-10.065-3.347z"/></g></svg>