<svg id="Capa_1" enable-background="new 0 0 511.969 511.969" height="512" viewBox="0 0 511.969 511.969" width="512" xmlns="http://www.w3.org/2000/svg"><g><path d="m213.734 248.951v-14.359c0-13.102-10.659-23.762-23.762-23.762-13.102 0-23.763 10.66-23.763 23.762v14.359c0 13.103 10.66 23.763 23.763 23.763s23.762-10.66 23.762-23.763zm-32.525 0v-14.359c0-4.831 3.931-8.762 8.763-8.762 4.831 0 8.762 3.931 8.762 8.762v14.359c0 4.832-3.931 8.763-8.762 8.763-4.832 0-8.763-3.931-8.763-8.763z"/><path d="m298.205 234.592v14.359c0 13.103 10.659 23.763 23.762 23.763s23.763-10.66 23.763-23.763v-14.359c0-13.102-10.66-23.762-23.763-23.762-13.103-.001-23.762 10.659-23.762 23.762zm32.524 0v14.359c0 4.832-3.931 8.763-8.763 8.763-4.831 0-8.762-3.931-8.762-8.763v-14.359c0-4.831 3.931-8.762 8.762-8.762 4.832-.001 8.763 3.93 8.763 8.762z"/><path d="m237.341 133.687c0 3.083 1.2 5.981 3.38 8.161l16.797 16.797c2.181 2.18 5.078 3.38 8.161 3.38s5.98-1.201 8.161-3.38l11.824-11.824 11.824 11.824c2.181 2.18 5.078 3.38 8.161 3.38s5.98-1.201 8.161-3.38l16.795-16.796c2.182-2.18 3.383-5.079 3.383-8.163 0-3.083-1.201-5.982-3.381-8.161l-11.824-11.825 11.823-11.823c2.182-2.18 3.383-5.079 3.383-8.162 0-3.084-1.201-5.983-3.381-8.161l-16.797-16.797c-2.181-2.18-5.078-3.38-8.161-3.38s-5.98 1.201-8.161 3.38l-11.824 11.824-11.825-11.823c-2.181-2.18-5.078-3.38-8.161-3.38s-5.98 1.201-8.161 3.38l-16.797 16.797c-2.18 2.18-3.38 5.078-3.38 8.161s1.2 5.981 3.38 8.161l11.824 11.825-11.824 11.825c-2.179 2.179-3.38 5.077-3.38 8.16zm80.214 0-11.905 11.906-9.379-9.379 11.905-11.906zm-11.905-51.877 11.905 11.906-37.191 37.191c-.001.001-.003.002-.004.003s-.002.002-.003.004l-14.678 14.679-11.905-11.906 37.191-37.191c.001-.001.002-.002.004-.003.001-.001.002-.002.003-.004zm-51.876 11.906 11.905-11.906 9.379 9.379-11.905 11.905z"/><path d="m492.742 130.185-38.868-38.868c-2.93-2.929-7.678-2.929-10.607 0s-2.929 7.678 0 10.606l38.868 38.868c9.566 9.566 14.835 22.285 14.835 35.813 0 13.529-5.269 26.248-14.835 35.814-19.688 19.689-51.686 19.742-71.447.169l-20.091-87.083c-6.995-30.321-24.259-57.688-48.609-77.061-2.275-1.81-4.604-3.543-6.982-5.199 19.196-9.885 43.009-6.574 58.88 9.298l26.269 26.269c1.465 1.464 3.385 2.197 5.304 2.197s3.839-.733 5.304-2.197c2.929-2.929 2.929-7.678 0-10.607l-26.269-26.268c-22.721-22.721-57.999-25.58-83.907-7.467-19.812-10.46-42.063-16.068-64.616-16.068-22.552 0-44.803 5.608-64.615 16.068-25.888-18.073-61.276-15.164-83.908 7.467l-88.249 88.25c-25.596 25.596-25.596 67.244 0 92.839 12.798 12.798 29.609 19.197 46.42 19.197 10.501 0 21.003-2.497 30.526-7.491l-3.256 14.111c-.932 4.036 1.586 8.063 5.622 8.994 4.028.929 8.063-1.586 8.993-5.622l28.455-123.336c6.236-27.029 21.626-51.426 43.333-68.695 21.708-17.27 48.939-26.78 76.679-26.78 27.739 0 54.971 9.511 76.679 26.78s37.097 41.666 43.333 68.695l38.54 167.048c8.455 36.651-7.349 73.897-38.156 93.569.05-1.073.082-2.151.082-3.236 0-37.872-30.811-68.683-68.683-68.683h-17.67c-3.167-4.738-8.561-7.867-14.675-7.867h-38.901c-6.114 0-11.509 3.129-14.675 7.867h-17.67c-37.872 0-68.683 30.811-68.683 68.683 0 1.084.035 2.163.086 3.239-30.811-19.671-46.616-56.919-38.161-93.572l2.733-11.845c.932-4.036-1.585-8.063-5.621-8.995-4.035-.93-8.063 1.585-8.994 5.622l-2.733 11.846c-10.929 47.365 12.741 95.585 56.45 116.048 5.342 15.461 16.12 28.819 30.68 37.207 1.18.68 2.467 1.003 3.737 1.003 2.594 0 5.117-1.348 6.506-3.757 2.067-3.589.834-8.175-2.755-10.243-16.61-9.57-26.929-27.408-26.929-46.553 0-29.601 24.082-53.683 53.683-53.683h14.702v.729c0 20.453 16.64 37.093 37.093 37.093s37.093-16.64 37.093-37.093v-.729h14.702c29.601 0 53.683 24.082 53.683 53.683s-24.082 53.683-53.683 53.683h-9.172c-14.218 0-27.678-6.193-36.927-16.992-1.425-1.664-3.506-2.621-5.696-2.621s-4.271.958-5.696 2.621c-9.249 10.798-22.709 16.992-36.927 16.992h-7.985c-4.143 0-7.5 3.358-7.5 7.5s3.357 7.5 7.5 7.5h7.985c.85 0 1.697-.025 2.542-.059.757 21.46 18.439 38.687 40.081 38.687s39.324-17.227 40.081-38.687c.845.034 1.692.059 2.542.059h9.172c30.053 0 55.641-19.41 64.933-46.346 43.702-20.467 67.365-68.682 56.439-116.043l-13.34-57.822c9.523 4.994 20.025 7.491 30.526 7.491 16.811 0 33.622-6.399 46.42-19.197 12.398-12.399 19.228-28.885 19.228-46.42-.001-17.535-6.83-34.021-19.228-46.42zm-371.4-4.681-20.091 87.083c-19.76 19.573-51.759 19.52-71.447-.169-19.748-19.748-19.748-51.879 0-71.626l88.249-88.25c15.809-15.809 39.681-19.149 58.876-9.295-2.377 1.655-4.704 3.388-6.978 5.196-24.35 19.373-41.614 46.74-48.609 77.061zm156.72 207.799c0 12.182-9.911 22.093-22.093 22.093s-22.093-9.911-22.093-22.093v-5.952c0-1.457 1.186-2.643 2.644-2.643h38.898c1.458 0 2.644 1.186 2.644 2.643zm3.024 120.149c0 13.85-11.268 25.117-25.117 25.117-13.85 0-25.117-11.267-25.117-25.117v-.964c9.286-2.655 17.884-7.401 25.117-13.933 7.233 6.532 15.831 11.279 25.117 13.933z"/></g></svg>