<svg id="Capa_1" enable-background="new 0 0 508.455 508.455" height="512" viewBox="0 0 508.455 508.455" width="512" xmlns="http://www.w3.org/2000/svg"><g><path d="m148.507 79.796c-1.978-10-8.064-18.825-16.711-24.227-8.678-5.42-19.32-7.01-29.208-4.363-9.884 2.648-18.308 9.349-23.112 18.382-4.788 9.002-5.646 19.688-2.358 29.337l43.562 139.031c2.613 8.338 13.229 11.491 19.939 5.851 9.242-7.768 19.509-14.586 30.513-20.267 5.021-2.593 7.663-8.272 6.425-13.812zm-14.624 150.132-42.482-135.582c-.021-.066-.043-.132-.065-.197-2.01-5.841-1.519-12.062 1.383-17.516 2.9-5.454 7.784-9.338 13.752-10.937 1.913-.513 3.847-.766 5.765-.766 4.063 0 8.054 1.138 11.613 3.362 5.239 3.273 8.775 8.415 9.956 14.479.013.068.027.136.042.203l28.651 128.155c-10.196 5.402-19.799 11.711-28.615 18.799z"/><path d="m163.644 332.087v14.582c0 13.059 10.624 23.683 23.683 23.683s23.683-10.624 23.683-23.683v-14.582c0-13.059-10.624-23.683-23.683-23.683s-23.683 10.624-23.683 23.683zm32.365 0v14.582c0 4.788-3.895 8.683-8.683 8.683s-8.683-3.895-8.683-8.683v-14.582c0-4.788 3.895-8.683 8.683-8.683s8.683 3.895 8.683 8.683z"/><path d="m297.446 332.087v14.582c0 13.059 10.624 23.683 23.683 23.683s23.683-10.624 23.683-23.683v-14.582c0-13.059-10.624-23.683-23.683-23.683s-23.683 10.624-23.683 23.683zm15 0c0-4.788 3.895-8.683 8.683-8.683s8.683 3.895 8.683 8.683v14.582c0 4.788-3.895 8.683-8.683 8.683s-8.683-3.895-8.683-8.683z"/><path d="m288.823 231.547h-69.191c-16.326 0-29.608 13.282-29.608 29.608s13.282 29.608 29.608 29.608h69.191c16.326 0 29.608-13.282 29.608-29.608.001-16.326-13.281-29.608-29.608-29.608zm-19.987 29.608c0 8.055-6.554 14.608-14.608 14.608-8.055 0-14.608-6.553-14.608-14.608s6.554-14.608 14.608-14.608 14.608 6.553 14.608 14.608zm-63.812 0c0-8.055 6.554-14.608 14.608-14.608h8.858c-2.458 4.314-3.871 9.298-3.871 14.608s1.412 10.294 3.871 14.608h-8.858c-8.055-.001-14.608-6.554-14.608-14.608zm83.799 14.607h-8.858c2.458-4.314 3.871-9.298 3.871-14.608s-1.412-10.294-3.871-14.608h8.858c8.055 0 14.608 6.553 14.608 14.608.001 8.055-6.553 14.608-14.608 14.608z"/><path d="m241.458 379.152c-7.808 0-14.159 6.352-14.159 14.16v3.908c0 14.849 12.08 26.929 26.929 26.929s26.929-12.08 26.929-26.929v-3.908c0-7.808-6.352-14.16-14.159-14.16zm24.698 18.067c0 6.578-5.352 11.929-11.929 11.929s-11.929-5.352-11.929-11.929v-3.068h23.857v3.068z"/><path d="m428.98 69.589c-4.805-9.034-13.229-15.734-23.112-18.382-9.883-2.647-20.53-1.058-29.208 4.363-8.646 5.401-14.732 14.227-16.711 24.226l-5.435 24.311c-.903 4.042 1.641 8.052 5.683 8.956 4.049.901 8.053-1.641 8.956-5.683l5.456-24.406c.015-.067.029-.135.042-.203 1.181-6.064 4.717-11.206 9.956-14.479s11.412-4.195 17.378-2.596c5.968 1.599 10.852 5.483 13.752 10.937 2.901 5.454 3.393 11.675 1.383 17.516-.023.065-.044.131-.065.197l-42.482 135.582c-8.816-7.088-18.419-13.398-28.615-18.8l16.067-71.87c.903-4.042-1.641-8.052-5.683-8.956-4.048-.902-8.053 1.641-8.956 5.683l-16.486 73.743c-1.238 5.54 1.403 11.219 6.425 13.813 11.004 5.681 21.271 12.499 30.513 20.267 6.707 5.639 17.325 2.491 19.939-5.851l43.562-139.031c3.287-9.649 2.429-20.335-2.359-29.337z"/><path d="m463.723 38.048c-9.31-17.505-25.635-30.487-44.785-35.619-19.152-5.131-39.781-2.05-56.597 8.455s-28.633 27.69-32.421 47.152l-26.618 136.732c-15.901-4.012-32.397-6.044-49.074-6.044s-33.172 2.033-49.074 6.044l-26.619-136.732c-3.788-19.462-15.605-36.648-32.421-47.152-16.814-10.504-37.442-13.586-56.596-8.455-19.15 5.132-35.475 18.114-44.785 35.619-9.311 17.505-10.952 38.298-4.502 57.046l19.154 55.677c1.348 3.916 5.614 6.003 9.531 4.652 3.917-1.347 6-5.615 4.652-9.532l-19.154-55.676c-5.176-15.047-3.911-31.072 3.562-45.122s20.054-24.056 35.425-28.174c15.369-4.12 31.27-1.744 44.767 6.687s22.604 21.677 25.646 37.297l27.126 139.348c.659 3.386 2.713 6.376 5.636 8.203 2.928 1.831 6.522 2.37 9.861 1.478 15.436-4.12 31.515-6.208 47.792-6.208s32.356 2.089 47.791 6.208c3.341.891 6.936.353 9.862-1.478 2.923-1.828 4.977-4.817 5.635-8.202l27.127-139.349c3.041-15.62 12.148-28.866 25.646-37.297 13.497-8.431 29.396-10.805 44.767-6.687 15.371 4.119 27.952 14.125 35.425 28.174 7.473 14.05 8.737 30.075 3.561 45.122l-59.682 173.482c-1.27 3.688-.716 7.832 1.479 11.083 15.02 22.271 22.958 47.794 22.958 73.81 0 29.322-9.907 57.567-28.651 81.682-2.542 3.27-1.951 7.982 1.319 10.524 1.368 1.064 2.988 1.579 4.598 1.579 2.235 0 4.448-.996 5.927-2.898 20.809-26.771 31.808-58.199 31.808-90.887 0-28.622-8.586-56.666-24.849-81.189l59.276-172.307c6.449-18.748 4.807-39.541-4.503-57.046z"/><path d="m368.573 452.756c-30.845 26.245-71.454 40.699-114.346 40.699-90.744 0-164.569-64.987-164.569-144.866 0-26.016 7.939-51.539 22.959-73.81 2.194-3.254 2.747-7.397 1.479-11.081l-29.811-86.654c-1.348-3.917-5.618-5.999-9.531-4.652-3.917 1.348-6 5.615-4.652 9.532l29.405 85.477c-16.261 24.52-24.849 52.565-24.849 81.188 0 88.15 80.555 159.866 179.569 159.866 46.45 0 90.512-15.724 124.066-44.275 3.154-2.684 3.536-7.418.852-10.572-2.682-3.155-7.415-3.536-10.572-.852z"/></g></svg>