<svg id="Capa_1" enable-background="new 0 0 511.955 511.955" height="512" viewBox="0 0 511.955 511.955" width="512" xmlns="http://www.w3.org/2000/svg"><g><path d="m495.122 262.357-7.112-6.38 7.672-6.882c20.13-18.055 21.817-49.121 3.762-69.252-8.746-9.751-20.767-15.513-33.847-16.224-13.08-.706-25.655 3.716-35.405 12.462l-2.005 1.798c-3.084 2.766-3.341 7.507-.575 10.591 2.766 3.083 7.508 3.341 10.591.575l2.005-1.798c6.768-6.071 15.48-9.14 24.576-8.65 9.079.493 17.423 4.492 23.494 11.261 12.533 13.973 11.361 35.537-2.611 48.07l-9.747 8.743c-2.64 2.368-4.153 5.759-4.153 9.304 0 3.546 1.514 6.937 4.153 9.306l9.188 8.241c6.798 6.098 10.882 14.566 11.499 23.846.616 9.274-2.344 18.058-8.336 24.735-6.447 7.183-15.686 11.303-25.347 11.303-8.393 0-16.461-3.09-22.716-8.7l-36.535-32.771c-1.376-1.234-3.159-1.917-5.008-1.917h-72.807c-4.5-12.18-14.065-22.197-26.667-27.003-.92-.351-1.682-1.056-2.143-1.985-7.803-15.716-23.539-25.479-41.07-25.479-17.53 0-33.268 9.763-41.07 25.479-.461.93-1.223 1.635-2.142 1.986-12.602 4.805-22.167 14.823-26.667 27.003h-19.801c-4.143 0-7.5 3.358-7.5 7.5s3.357 7.5 7.5 7.5h16.969c-.012.657-.013 1.316.003 1.978.581 23.736 19.591 43.339 43.279 44.628.842.046 1.683.069 2.522.069 7.543 0 14.956-1.842 21.581-5.379 3.334-1.782 7.317-1.781 10.653.001 7.362 3.93 15.688 5.77 24.102 5.31 4.253-.231 8.444-1.059 12.458-2.46 3.911-1.365 5.975-5.642 4.609-9.553-1.365-3.911-5.645-5.975-9.553-4.609-2.683.936-5.484 1.49-8.329 1.645-5.675.304-11.278-.925-16.222-3.564-7.76-4.144-17.023-4.145-24.785-.001-4.945 2.64-10.559 3.87-16.223 3.564-15.926-.867-28.707-14.053-29.098-30.018-.318-13.056 7.656-24.95 19.846-29.598 4.454-1.699 8.088-5.013 10.232-9.331 5.252-10.578 15.841-17.149 27.635-17.149s22.384 6.571 27.635 17.15c2.145 4.318 5.778 7.632 10.232 9.33 12.19 4.649 20.165 16.544 19.845 29.601-.083 3.42-.737 6.778-1.944 9.978-1.462 3.876.496 8.202 4.371 9.664 3.878 1.462 8.202-.495 9.664-4.372 1.803-4.781 2.78-9.795 2.905-14.904.016-.662.015-1.322.003-1.98h67.104l34.398 30.855c9.011 8.083 20.636 12.534 32.731 12.534 13.914 0 27.221-5.935 36.51-16.284 8.716-9.711 13.026-22.407 12.14-35.749-.878-13.21-6.72-25.29-16.449-34.018z"/><path d="m116.162 305.018h16.998c4.143 0 7.5-3.358 7.5-7.5s-3.357-7.5-7.5-7.5h-19.869c-1.849 0-3.632.683-5.008 1.917l-36.535 32.771c-6.256 5.611-14.323 8.701-22.716 8.701-9.657.001-18.894-4.117-25.341-11.297-5.996-6.677-8.959-15.462-8.343-24.736.615-9.28 4.699-17.749 11.499-23.849l9.189-8.242c2.639-2.368 4.152-5.76 4.152-9.306 0-3.545-1.514-6.937-4.153-9.304l-9.747-8.743c-13.973-12.533-15.144-34.097-2.611-48.07 6.071-6.769 14.415-10.768 23.494-11.261 9.086-.487 17.808 2.579 24.576 8.65l36.535 32.771c1.376 1.234 3.159 1.917 5.008 1.917h40.54c-.052 2.171.199 4.361.776 6.518l4.923 18.373c2.74 10.229 12.025 16.992 22.146 16.992 1.958 0 3.948-.253 5.927-.783h.001c12.208-3.271 19.479-15.865 16.208-28.074l-3.491-13.025h13.968c3.415 2.023 7.395 3.189 11.644 3.189s8.229-1.166 11.644-3.189h36.802c3.415 2.023 7.395 3.189 11.644 3.189s8.229-1.166 11.644-3.189h13.968l-3.491 13.026c-3.272 12.208 4 24.802 16.208 28.073h.001c1.979.53 3.968.783 5.927.783 10.119 0 19.405-6.764 22.145-16.992l4.923-18.372c.578-2.157.829-4.347.776-6.519h40.54c1.849 0 3.632-.683 5.008-1.917l10.162-9.115c3.084-2.766 3.341-7.507.575-10.591-2.767-3.084-7.509-3.342-10.591-.575l-8.025 7.198h-43.796c-2.904-3.14-6.624-5.421-10.857-6.556-8.473-2.271-17.131.541-22.729 6.556h-9.96c.322-1.528.494-3.111.494-4.733v-19.021c0-12.639-10.282-22.921-22.922-22.921s-22.922 10.283-22.922 22.921v19.021c0 1.622.172 3.205.494 4.733h-15.234c.322-1.528.494-3.111.494-4.733v-19.021c0-12.639-10.282-22.921-22.922-22.921s-22.922 10.283-22.922 22.921v19.021c0 1.622.172 3.205.494 4.733h-9.96c-5.597-6.012-14.252-8.822-22.73-6.556-4.232 1.134-7.952 3.416-10.856 6.556h-43.796l-34.398-30.854c-9.751-8.746-22.327-13.169-35.405-12.462-13.08.71-25.101 6.472-33.847 16.224-18.056 20.13-16.368 51.196 3.762 69.252l7.672 6.882-7.113 6.381c-9.733 8.728-15.575 20.81-16.452 34.02-.886 13.344 3.43 26.041 12.15 35.752 9.288 10.344 22.592 16.275 36.501 16.275 12.096 0 23.72-4.451 32.731-12.534zm221.096-90.148c2.044.548 3.752 1.859 4.811 3.691 1.058 1.832 1.339 3.967.791 6.011l-4.923 18.373c-1.131 4.219-5.484 6.731-9.702 5.601-4.22-1.13-6.732-5.483-5.603-9.702l4.924-18.374c1.129-4.218 5.484-6.731 9.702-5.6zm-59.158-31.687c0-4.368 3.554-7.921 7.922-7.921s7.922 3.554 7.922 7.921v19.021c0 4.368-3.554 7.922-7.922 7.922s-7.922-3.554-7.922-7.922zm-60.089 0c0-4.368 3.554-7.921 7.922-7.921s7.922 3.554 7.922 7.921v19.021c0 4.368-3.554 7.922-7.922 7.922s-7.922-3.554-7.922-7.922zm-43.315 31.687c.684-.184 1.372-.271 2.049-.271 3.498 0 6.707 2.337 7.654 5.873l4.924 18.373c1.13 4.219-1.383 8.572-5.602 9.702-4.218 1.134-8.571-1.382-9.702-5.601l-4.923-18.374c-.548-2.043-.267-4.178.791-6.01 1.058-1.833 2.766-3.144 4.809-3.692z"/><path d="m145.696 366.822c-6.782 0-13.158 2.641-17.954 7.437l-1.709 1.71-1.71-1.71c-4.796-4.795-11.172-7.437-17.954-7.437s-13.158 2.641-17.954 7.437h.001c-4.797 4.796-7.438 11.172-7.438 17.955 0 6.782 2.641 13.159 7.437 17.954l28.912 28.912c2.325 2.326 5.417 3.607 8.706 3.607 3.288 0 6.379-1.281 8.705-3.606l28.913-28.913c9.899-9.9 9.899-26.008-.001-35.909-4.796-4.796-11.172-7.437-17.954-7.437zm7.348 32.739-27.011 27.011-27.012-27.012c-1.962-1.962-3.043-4.572-3.043-7.347s1.081-5.385 3.043-7.347h.001c1.962-1.962 4.571-3.044 7.347-3.044 2.775 0 5.386 1.081 7.348 3.044l7.013 7.013c2.93 2.929 7.678 2.929 10.607 0l7.013-7.013c1.962-1.962 4.571-3.044 7.347-3.044 2.775 0 5.386 1.081 7.348 3.044 4.051 4.051 4.051 10.644-.001 14.695z"/><path d="m377.218 141.528c2.325 2.324 5.417 3.604 8.704 3.604 3.289 0 6.381-1.281 8.705-3.605l28.912-28.913c4.797-4.796 7.438-11.172 7.438-17.955 0-6.782-2.641-13.158-7.436-17.954s-11.172-7.437-17.954-7.437-13.158 2.641-17.955 7.437l-1.709 1.71-1.709-1.71c-4.796-4.796-11.172-7.437-17.954-7.437s-13.158 2.641-17.954 7.437c-.001 0-.001 0-.001 0-9.899 9.9-9.899 26.008 0 35.908zm-18.307-54.216c1.962-1.962 4.572-3.043 7.348-3.043 2.775 0 5.385 1.081 7.347 3.043l7.013 7.013c2.93 2.929 7.678 2.929 10.607 0l7.012-7.012c1.963-1.963 4.573-3.044 7.349-3.044 2.775 0 5.385 1.081 7.347 3.043 1.963 1.963 3.044 4.572 3.044 7.348s-1.081 5.385-3.044 7.348l-27.011 27.012-27.011-27.012c-4.053-4.052-4.053-10.645-.001-14.696z"/></g></svg>