<svg id="Capa_1" enable-background="new 0 0 512 512" height="512" viewBox="0 0 512 512" width="512" xmlns="http://www.w3.org/2000/svg"><g><path d="m199.832 172.326c6.572-1.761 10.472-8.515 8.711-15.087l-3.932-14.676c-1.761-6.572-8.516-10.472-15.087-8.711s-10.472 8.516-8.711 15.087l3.932 14.676c1.761 6.573 8.516 10.472 15.087 8.711z"/><path d="m312.168 172.326c6.572 1.761 13.327-2.139 15.087-8.711l3.932-14.676c1.761-6.572-2.139-13.327-8.711-15.087-6.572-1.761-13.327 2.139-15.087 8.711l-3.932 14.676c-1.761 6.572 2.139 13.327 8.711 15.087z"/><path d="m232 141.84c6.804 0 12.319-5.515 12.319-12.319v-15.194c0-6.804-5.515-12.319-12.319-12.319s-12.319 5.515-12.319 12.319v15.194c0 6.804 5.515 12.319 12.319 12.319z"/><path d="m267.681 114.328v15.194c0 6.804 5.515 12.319 12.319 12.319s12.319-5.515 12.319-12.319v-15.194c0-6.804-5.515-12.319-12.319-12.319s-12.319 5.515-12.319 12.319z"/><path d="m232.409 250.384c.7.038 1.399.057 2.098.057 6.273 0 12.438-1.532 17.949-4.475 2.188-1.167 4.903-1.166 7.088 0 6.124 3.27 13.059 4.801 20.044 4.417 19.703-1.071 35.515-17.376 35.999-37.117.395-16.133-9.463-30.834-24.532-36.58-.379-.145-.697-.445-.897-.847-6.489-13.071-19.578-21.191-34.159-21.191s-27.669 8.12-34.159 21.191c-.199.401-.518.702-.896.846-15.067 5.746-24.926 20.446-24.532 36.578.483 19.744 16.294 36.049 35.997 37.121zm-6.119-59.682c3.914-1.493 7.106-4.402 8.987-8.192 3.938-7.933 11.879-12.861 20.723-12.861s16.785 4.928 20.724 12.862c1.882 3.79 5.074 6.699 8.987 8.191 9.141 3.486 15.122 12.406 14.882 22.197-.293 11.971-9.877 21.857-21.817 22.507-4.26.229-8.46-.693-12.165-2.671-6.644-3.548-14.576-3.548-21.219 0-3.706 1.979-7.913 2.897-12.166 2.671-11.941-.65-21.524-10.537-21.817-22.508-.24-9.79 5.74-18.71 14.881-22.196z"/><path d="m176.82 268.763h-9.41v-9.41c0-4.142-3.358-7.5-7.5-7.5s-7.5 3.358-7.5 7.5v9.41h-9.41c-4.142 0-7.5 3.358-7.5 7.5s3.358 7.5 7.5 7.5h9.41v9.41c0 4.142 3.358 7.5 7.5 7.5s7.5-3.358 7.5-7.5v-9.41h9.41c4.142 0 7.5-3.358 7.5-7.5s-3.358-7.5-7.5-7.5z"/><path d="m369 268.763h-159.07c-4.142 0-7.5 3.358-7.5 7.5s3.358 7.5 7.5 7.5h159.07c4.142 0 7.5-3.358 7.5-7.5s-3.358-7.5-7.5-7.5z"/><path d="m176.82 331.419h-9.41v-9.41c0-4.142-3.358-7.5-7.5-7.5s-7.5 3.358-7.5 7.5v9.41h-9.41c-4.142 0-7.5 3.358-7.5 7.5s3.358 7.5 7.5 7.5h9.41v9.41c0 4.142 3.358 7.5 7.5 7.5s7.5-3.358 7.5-7.5v-9.41h9.41c4.142 0 7.5-3.358 7.5-7.5s-3.358-7.5-7.5-7.5z"/><path d="m369 331.419h-159.07c-4.142 0-7.5 3.358-7.5 7.5s3.358 7.5 7.5 7.5h159.07c4.142 0 7.5-3.358 7.5-7.5s-3.358-7.5-7.5-7.5z"/><path d="m159.911 425.986c4.142 0 7.5-3.358 7.5-7.5v-9.41h9.41c4.142 0 7.5-3.358 7.5-7.5s-3.358-7.5-7.5-7.5h-9.41v-9.41c0-4.142-3.358-7.5-7.5-7.5s-7.5 3.358-7.5 7.5v9.41h-9.41c-4.142 0-7.5 3.358-7.5 7.5s3.358 7.5 7.5 7.5h9.41v9.41c0 4.142 3.358 7.5 7.5 7.5z"/><path d="m369 394.076h-159.07c-4.142 0-7.5 3.358-7.5 7.5s3.358 7.5 7.5 7.5h159.07c4.142 0 7.5-3.358 7.5-7.5s-3.358-7.5-7.5-7.5z"/><path d="m174.709 47.484c0 4.142 3.358 7.5 7.5 7.5s7.5-3.358 7.5-7.5c0-4.142-3.358-7.5-7.5-7.5s-7.5 3.358-7.5 7.5z"/><path d="m337.291 47.484c0-4.142-3.358-7.5-7.5-7.5s-7.5 3.358-7.5 7.5c0 4.142 3.358 7.5 7.5 7.5s7.5-3.358 7.5-7.5z"/><path d="m303.754 39.984c0-4.142-3.358-7.5-7.5-7.5h-80.508c-4.142 0-7.5 3.358-7.5 7.5s3.358 7.5 7.5 7.5h80.508c4.142 0 7.5-3.358 7.5-7.5z"/><path d="m436.656 32.484h-69.546v-14.984c0-9.649-7.851-17.5-17.5-17.5h-187.22c-9.649 0-17.5 7.851-17.5 17.5v14.984h-69.546c-9.649 0-17.5 7.851-17.5 17.5v60.76c0 4.142 3.358 7.5 7.5 7.5s7.5-3.358 7.5-7.5v-60.76c0-1.378 1.122-2.5 2.5-2.5h24.9c-.118.819-.2 1.649-.2 2.5v392.503c0 9.649 7.85 17.5 17.5 17.5h276.913c9.649 0 17.5-7.851 17.5-17.5v-48.411c0-4.142-3.358-7.5-7.5-7.5s-7.5 3.358-7.5 7.5v48.411c0 1.378-1.122 2.5-2.5 2.5h-276.913c-1.379 0-2.5-1.122-2.5-2.5v-392.503c0-1.378 1.121-2.5 2.5-2.5h27.347v14.984c0 9.649 7.851 17.5 17.5 17.5h105.922c4.142 0 7.5-3.358 7.5-7.5s-3.358-7.5-7.5-7.5h-105.923c-1.378 0-2.5-1.122-2.5-2.5v-44.968c0-1.378 1.122-2.5 2.5-2.5h187.22c1.378 0 2.5 1.122 2.5 2.5v44.968c0 1.378-1.122 2.5-2.5 2.5h-48.611c-4.142 0-7.5 3.358-7.5 7.5s3.358 7.5 7.5 7.5h48.611c9.649 0 17.5-7.851 17.5-17.5v-14.984h27.347c1.378 0 2.5 1.122 2.5 2.5v310.839c0 4.142 3.358 7.5 7.5 7.5s7.5-3.358 7.5-7.5v-310.839c0-.851-.082-1.681-.2-2.5h24.9c1.378 0 2.5 1.122 2.5 2.5v444.516c0 1.378-1.122 2.5-2.5 2.5h-361.313c-1.378 0-2.5-1.122-2.5-2.5v-351.07c0-4.142-3.358-7.5-7.5-7.5s-7.5 3.358-7.5 7.5v351.07c0 9.649 7.851 17.5 17.5 17.5h361.313c9.649 0 17.5-7.851 17.5-17.5v-444.516c-.001-9.65-7.851-17.5-17.501-17.5z"/></g></svg>