<svg id="Capa_1" enable-background="new 0 0 512 512" height="512" viewBox="0 0 512 512" width="512" xmlns="http://www.w3.org/2000/svg"><g><g><path d="m232.812 279.092c-1.983 3.435-6.375 4.612-9.81 2.629l-7.671-4.429c-3.435-1.983-4.612-6.375-2.629-9.81s6.375-4.612 9.81-2.629l7.671 4.429c3.436 1.983 4.613 6.375 2.629 9.81z"/></g><g><path d="m279.12 232.785c3.435-1.983 4.612-6.375 2.629-9.81l-4.429-7.671c-1.983-3.435-6.375-4.612-9.81-2.629s-4.612 6.375-2.629 9.81l4.429 7.671c1.983 3.435 6.375 4.612 9.81 2.629z"/></g><g><g><path d="m233.506 253.265c-2.805 2.805-7.352 2.805-10.156 0l-6.263-6.263c-2.805-2.805-2.805-7.352 0-10.156 2.805-2.805 7.352-2.805 10.156 0l6.263 6.263c2.804 2.804 2.804 7.351 0 10.156z"/></g></g><g><g><path d="m253.292 233.478c-2.804 2.804-7.352 2.805-10.156 0l-6.263-6.263c-2.805-2.805-2.805-7.352 0-10.156 2.805-2.805 7.352-2.805 10.156 0l6.263 6.263c2.805 2.805 2.805 7.352 0 10.156z"/></g></g><g><path d="m263.611 306.591c-6.319.001-12.633-2.323-17.49-6.949-7.564-7.203-9.921-18.335-5.999-27.949-2.714-8.981-.319-18.589 6.345-25.253 6.665-6.663 16.274-9.059 25.253-6.345 9.611-3.921 20.747-1.564 27.95 6 9.057 9.51 9.287 24.614.525 34.385-3.105 3.463-7.083 6.003-11.503 7.346-.392.119-.721.448-.839.838-1.344 4.42-3.884 8.398-7.349 11.505-4.778 4.288-10.838 6.422-16.893 6.422zm.76-52.582c-2.695 0-5.315 1.057-7.297 3.038-2.8 2.8-3.754 6.875-2.489 10.635 1.039 3.083.883 6.407-.437 9.357-1.79 3.997-.859 8.716 2.317 11.741 3.882 3.697 10.044 3.793 14.025.222 1.424-1.276 2.465-2.901 3.011-4.697 1.579-5.201 5.628-9.25 10.83-10.831 1.797-.546 3.421-1.586 4.696-3.008 3.573-3.984 3.476-10.145-.221-14.027-3.024-3.176-7.741-4.109-11.74-2.318-2.949 1.32-6.271 1.476-9.358.438-1.098-.37-2.224-.55-3.337-.55z"/></g><g><path d="m140.767 419.806h-40.89c-14 0-25.391-11.391-25.391-25.392 0-14 11.391-25.391 25.391-25.391h2.418v-2.417c0-14 11.391-25.391 25.391-25.391s25.391 11.391 25.391 25.391v40.889c0 6.789-5.523 12.311-12.31 12.311zm-40.89-35.783c-5.729 0-10.391 4.662-10.391 10.391 0 5.73 4.662 10.392 10.391 10.392h38.2v-38.2c0-5.729-4.662-10.391-10.391-10.391s-10.391 4.662-10.391 10.391v9.917c0 4.142-3.358 7.5-7.5 7.5z"/></g><g><path d="m407.524 153.049h-40.89c-14.001 0-25.392-11.391-25.392-25.391s11.391-25.391 25.392-25.391h2.417v-2.417c0-14.001 11.391-25.391 25.392-25.391 14 0 25.391 11.391 25.391 25.391v40.89c-.001 6.787-5.523 12.309-12.31 12.309zm-40.89-35.782c-5.729 0-10.392 4.662-10.392 10.391s4.662 10.391 10.392 10.391h38.199v-38.2c0-5.729-4.661-10.391-10.391-10.391s-10.392 4.662-10.392 10.391v9.917c0 4.142-3.357 7.5-7.5 7.5h-9.916z"/></g><g><path d="m232.575 362.718c-21.336.002-42.663-8.118-58.905-24.36-32.48-32.48-32.48-85.33 0-117.81l20.126-20.126c2.929-2.929 7.678-2.929 10.606 0 2.929 2.929 2.929 7.678 0 10.606l-20.126 20.126c-26.632 26.632-26.632 69.965 0 96.597 26.631 26.631 69.966 26.632 96.597 0l46.905-46.905c12.901-12.901 20.006-30.054 20.006-48.299s-7.104-35.398-20.006-48.298c-12.9-12.901-30.054-20.006-48.299-20.006-18.244 0-35.397 7.105-48.298 20.006l-4.064 4.064c-2.929 2.929-7.678 2.929-10.606 0-2.929-2.929-2.929-7.678 0-10.606l4.064-4.064c32.481-32.482 85.332-32.48 117.811 0s32.479 85.33 0 117.81l-46.905 46.905c-16.239 16.238-37.576 24.358-58.906 24.36z"/></g><g><path d="m93.867 271.552c-1.92 0-3.839-.732-5.303-2.197-2.929-2.929-2.929-7.678 0-10.607l224.634-224.634c21.999-21.999 51.247-34.114 82.359-34.114 31.11 0 60.358 12.115 82.357 34.114 45.411 45.412 45.411 119.303 0 164.715l-21.479 21.48c-2.931 2.929-7.679 2.928-10.607 0-2.929-2.929-2.929-7.677 0-10.607l21.48-21.48c39.563-39.564 39.563-103.938 0-143.502-19.166-19.165-44.648-29.72-71.751-29.72-27.105 0-52.586 10.555-71.751 29.72l-224.636 224.636c-1.464 1.464-3.384 2.196-5.303 2.196z"/></g><g><path d="m116.499 512c-31.111 0-60.359-12.115-82.357-34.114-21.999-21.998-34.115-51.246-34.115-82.357s12.115-60.359 34.114-82.357l31.309-31.31c2.929-2.929 7.678-2.929 10.606 0 2.929 2.929 2.929 7.678 0 10.606l-31.31 31.31c-19.165 19.166-29.72 44.647-29.72 71.751s10.555 52.586 29.72 71.751 44.649 29.72 71.753 29.72 52.585-10.555 71.751-29.72l234.464-234.465c2.931-2.929 7.679-2.928 10.607 0 2.929 2.929 2.929 7.678 0 10.606l-234.465 234.465c-21.998 21.999-51.247 34.114-82.357 34.114z"/></g></g></svg>