<svg id="Capa_1" enable-background="new 0 0 512 512" height="512" viewBox="0 0 512 512" width="512" xmlns="http://www.w3.org/2000/svg"><g><g><path d="m336.248 392.037c-5.865 1.572-11.894-1.909-13.466-7.774l-3.51-13.099c-1.572-5.865 1.909-11.894 7.774-13.466s11.894 1.909 13.466 7.774l3.51 13.099c1.572 5.866-1.909 11.895-7.774 13.466z"/></g><g><path d="m436.509 392.037c5.865 1.572 11.894-1.909 13.466-7.774l3.51-13.099c1.572-5.865-1.909-11.894-7.774-13.466-5.866-1.572-11.894 1.909-13.466 7.774l-3.51 13.099c-1.572 5.866 1.908 11.895 7.774 13.466z"/></g><g><g><path d="m364.958 364.828c-6.072 0-10.995-4.922-10.995-10.995v-13.561c0-6.072 4.923-10.995 10.995-10.995s10.995 4.922 10.995 10.995v13.561c0 6.072-4.923 10.995-10.995 10.995z"/></g></g><g><g><path d="m407.799 364.828c-6.072 0-10.995-4.922-10.995-10.995v-13.561c0-6.072 4.922-10.995 10.995-10.995 6.072 0 10.995 4.922 10.995 10.995v13.561c-.001 6.072-4.923 10.995-10.995 10.995z"/></g></g><g><path d="m367.194 462.562c-.638 0-1.276-.017-1.915-.052-18.002-.98-32.448-15.877-32.89-33.915-.36-14.739 8.646-28.17 22.415-33.419.144-.055.277-.186.363-.359 5.93-11.944 17.889-19.362 31.21-19.362 13.322 0 25.281 7.419 31.209 19.361.086.172.22.304.365.36 13.769 5.25 22.775 18.681 22.415 33.421-.442 18.038-14.89 32.934-32.892 33.913-6.378.347-12.718-1.049-18.314-4.036-1.718-.917-3.849-.917-5.566-.001-5.034 2.689-10.667 4.089-16.4 4.089zm19.184-72.108c-7.585 0-14.396 4.227-17.773 11.031-1.769 3.563-4.771 6.301-8.455 7.706-7.841 2.99-12.97 10.64-12.764 19.038.251 10.267 8.469 18.746 18.709 19.304 3.644.198 7.257-.594 10.435-2.291 6.166-3.294 13.53-3.294 19.698 0 3.178 1.697 6.798 2.486 10.434 2.291 10.24-.557 18.459-9.036 18.71-19.302.206-8.398-4.923-16.049-12.763-19.039-.001 0-.001 0-.001 0-3.683-1.404-6.685-4.141-8.455-7.705-3.378-6.807-10.189-11.033-17.775-11.033z"/></g><g><path d="m135.875 190.222h-29.688c-6.893 0-12.5-5.607-12.5-12.5v-30.548h-30.548c-6.893 0-12.5-5.607-12.5-12.5v-29.688c0-6.893 5.607-12.5 12.5-12.5h30.548v-30.548c0-6.893 5.607-12.5 12.5-12.5h29.688c6.893 0 12.5 5.607 12.5 12.5v30.548h30.548c6.893 0 12.5 5.607 12.5 12.5v29.688c0 6.893-5.607 12.5-12.5 12.5h-30.548v30.548c0 6.893-5.607 12.5-12.5 12.5zm-27.188-15h24.688v-35.548c0-4.142 3.357-7.5 7.5-7.5h35.548v-24.688h-35.548c-4.143 0-7.5-3.358-7.5-7.5v-35.548h-24.688v35.548c0 4.142-3.357 7.5-7.5 7.5h-35.548v24.688h35.548c4.143 0 7.5 3.358 7.5 7.5zm70.236-67.736h.01z"/></g><path d="m267.96 203.618c-2.93-2.929-7.678-2.929-10.607 0s-2.929 7.678.001 10.607l16.643 16.643c1.465 1.465 3.385 2.197 5.304 2.197s3.839-.732 5.304-2.197c2.929-2.929 2.929-7.678 0-10.607z"/><path d="m301.158 170.42c-2.93-2.929-7.678-2.929-10.607 0s-2.929 7.678 0 10.606l16.644 16.643c1.465 1.465 3.385 2.197 5.304 2.197s3.839-.732 5.304-2.197c2.929-2.929 2.929-7.678-.001-10.606z"/><path d="m380.445 219.2 13.796 13.796c2.427 2.426 5.613 3.639 8.801 3.639s6.375-1.213 8.803-3.639l23.037-23.038c4.852-4.852 4.852-12.748 0-17.602l-38.998-38.997 55.576-55.575 21.152 21.152c2.35 2.352 5.477 3.646 8.802 3.646 3.324 0 6.45-1.295 8.801-3.646l18.139-18.139c2.353-2.351 3.647-5.477 3.647-8.802s-1.295-6.451-3.646-8.801l-43.038-43.039c-2.929-2.929-7.677-2.929-10.607 0-2.929 2.929-2.929 7.678 0 10.606l41.232 41.233-14.528 14.529-75.94-75.939 14.53-14.53 11.594 11.595c2.93 2.929 7.678 2.929 10.607 0s2.929-7.678 0-10.607l-13.4-13.4c-4.853-4.852-12.749-4.853-17.603 0l-18.141 18.141c-4.853 4.853-4.853 12.749 0 17.602l21.153 21.153-16.785 16.785c-2.929 2.929-2.929 7.678 0 10.606 1.465 1.465 3.384 2.197 5.304 2.197 1.919 0 3.839-.732 5.304-2.197l16.784-16.784 16.032 16.032-55.576 55.575-16.031-16.031 15.926-15.926c2.929-2.929 2.929-7.678-.001-10.606-2.928-2.93-7.677-2.929-10.606 0l-15.925 15.926-38.998-38.997c-4.854-4.853-12.749-4.852-17.603 0l-23.035 23.036c-2.353 2.351-3.648 5.477-3.648 8.802s1.295 6.451 3.646 8.801l13.796 13.796-149.17 149.17c-2.929 2.929-2.929 7.678 0 10.607 1.465 1.465 3.384 2.197 5.304 2.197 1.919 0 3.839-.733 5.304-2.197l64.674-64.674c1.358 2.398 2.025 4.654 2.78 7.216 1.542 5.235 3.462 11.751 11.232 19.521 7.771 7.772 14.287 9.691 19.522 11.234 4.517 1.331 8.085 2.383 13.154 7.452 5.07 5.069 6.121 8.638 7.452 13.155 1.149 3.898 2.51 8.506 6.336 13.813l-108.717 108.716c-2.863 2.861-7.52 2.862-10.381 0l-56.055-56.055c-1.386-1.386-2.149-3.229-2.149-5.19 0-1.96.764-3.803 2.15-5.19l26.887-26.888c2.929-2.929 2.929-7.678-.001-10.606-2.928-2.93-7.677-2.929-10.606 0l-26.886 26.887c-4.22 4.22-6.544 9.83-6.544 15.797s2.324 11.577 6.543 15.796l2.807 2.807-7.323 7.322c-6.736 6.736-10.446 15.693-10.446 25.221 0 6.975 1.996 13.64 5.705 19.356l-82.173 82.174c-2.929 2.929-2.929 7.678 0 10.607 1.465 1.465 3.384 2.197 5.304 2.197 1.919 0 3.839-.732 5.304-2.197l82.173-82.173c5.716 3.709 12.381 5.705 19.355 5.705 9.527 0 18.484-3.71 25.222-10.447l7.321-7.321 2.807 2.807c4.354 4.354 10.075 6.532 15.796 6.532 5.722 0 11.442-2.178 15.798-6.533zm-251.498 193.079c-8.056 8.058-21.17 8.06-29.227 0-8.059-8.059-8.059-21.17-.001-29.228l7.322-7.322 29.228 29.228zm161.273-124.067c-1.359-2.399-2.026-4.656-2.781-7.219-1.543-5.235-3.463-11.75-11.233-19.522-7.771-7.772-14.287-9.691-19.522-11.234-4.517-1.331-8.085-2.383-13.155-7.453-5.068-5.068-6.119-8.636-7.45-13.153-1.148-3.897-2.51-8.505-6.334-13.811l73.661-73.661 66.433 66.434zm112.822-67.627-17.29-17.29c-.001-.001-.003-.003-.004-.004s-.003-.002-.004-.004l-94.331-94.331 19.427-19.426 111.629 111.629z"/></g></svg>