<svg id="Capa_1" enable-background="new 0 0 512 512" height="512" viewBox="0 0 512 512" width="512" xmlns="http://www.w3.org/2000/svg"><g><path d="m454.625 256c0-21.107-17.172-38.28-38.279-38.28s-38.28 17.172-38.28 38.28c0 21.107 17.173 38.28 38.28 38.28s38.279-17.173 38.279-38.28zm-61.56 0c0-12.836 10.443-23.28 23.28-23.28 12.836 0 23.279 10.443 23.279 23.28 0 12.836-10.443 23.28-23.279 23.28s-23.28-10.444-23.28-23.28z"/><path d="m135.626 284.472-2.292-8.556c-1.027-3.831-4.965-6.105-8.796-5.078s-6.105 4.964-5.078 8.796l2.292 8.556c1.027 3.831 4.964 6.105 8.795 5.078 3.832-1.027 6.106-4.965 5.079-8.796z"/><path d="m204.832 288.189 2.292-8.556c1.027-3.831-1.247-7.769-5.078-8.796s-7.769 1.247-8.796 5.078l-2.292 8.556c-1.027 3.831 1.247 7.769 5.078 8.796s7.769-1.246 8.796-5.078z"/><path d="m149.301 252.274c-3.966 0-7.182 3.215-7.182 7.182v8.858c0 3.966 3.215 7.181 7.182 7.181 3.966 0 7.182-3.215 7.182-7.181v-8.858c-.001-3.967-3.216-7.182-7.182-7.182z"/><path d="m184.465 268.313v-8.858c0-3.966-3.215-7.182-7.182-7.182-3.966 0-7.182 3.215-7.182 7.182v8.858c0 3.966 3.215 7.181 7.182 7.181 3.967.001 7.182-3.214 7.182-7.181z"/><path d="m140.948 293.205c-9.57 4.025-15.775 13.564-15.521 24.006.322 13.129 10.839 23.972 23.943 24.685.465.025.928.038 1.392.038 4.17 0 8.27-1.02 11.936-2.977.362-.193.828-.192 1.187 0 4.075 2.176 8.684 3.193 13.329 2.939 13.105-.713 23.621-11.556 23.943-24.685.256-10.442-5.949-19.982-15.522-24.007-4.43-8.269-12.917-13.37-22.343-13.37-9.426.001-17.914 5.103-22.344 13.371zm31.623 7.39c1.448 2.917 3.908 5.156 6.927 6.307 4.093 1.561 6.771 5.556 6.663 9.941-.131 5.359-4.419 9.784-9.762 10.075-1.913.103-3.794-.31-5.448-1.193-4.797-2.561-10.521-2.561-15.318 0-1.656.885-3.546 1.298-5.447 1.193-5.344-.291-9.632-4.717-9.763-10.074-.107-4.386 2.571-8.381 6.663-9.942 3.019-1.151 5.479-3.391 6.927-6.308 1.764-3.553 5.319-5.76 9.279-5.76 3.96.001 7.516 2.208 9.279 5.761z"/><path d="m32.502 106.537c4.143 0 7.5-3.358 7.5-7.5v-41.26c0-9.15 5.804-16.95 13.915-19.97v6.833c0 7.315 5.95 13.265 13.265 13.265h15.688c15.964 0 28.952-12.988 28.952-28.953 0-15.964-12.988-28.952-28.952-28.952h-15.688c-7.314 0-13.265 5.951-13.265 13.265v8.95c-16.488 3.431-28.915 18.071-28.915 35.562v41.26c0 4.142 3.357 7.5 7.5 7.5zm36.415-91.537h13.953c7.693 0 13.952 6.259 13.952 13.953 0 7.693-6.259 13.953-13.952 13.953h-13.953z"/><path d="m486.998 256c0-38.958-31.694-70.652-70.652-70.652-31.953 0-60.023 21.536-68.263 52.372-1.069 4.002 1.309 8.113 5.311 9.182 3.998 1.07 8.111-1.308 9.182-5.31 6.488-24.284 28.6-41.244 53.771-41.244 30.686 0 55.652 24.965 55.652 55.652s-24.966 55.652-55.652 55.652c-25.172 0-47.283-16.96-53.771-41.244-1.07-4.003-5.18-6.378-9.182-5.311-4.002 1.069-6.38 5.18-5.311 9.182 7.662 28.68 32.482 49.304 61.624 52.05v51.213c0 65.869-53.589 119.457-119.458 119.457s-119.457-53.588-119.457-119.457v-6.997c39.26-3.786 70.06-36.955 70.06-77.191 0-5.205-.542-10.309-1.544-15.267 17.946-11.836 33.016-27.774 43.787-46.405 12.094-20.92 18.486-44.82 18.486-69.118v-104.787c0-17.491-12.427-32.132-28.915-35.562v-8.95c0-7.314-5.95-13.265-13.265-13.265h-15.688c-15.965 0-28.953 12.988-28.953 28.953 0 15.964 12.988 28.953 28.953 28.953h15.688c7.314 0 13.265-5.951 13.265-13.265v-6.833c8.111 3.02 13.915 10.819 13.915 19.97v104.788c0 21.665-5.696 42.969-16.473 61.61-8.877 15.356-21.033 28.658-35.458 38.922-9.764-22.899-30.266-40.515-55.737-45.727-4.061-.832-8.02 1.787-8.851 5.844-.83 4.058 1.786 8.021 5.844 8.851 22.764 4.658 40.611 21.603 47.195 43.023.05 1.073.34 2.147.873 3.151 1.22 4.865 1.878 9.929 1.878 15.115 0 34.496-28.064 62.561-62.56 62.561s-62.561-28.064-62.561-62.561c0-29.069 19.714-54.089 47.941-60.844 4.028-.964 6.513-5.011 5.549-9.04-.964-4.027-5.013-6.515-9.039-5.548-24.615 5.89-43.994 22.984-53.338 45.139-32.609-23.145-51.842-60.141-51.842-100.497v-30.842c0-4.142-3.357-7.5-7.5-7.5s-7.5 3.358-7.5 7.5v30.842c0 46.93 23.189 89.803 62.24 115.513-.982 4.953-1.51 10.06-1.51 15.276 0 40.237 30.801 73.406 70.061 77.191v6.997c0 74.14 60.317 134.457 134.458 134.457 74.14 0 134.457-60.317 134.457-134.457v-51.402c35.028-4.151 62.29-34.012 62.29-70.14zm-229.331-213.095h-13.952c-7.693 0-13.953-6.259-13.953-13.953 0-7.693 6.26-13.953 13.953-13.953h13.952z"/></g></svg>