<svg id="Capa_1" enable-background="new 0 0 512.001 512.001" height="512" viewBox="0 0 512.001 512.001" width="512" xmlns="http://www.w3.org/2000/svg"><g><path d="m414.911 325.545c-3.163-5.479-8.828-8.75-15.155-8.75-6.326 0-11.992 3.271-15.155 8.75l-30.538 52.892c-9.537 16.519-9.537 36.243 0 52.762s26.619 26.38 45.693 26.38 36.156-9.862 45.693-26.38c9.537-16.519 9.537-36.243 0-52.762zm17.547 98.153c-6.826 11.823-19.051 18.881-32.702 18.881s-25.876-7.058-32.702-18.881c-6.826-11.822-6.826-25.939 0-37.761l30.538-52.892c.628-1.087 1.626-1.25 2.166-1.25.539 0 1.537.163 2.165 1.25l30.538 52.892c6.823 11.822 6.823 25.939-.003 37.761z"/><path d="m71.916 152.159h30.548v30.548c0 6.893 5.607 12.5 12.5 12.5h29.688c6.893 0 12.5-5.607 12.5-12.5v-30.548h30.548c6.893 0 12.5-5.607 12.5-12.5v-29.688c0-6.893-5.607-12.5-12.5-12.5h-30.548v-30.547c0-6.893-5.607-12.5-12.5-12.5h-29.688c-6.893 0-12.5 5.607-12.5 12.5v30.548h-30.548c-6.893 0-12.5 5.607-12.5 12.5v29.688c0 6.892 5.607 12.499 12.5 12.499zm2.5-39.688h35.548c4.142 0 7.5-3.358 7.5-7.5v-35.547h24.688v35.548c0 4.142 3.358 7.5 7.5 7.5h35.548v24.688h-35.548c-4.142 0-7.5 3.358-7.5 7.5v35.548h-24.688v-35.548c0-4.142-3.358-7.5-7.5-7.5h-35.548z"/><path d="m305.237 232.487c1.919 0 3.839-.732 5.303-2.197 2.929-2.929 2.929-7.678 0-10.607l-18.223-18.223c-2.929-2.929-7.678-2.929-10.607 0s-2.929 7.678 0 10.606l18.223 18.223c1.465 1.466 3.385 2.198 5.304 2.198z"/><path d="m228.241 265.537 18.223 18.223c1.464 1.464 3.384 2.197 5.303 2.197s3.839-.733 5.303-2.197c2.929-2.929 2.929-7.678 0-10.607l-18.223-18.223c-2.929-2.929-7.678-2.929-10.607 0-2.928 2.93-2.928 7.679.001 10.607z"/><path d="m198.297 339.426c1.919 0 3.839-.732 5.303-2.197 2.929-2.929 2.929-7.678 0-10.606l-18.222-18.222c-2.929-2.929-7.678-2.929-10.606 0-2.929 2.929-2.929 7.678 0 10.606l18.222 18.222c1.464 1.465 3.384 2.197 5.303 2.197z"/><path d="m121.302 361.871c-2.929 2.929-2.929 7.678 0 10.606l18.223 18.223c1.464 1.464 3.384 2.197 5.303 2.197s3.839-.732 5.303-2.197c2.929-2.929 2.929-7.678 0-10.606l-18.223-18.223c-2.929-2.929-7.678-2.929-10.606 0z"/><path d="m496.316 15.685c-10.529-10.529-24.525-16.096-39.411-15.661-14.885.43-28.536 6.791-38.44 17.911-.043.049-.086.098-.128.147l-69.567 82.33-23.474-23.475c-15.169-15.169-39.851-15.168-55.02 0-15.169 15.169-15.169 39.851 0 55.02l15.081 15.082-42.342 42.342c-2.929 2.929-2.929 7.678 0 10.606 1.464 1.464 3.384 2.197 5.303 2.197s3.839-.732 5.303-2.197l42.342-42.342 58.391 58.391-106.454 106.457c-.709-1.664-1.113-3.342-1.572-5.266-1.206-5.056-2.706-11.349-9.957-18.599-7.25-7.25-13.542-8.751-18.599-9.957-4.193-1-7.222-1.722-11.472-5.972-4.249-4.249-4.971-7.278-5.971-11.47-.871-3.655-1.909-7.958-5.148-12.799l35.329-35.329c2.929-2.929 2.929-7.678 0-10.606-2.929-2.929-7.678-2.929-10.607 0l-171.322 171.321c-14.182 14.182-19.667 35.011-14.608 54.218l-25.69 25.691c-5.341 5.341-8.283 12.443-8.283 19.996 0 7.554 2.942 14.656 8.283 19.997s12.442 8.283 19.997 8.283c7.554 0 14.655-2.942 19.997-8.283l25.691-25.69c19.207 5.06 40.036-.426 54.218-14.607l52.056-52.056c2.929-2.929 2.929-7.678 0-10.607s-7.678-2.929-10.606 0l-52.056 52.056c-11.247 11.247-28.198 15.035-43.183 9.655-2.732-.982-5.786-.297-7.838 1.755l-28.889 28.888c-2.508 2.508-5.843 3.89-9.39 3.89s-6.882-1.381-9.39-3.89c-2.508-2.508-3.89-5.842-3.89-9.39 0-3.547 1.381-6.882 3.89-9.39l28.888-28.888c2.053-2.053 2.737-5.106 1.755-7.838-5.382-14.985-1.592-31.935 9.655-43.183l124.979-124.979c.709 1.663 1.113 3.341 1.571 5.263 1.206 5.056 2.706 11.349 9.956 18.598 7.25 7.25 13.542 8.751 18.599 9.956 4.193 1 7.222 1.722 11.472 5.972 4.251 4.251 4.973 7.28 5.973 11.473.872 3.655 1.91 7.958 5.149 12.8l-44.138 44.138c-2.929 2.929-2.929 7.678 0 10.606 1.464 1.465 3.384 2.197 5.303 2.197s3.839-.732 5.303-2.197l161.608-161.607 15.082 15.081c7.584 7.585 17.547 11.376 27.51 11.376s19.926-3.792 27.51-11.376c15.168-15.169 15.168-39.851 0-55.02l-23.475-23.474 26.295-22.218c3.164-2.673 3.561-7.405.888-10.569-2.674-3.163-7.405-3.561-10.57-.888l-32.524 27.482c-1.603 1.354-2.565 3.318-2.653 5.415s.707 4.134 2.191 5.618l29.242 29.242c9.32 9.321 9.32 24.486 0 33.807-9.32 9.32-24.486 9.321-33.807 0l-109.769-109.767c-9.32-9.321-9.32-24.486 0-33.807 9.32-9.32 24.486-9.321 33.807 0l29.242 29.242c1.484 1.484 3.529 2.283 5.618 2.19 2.096-.088 4.06-1.05 5.414-2.653l74.766-88.483c7.124-7.961 16.926-12.516 27.61-12.824 10.713-.308 20.791 3.695 28.371 11.274 7.58 7.58 11.584 17.656 11.274 28.371-.309 10.684-4.863 20.486-12.824 27.61l-30.991 26.187c-3.164 2.673-3.562 7.405-.888 10.569 2.673 3.163 7.405 3.562 10.569.888l31.069-26.252c.049-.042.099-.085.148-.128 11.12-9.904 17.481-23.555 17.911-38.44.429-14.885-5.133-28.881-15.663-39.411z"/></g></svg>