<svg id="Capa_1" enable-background="new 0 0 512 512" height="512" viewBox="0 0 512 512" width="512" xmlns="http://www.w3.org/2000/svg"><g><path d="m226.042 331.764c-1.027-3.831-4.964-6.105-8.796-5.078-3.831 1.027-6.105 4.964-5.078 8.796l2.292 8.556c1.027 3.831 4.964 6.105 8.796 5.078 3.831-1.027 6.105-4.964 5.078-8.796z"/><path d="m297.54 344.037 2.292-8.556c1.027-3.831-1.247-7.769-5.078-8.796-3.831-1.026-7.769 1.247-8.796 5.078l-2.292 8.556c-1.027 3.831 1.247 7.769 5.078 8.796s7.769-1.247 8.796-5.078z"/><path d="m249.19 324.161v-8.858c0-3.966-3.215-7.182-7.182-7.182-3.966 0-7.182 3.215-7.182 7.182v8.858c0 3.966 3.215 7.181 7.182 7.181s7.182-3.215 7.182-7.181z"/><path d="m277.173 324.161v-8.858c0-3.966-3.215-7.182-7.182-7.182-3.966 0-7.181 3.215-7.181 7.182v8.858c0 3.966 3.215 7.181 7.181 7.181 3.967 0 7.182-3.215 7.182-7.181z"/><path d="m218.136 373.057c.32 13.13 10.837 23.973 23.941 24.686 4.648.256 9.255-.763 13.33-2.939.361-.193.826-.192 1.186 0 3.667 1.958 7.766 2.977 11.935 2.977.464 0 .929-.013 1.394-.038 13.105-.712 23.622-11.555 23.943-24.685.256-10.442-5.949-19.982-15.521-24.007-4.43-8.268-12.918-13.37-22.343-13.37-9.426 0-17.914 5.102-22.343 13.37-9.573 4.026-15.778 13.565-15.522 24.006zm21.657-10.306c3.019-1.151 5.479-3.391 6.928-6.308 1.764-3.553 5.319-5.76 9.279-5.76s7.516 2.207 9.28 5.761c1.448 2.917 3.908 5.156 6.926 6.307 4.093 1.561 6.771 5.556 6.663 9.941-.131 5.359-4.419 9.784-9.763 10.074-1.911.1-3.792-.309-5.448-1.193-2.398-1.28-5.028-1.92-7.658-1.92s-5.26.64-7.658 1.92c-1.657.884-3.537 1.291-5.45 1.193-5.343-.291-9.63-4.716-9.761-10.075-.107-4.385 2.571-8.38 6.662-9.94z"/><path d="m364.486 459.838h-.299v-221.273h.299c14.381 0 26.081-11.7 26.081-26.081s-11.7-26.081-26.081-26.081h-29.689c2.843-1.641 5.606-3.655 7.852-6.468 3.797-4.755 5.066-10.461 6.185-15.495.654-2.941 1.272-5.72 2.278-7.805.968-2.007 2.728-4.176 4.59-6.473 3.279-4.042 6.995-8.624 8.37-14.674 1.327-5.839.002-11.481-1.166-16.458-.701-2.983-1.362-5.802-1.362-8.201s.662-5.217 1.362-8.201c1.168-4.977 2.493-10.619 1.166-16.458-1.375-6.05-5.091-10.632-8.37-14.674-1.863-2.297-3.622-4.466-4.591-6.474-1.006-2.085-1.624-4.864-2.278-7.806-1.12-5.034-2.388-10.74-6.186-15.495-3.814-4.776-9.106-7.28-13.775-9.489-2.712-1.283-5.274-2.496-7.063-3.924-1.769-1.412-3.507-3.629-5.347-5.977-3.198-4.079-6.822-8.702-12.362-11.375-5.452-2.63-11.286-2.598-16.429-2.564-3.027.019-5.893.036-8.185-.485-2.133-.485-4.62-1.707-7.252-3.001-4.679-2.299-9.984-4.906-16.234-4.906-6.251 0-11.556 2.607-16.236 4.907-2.632 1.294-5.118 2.516-7.251 3.001-2.291.521-5.153.502-8.184.485-5.151-.032-10.979-.066-16.43 2.564-5.54 2.672-9.164 7.295-12.362 11.374-1.84 2.347-3.578 4.565-5.346 5.977-1.789 1.429-4.352 2.641-7.064 3.924-4.67 2.209-9.962 4.713-13.775 9.489-3.797 4.755-5.066 10.461-6.185 15.495-.654 2.941-1.272 5.72-2.278 7.805-.968 2.007-2.728 4.176-4.59 6.473-3.279 4.042-6.995 8.624-8.37 14.674-1.327 5.839-.003 11.481 1.166 16.458.701 2.983 1.362 5.801 1.362 8.201 0 2.399-.662 5.218-1.362 8.201-1.169 4.977-2.493 10.619-1.166 16.457 1.375 6.05 5.091 10.632 8.37 14.674 1.863 2.297 3.622 4.466 4.591 6.474 1.006 2.085 1.624 4.864 2.278 7.806 1.12 5.034 2.388 10.74 6.186 15.495 2.246 2.813 5.008 4.827 7.851 6.468h-29.689c-14.381 0-26.081 11.7-26.081 26.081s11.7 26.081 26.081 26.081h.299v64.823c0 4.142 3.358 7.5 7.5 7.5s7.5-3.358 7.5-7.5v-22.007h186.374v135.64h-186.376v-80.947c0-4.142-3.358-7.5-7.5-7.5s-7.5 3.358-7.5 7.5v123.764h-.299c-14.381 0-26.081 11.7-26.081 26.081s11.7 26.081 26.081 26.081h216.973c14.381 0 26.081-11.7 26.081-26.081-.001-14.38-11.701-26.08-26.082-26.08zm-164.936-278.211c-3.154-2.519-6.639-4.167-10.008-5.762-3.509-1.66-6.823-3.228-8.469-5.29-1.63-2.042-2.424-5.612-3.265-9.392-.773-3.477-1.649-7.417-3.411-11.067-1.727-3.581-4.128-6.541-6.45-9.404-2.465-3.039-4.793-5.909-5.393-8.55-.559-2.46.267-5.979 1.142-9.704.825-3.512 1.759-7.493 1.759-11.63s-.935-8.118-1.759-11.63c-.875-3.726-1.701-7.245-1.142-9.705.6-2.64 2.928-5.511 5.393-8.55 2.322-2.863 4.723-5.823 6.45-9.404 1.761-3.651 2.638-7.591 3.411-11.067.841-3.78 1.635-7.35 3.265-9.392 1.646-2.062 4.96-3.629 8.469-5.29 3.369-1.594 6.854-3.243 10.008-5.762 3.135-2.503 5.503-5.523 7.792-8.444 2.403-3.065 4.672-5.96 7.075-7.119 2.321-1.12 5.966-1.096 9.822-1.075 3.576.022 7.623.046 11.599-.858 3.847-.875 7.251-2.547 10.542-4.165 3.526-1.73 6.856-3.367 9.62-3.367s6.094 1.637 9.62 3.37c3.292 1.618 6.696 3.291 10.544 4.165 3.978.904 8.028.881 11.599.858 3.853-.019 7.501-.045 9.821 1.074 2.401 1.159 4.671 4.054 7.074 7.119 2.29 2.92 4.657 5.941 7.792 8.444 3.154 2.519 6.639 4.167 10.008 5.762 3.509 1.66 6.823 3.228 8.469 5.29 1.63 2.042 2.424 5.612 3.265 9.392.773 3.477 1.649 7.417 3.411 11.067 1.727 3.581 4.128 6.541 6.45 9.404 2.465 3.039 4.793 5.909 5.393 8.55.559 2.459-.267 5.979-1.142 9.704-.825 3.512-1.759 7.493-1.759 11.63s.935 8.118 1.759 11.63c.875 3.726 1.701 7.245 1.142 9.705-.6 2.64-2.928 5.511-5.393 8.55-2.322 2.863-4.723 5.823-6.45 9.404-1.761 3.651-2.638 7.591-3.411 11.067-.841 3.78-1.635 7.35-3.265 9.392-1.646 2.061-4.96 3.629-8.469 5.289-3.369 1.594-6.853 3.243-10.008 5.762-1.848 1.476-3.417 3.142-4.815 4.776h-103.265c-1.688-1.972-3.231-3.507-4.82-4.777zm-63.117 30.857c0-6.11 4.971-11.081 11.081-11.081h216.973c6.11 0 11.081 4.971 11.081 11.081s-4.971 11.081-11.081 11.081h-216.973c-6.11 0-11.081-4.971-11.081-11.081zm26.38 53.898v-27.816h186.374v27.816zm201.673 230.618h-216.972c-6.11 0-11.081-4.971-11.081-11.081s4.971-11.081 11.081-11.081h133.684c4.142 0 7.5-3.358 7.5-7.5s-3.358-7.5-7.5-7.5h-118.385v-27.817h186.374v27.817h-35.303c-4.142 0-7.5 3.358-7.5 7.5s3.358 7.5 7.5 7.5h50.602c6.11 0 11.081 4.971 11.081 11.081s-4.971 11.081-11.081 11.081z"/><path d="m318.999 115.015c0-34.738-28.261-62.999-62.999-62.999-25.958 0-48.939 15.581-58.545 39.693-1.533 3.848.343 8.21 4.191 9.743 3.849 1.533 8.21-.343 9.743-4.191 7.32-18.373 24.83-30.245 44.611-30.245 26.467 0 47.999 21.532 47.999 47.999 0 26.466-21.532 47.999-47.999 47.999-22.29 0-41.991-15.761-46.844-37.477-.903-4.042-4.914-6.59-8.955-5.684-4.042.903-6.587 4.913-5.684 8.955 3.073 13.752 10.825 26.24 21.828 35.162 11.169 9.057 25.251 14.044 39.655 14.044 34.738-.001 62.999-28.262 62.999-62.999z"/></g></svg>