<svg id="Capa_1" enable-background="new 0 0 511.981 511.981" height="512" viewBox="0 0 511.981 511.981" width="512" xmlns="http://www.w3.org/2000/svg"><g><path d="m349.562 384.115c-4.142 0-7.5 3.358-7.5 7.5 0 4.142 3.358 7.5 7.5 7.5s7.5-3.358 7.5-7.5c0-4.142-3.357-7.5-7.5-7.5z"/><path d="m294.059 391.615c0-4.142-3.358-7.5-7.5-7.5s-7.5 3.358-7.5 7.5c0 4.142 3.358 7.5 7.5 7.5s7.5-3.358 7.5-7.5z"/><path d="m380.314 384.115c-4.142 0-7.5 3.358-7.5 7.5 0 4.142 3.358 7.5 7.5 7.5s7.5-3.358 7.5-7.5c0-4.142-3.358-7.5-7.5-7.5z"/><path d="m115.192 391.615c0 4.142 3.357 7.5 7.5 7.5h122.465c4.143 0 7.5-3.358 7.5-7.5s-3.357-7.5-7.5-7.5h-122.465c-4.143 0-7.5 3.358-7.5 7.5z"/><path d="m417.365 433.558c9.75 0 17.682-7.932 17.682-17.681v-48.522c0-9.536-7.593-17.312-17.049-17.649l92.857-247.387c2.038-5.429 1.282-11.515-2.02-16.282-3.303-4.767-8.735-7.612-14.534-7.612h-97.643c-4.143 0-7.5 3.358-7.5 7.5s3.357 7.5 7.5 7.5h97.642c1.222 0 1.905.723 2.204 1.154s.735 1.326.307 2.469l-94.824 252.626h-109.184l-5.533-30.014h20.637c4.143 0 7.5-3.358 7.5-7.5s-3.357-7.5-7.5-7.5h-23.402l-5.125-27.806h18.853c4.143 0 7.5-3.358 7.5-7.5s-3.357-7.5-7.5-7.5h-21.618l-5.126-27.806h15.069c4.142 0 7.5-3.358 7.5-7.5s-3.358-7.5-7.5-7.5h-17.834l-3.645-19.775c-.751-4.074-4.666-6.768-8.735-6.016-4.073.751-6.768 4.662-6.017 8.735l3.144 17.056h-22.164c-4.143 0-7.5 3.358-7.5 7.5s3.357 7.5 7.5 7.5h24.928l5.125 27.806h-18.38c-4.143 0-7.5 3.358-7.5 7.5s3.357 7.5 7.5 7.5h21.145l5.126 27.806h-16.597c-4.143 0-7.5 3.358-7.5 7.5s3.357 7.5 7.5 7.5h19.362l5.533 30.014h-89.482c-4.143 0-7.5 3.358-7.5 7.5s3.357 7.5 7.5 7.5h98.45c.011 0 .022.001.033.001.008 0 .016-.001.024-.001 14.85.008 26.927 12.091 26.927 26.942 0 14.856-12.086 26.942-26.942 26.942h-191.942c-1.479 0-2.682-1.203-2.682-2.681v-48.522c0-1.478 1.203-2.681 2.682-2.681h10.157c.008 0 .017.002.026.002.015 0 .029-.002.044-.002h49.75c4.143 0 7.5-3.358 7.5-7.5s-3.357-7.5-7.5-7.5h-44.599l-94.825-252.627c-.429-1.144.008-2.038.307-2.469s.982-1.154 2.204-1.154h212.634l14.089 76.433c.666 3.614 3.819 6.142 7.367 6.142.451 0 .909-.041 1.368-.126 4.073-.751 6.768-4.662 6.017-8.735l-13.588-73.714h118.403c4.143 0 7.5-3.358 7.5-7.5s-3.357-7.5-7.5-7.5h-127.257c-.002 0-.004 0-.006 0h-219.027c-5.799 0-11.231 2.846-14.534 7.612-3.302 4.767-4.058 10.853-2.02 16.282l92.857 247.387c-9.456.337-17.049 8.113-17.049 17.649v48.522c0 9.75 7.932 17.681 17.682 17.681h322.748zm2.681-66.204v48.522c0 1.479-1.203 2.681-2.682 2.681h-98.694c6.129-7.294 9.831-16.692 9.831-26.942s-3.702-19.649-9.831-26.942h88.468c.015 0 .029.002.044.002.009 0 .017-.002.026-.002h10.157c1.478 0 2.681 1.202 2.681 2.681z"/></g></svg>