<svg id="Capa_1" enable-background="new 0 0 512.001 512.001" height="512" viewBox="0 0 512.001 512.001" width="512" xmlns="http://www.w3.org/2000/svg"><path d="m338.322 165.824-2.761-2.629c2.596-2.967 4.184-6.838 4.184-11.081v-34.189c0-9.298-7.564-16.863-16.863-16.863h-3.853v-9.531c0-17.043-13.866-30.909-30.909-30.909-1.193 0-2.164-.971-2.164-2.164v-27.996c0-8.162-3.36-16.14-9.22-21.889-5.784-5.675-13.368-8.731-21.313-8.566-16.199.307-29.378 13.743-29.378 29.95v28.502c0 1.193-.971 2.164-2.164 2.164-17.043 0-30.909 13.866-30.909 30.909v9.531h-3.853c-9.299 0-16.863 7.565-16.863 16.863v34.189c0 4.243 1.587 8.114 4.184 11.081l-2.761 2.629c-19.948 18.997-31.389 45.691-31.389 73.238v118.821c0 4.142 3.357 7.5 7.5 7.5s7.5-3.358 7.5-7.5v-91.543h24.966v197.478c0 9.649 7.851 17.5 17.5 17.5h21.539c4.143 0 7.5-3.358 7.5-7.5s-3.357-7.5-7.5-7.5h-21.539c-1.379 0-2.5-1.122-2.5-2.5v-46.846h24.039c4.143 0 7.5-3.358 7.5-7.5s-3.357-7.5-7.5-7.5h-24.039v-46.909h24.039c4.143 0 7.5-3.358 7.5-7.5s-3.357-7.5-7.5-7.5h-24.039v-46.909h24.039c4.143 0 7.5-3.358 7.5-7.5s-3.357-7.5-7.5-7.5h-24.039v-11.814h83.637c4.143 0 7.5-3.358 7.5-7.5s-3.357-7.5-7.5-7.5h-83.637v-20.032c0-1.378 1.121-2.5 2.5-2.5h21.539c4.143 0 7.5-3.358 7.5-7.5s-3.357-7.5-7.5-7.5h-21.539c-9.649 0-17.5 7.851-17.5 17.5v20.032h-24.966v-12.279c0-23.461 9.744-46.196 26.732-62.375l8.096-7.709h127.763l8.096 7.709c16.988 16.18 26.733 38.915 26.733 62.375v12.279h-41.13c-4.143 0-7.5 3.358-7.5 7.5s3.357 7.5 7.5 7.5h41.131v214.751c0 8.772-7.137 15.909-15.908 15.909h-165.604c-8.771 0-15.908-7.137-15.908-15.909v-90.523c0-4.142-3.357-7.5-7.5-7.5s-7.5 3.358-7.5 7.5v90.523c0 17.043 13.865 30.909 30.908 30.909h165.604c17.043 0 30.908-13.866 30.908-30.909v-242.03c-.001-27.547-11.441-54.241-31.389-73.238zm-151.066-47.899c0-1.027.836-1.863 1.863-1.863h33.78c4.143 0 7.5-3.358 7.5-7.5s-3.357-7.5-7.5-7.5h-14.928v-9.531c0-8.772 7.137-15.909 15.909-15.909 9.464 0 17.164-7.7 17.164-17.164v-28.502c0-8.091 6.578-14.799 14.663-14.953 3.908-.059 7.636 1.445 10.522 4.276 3.003 2.946 4.726 7.022 4.726 11.182v27.997c0 9.464 7.7 17.164 17.164 17.164 8.772 0 15.909 7.137 15.909 15.909v9.531h-48.442c-4.143 0-7.5 3.358-7.5 7.5s3.357 7.5 7.5 7.5h67.295c1.027 0 1.863.836 1.863 1.863v34.189c0 1.027-.836 1.863-1.863 1.863h-133.761c-1.027 0-1.863-.836-1.863-1.863v-34.189z"/></svg>