<svg id="Capa_1" enable-background="new 0 0 512 512" height="512" viewBox="0 0 512 512" width="512" xmlns="http://www.w3.org/2000/svg"><g><path d="m204.611 293.302c-1.761-6.572-8.516-10.471-15.087-8.711-6.572 1.761-10.472 8.516-8.711 15.087l3.932 14.676c1.761 6.572 8.516 10.472 15.087 8.711 6.572-1.761 10.472-8.516 8.711-15.087z"/><path d="m312.168 323.065c6.572 1.761 13.327-2.139 15.087-8.711l3.932-14.676c1.761-6.572-2.139-13.327-8.711-15.087-6.572-1.761-13.326 2.139-15.087 8.711l-3.932 14.676c-1.761 6.572 2.139 13.327 8.711 15.087z"/><path d="m232 292.579c6.804 0 12.319-5.515 12.319-12.319v-15.194c0-6.804-5.515-12.319-12.319-12.319s-12.319 5.515-12.319 12.319v15.194c0 6.804 5.515 12.319 12.319 12.319z"/><path d="m292.319 280.26v-15.194c0-6.804-5.515-12.319-12.319-12.319s-12.319 5.515-12.319 12.319v15.194c0 6.804 5.515 12.319 12.319 12.319s12.319-5.515 12.319-12.319z"/><path d="m196.413 364.004c.482 19.742 16.294 36.046 35.997 37.119 6.995.381 13.923-1.147 20.047-4.417 2.186-1.167 4.903-1.167 7.088 0 5.511 2.943 11.675 4.474 17.947 4.474.698 0 1.397-.019 2.097-.057 19.703-1.071 35.515-17.375 35.999-37.117.395-16.133-9.463-30.833-24.532-36.581-.379-.145-.697-.445-.897-.847-6.489-13.071-19.578-21.191-34.159-21.191s-27.669 8.12-34.159 21.191c-.199.401-.518.702-.896.846-15.068 5.747-24.926 20.447-24.532 36.58zm29.877-22.563c3.914-1.493 7.106-4.402 8.987-8.192 3.938-7.933 11.879-12.861 20.723-12.861s16.785 4.928 20.724 12.862c1.882 3.79 5.074 6.699 8.987 8.191 9.141 3.486 15.122 12.407 14.882 22.198-.293 11.971-9.877 21.857-21.818 22.506-4.249.228-8.458-.692-12.163-2.671-6.643-3.547-14.577-3.549-21.22 0-3.706 1.979-7.913 2.898-12.166 2.671-11.941-.65-21.524-10.537-21.817-22.507-.24-9.791 5.74-18.712 14.881-22.197z"/><path d="m177.627 34.957v27.402c0 4.142 3.358 7.5 7.5 7.5s7.5-3.358 7.5-7.5v-27.402c0-4.142-3.358-7.5-7.5-7.5-4.142-.001-7.5 3.358-7.5 7.5z"/><path d="m239.876 62.358v-27.401c0-4.142-3.358-7.5-7.5-7.5s-7.5 3.358-7.5 7.5v27.402c0 4.142 3.358 7.5 7.5 7.5 4.142-.001 7.5-3.358 7.5-7.501z"/><path d="m287.124 62.358v-27.401c0-4.142-3.358-7.5-7.5-7.5s-7.5 3.358-7.5 7.5v27.402c0 4.142 3.358 7.5 7.5 7.5 4.142-.001 7.5-3.358 7.5-7.501z"/><path d="m334.373 62.358v-27.401c0-4.142-3.358-7.5-7.5-7.5s-7.5 3.358-7.5 7.5v27.402c0 4.142 3.358 7.5 7.5 7.5 4.142-.001 7.5-3.358 7.5-7.501z"/><path d="m373.9 127.615h-33.852c-1.378 0-2.5-1.121-2.5-2.5v-27.8h14.748c9.649 0 17.5-7.851 17.5-17.5v-62.315c0-9.649-7.851-17.5-17.5-17.5h-129.953c-4.142 0-7.5 3.358-7.5 7.5s3.358 7.5 7.5 7.5h129.953c1.378 0 2.5 1.122 2.5 2.5v62.315c0 1.378-1.122 2.5-2.5 2.5h-192.592c-1.378 0-2.5-1.122-2.5-2.5v-62.315c0-1.378 1.122-2.5 2.5-2.5h29.953c4.142 0 7.5-3.358 7.5-7.5s-3.358-7.5-7.5-7.5h-29.953c-9.649 0-17.5 7.851-17.5 17.5v62.315c0 9.649 7.851 17.5 17.5 17.5h14.748v27.8c0 1.379-1.122 2.5-2.5 2.5h-33.852c-9.423 0-17.798 4.065-23.582 11.447-5.918 7.553-8.919 18.001-8.919 31.053v85.885c0 4.142 3.358 7.5 7.5 7.5s7.5-3.358 7.5-7.5v-38.035h270.801v211.045h-43.447c-4.142 0-7.5 3.358-7.5 7.5s3.358 7.5 7.5 7.5h43.447v35.49c0 9.649-7.851 17.5-17.5 17.5h-235.8c-9.649 0-17.5-7.851-17.5-17.5v-35.489h194.667c4.142 0 7.5-3.358 7.5-7.5s-3.358-7.5-7.5-7.5h-194.667v-140.005c0-4.142-3.358-7.5-7.5-7.5s-7.5 3.358-7.5 7.5v190.494c0 17.92 14.58 32.5 32.5 32.5h235.8c17.92 0 32.5-14.58 32.5-32.5v-309.385c0-31.369-17.507-42.5-32.5-42.5zm-253.3 75.35v-32.85c0-17.22 6.542-27.5 17.5-27.5h33.852c9.649 0 17.5-7.851 17.5-17.5v-27.8h133.097v27.8c0 9.649 7.851 17.5 17.5 17.5h33.851c10.958 0 17.5 10.28 17.5 27.5v32.85z"/></g></svg>