<svg id="Capa_1" enable-background="new 0 0 512 512" height="512" viewBox="0 0 512 512" width="512" xmlns="http://www.w3.org/2000/svg"><g><path d="m383.271 436.184c9.649 0 17.5 7.851 17.5 17.5v12.275c0 1.378-1.121 2.5-2.5 2.5h-38.594c-4.143 0-7.5 3.358-7.5 7.5s3.357 7.5 7.5 7.5h38.594c9.649 0 17.5-7.851 17.5-17.5v-12.275c0-17.92-14.579-32.5-32.5-32.5h-33.827l-20.592-58.006h71.628c4.143 0 7.5-3.358 7.5-7.5s-3.357-7.5-7.5-7.5h-367.98c-9.649 0-17.5-7.851-17.5-17.5v-166.76c0-4.142-3.358-7.5-7.5-7.5s-7.5 3.358-7.5 7.5v166.76c0 17.92 14.58 32.5 32.5 32.5h150.648l-20.591 58.006h-33.827c-17.92 0-32.5 14.58-32.5 32.5v12.275c0 9.649 7.851 17.5 17.5 17.5h213.26c4.143 0 7.5-3.358 7.5-7.5s-3.357-7.5-7.5-7.5h-213.26c-1.378 0-2.5-1.122-2.5-2.5v-12.275c0-9.649 7.851-17.5 17.5-17.5zm-184.206-73.006h113.87l20.592 58.006h-155.053z"/><path d="m479.5 28.542h-447c-17.92 0-32.5 14.58-32.5 32.5v70.19c0 4.142 3.358 7.5 7.5 7.5s7.5-3.358 7.5-7.5v-70.19c0-9.649 7.851-17.5 17.5-17.5h447c9.649 0 17.5 7.851 17.5 17.5v269.636c0 9.649-7.851 17.5-17.5 17.5h-46.334c-4.143 0-7.5 3.358-7.5 7.5s3.357 7.5 7.5 7.5h46.334c17.921 0 32.5-14.58 32.5-32.5v-269.636c0-17.921-14.579-32.5-32.5-32.5z"/><path d="m181.416 149.051c-14.417-14.417-37.876-14.417-52.293 0l-6.25 6.251-6.251-6.251c-14.417-14.417-37.876-14.417-52.293 0-14.417 14.418-14.417 37.876 0 52.293l47.637 47.637c3.007 3.006 6.957 4.51 10.907 4.51s7.9-1.503 10.907-4.51l24.67-24.671c2.929-2.929 2.929-7.678 0-10.606-2.929-2.929-7.678-2.929-10.606 0l-24.669 24.67c-.166.166-.436.166-.602.001l-47.637-47.637c-8.568-8.569-8.568-22.512 0-31.081 8.57-8.569 22.512-8.568 31.08 0l11.554 11.554c1.406 1.407 3.314 2.197 5.303 2.197s3.897-.79 5.303-2.197l11.554-11.554c8.569-8.567 22.512-8.568 31.08 0 5.656 5.656 7.793 13.95 5.578 21.646-1.515 5.263-.479 10.802 2.842 15.196 3.354 4.44 8.459 6.982 14.013 6.982h.064l29.851-.104c5.487-.019 10.716-2.66 13.989-7.066l21.876-29.456 35.934 73.209c2.119 4.317 6.414 6.992 11.219 6.992h.054c4.826-.02 9.123-2.735 11.214-7.083l26.162-54.417 17.283 42.148c1.797 4.383 5.848 7.341 10.57 7.718 4.705.378 9.19-1.899 11.66-5.94l15.237-24.926c.45-.737 1.268-1.195 2.133-1.195h50.515c4.142 0 7.5-3.358 7.5-7.5s-3.358-7.5-7.5-7.5h-50.515c-6.054 0-11.775 3.209-14.932 8.373l-12.663 20.714-17.542-42.781c-1.899-4.634-6.19-7.605-11.196-7.753-5.019-.148-9.465 2.565-11.635 7.078l-26.367 54.843-35.473-72.27c-1.937-3.945-5.705-6.539-10.081-6.94-4.387-.407-8.554 1.466-11.175 4.995l-24.32 32.747c-.467.63-1.214 1.007-1.998 1.01l-29.852.104c-.003 0-.006 0-.01 0-1.149 0-1.814-.716-2.047-1.025-.321-.425-.65-1.118-.395-2.005 3.723-12.938.126-26.887-9.387-36.4z"/><path d="m451.002 298.155h-60.705c-4.143 0-7.5 3.358-7.5 7.5s3.357 7.5 7.5 7.5h60.705c4.142 0 7.5-3.358 7.5-7.5s-3.357-7.5-7.5-7.5z"/><path d="m451.002 265.875h-60.705c-4.143 0-7.5 3.358-7.5 7.5s3.357 7.5 7.5 7.5h60.705c4.142 0 7.5-3.358 7.5-7.5 0-4.143-3.357-7.5-7.5-7.5z"/><path d="m60.998 313.155h60.705c4.142 0 7.5-3.358 7.5-7.5s-3.358-7.5-7.5-7.5h-60.705c-4.142 0-7.5 3.358-7.5 7.5s3.358 7.5 7.5 7.5z"/></g></svg>