<svg id="Capa_1" enable-background="new 0 0 512 512" height="512" viewBox="0 0 512 512" width="512" xmlns="http://www.w3.org/2000/svg"><g><path d="m72.097 170.348c4.142 0 7.5-3.358 7.5-7.5 0-4.142-3.358-7.5-7.5-7.5s-7.5 3.358-7.5 7.5c0 4.142 3.358 7.5 7.5 7.5z"/><path d="m140.898 162.848c0-4.142-3.358-7.5-7.5-7.5s-7.5 3.358-7.5 7.5c0 4.142 3.358 7.5 7.5 7.5s7.5-3.358 7.5-7.5z"/><path d="m256 170.348c4.142 0 7.5-3.358 7.5-7.5 0-4.142-3.358-7.5-7.5-7.5s-7.5 3.358-7.5 7.5c0 4.142 3.358 7.5 7.5 7.5z"/><path d="m317.301 170.348c4.142 0 7.5-3.358 7.5-7.5 0-4.142-3.358-7.5-7.5-7.5s-7.5 3.358-7.5 7.5c0 4.142 3.358 7.5 7.5 7.5z"/><path d="m439.903 155.348c-4.142 0-7.5 3.358-7.5 7.5 0 4.142 3.358 7.5 7.5 7.5s7.5-3.358 7.5-7.5c0-4.142-3.358-7.5-7.5-7.5z"/><path d="m227.5 101.089v-4.845c0-9.649-7.851-17.5-17.5-17.5h-30.602c-9.649 0-17.5 7.851-17.5 17.5v4.845h-73.458c-4.143 0-7.5 3.358-7.5 7.5s3.357 7.5 7.5 7.5h73.458v93.519h-144.398c-1.379 0-2.5-1.122-2.5-2.5v-88.519c0-1.378 1.121-2.5 2.5-2.5h38.254c4.143 0 7.5-3.358 7.5-7.5s-3.357-7.5-7.5-7.5h-38.254c-9.649 0-17.5 7.851-17.5 17.5v88.519c0 9.649 7.851 17.5 17.5 17.5h144.398v4.845c0 9.649 7.851 17.5 17.5 17.5h30.602c9.649 0 17.5-7.851 17.5-17.5v-4.845h21v44.298c-39.434 3.579-70.918 35.063-74.497 74.497h-5.716c-4.143 0-7.5 3.358-7.5 7.5s3.357 7.5 7.5 7.5h5.716c3.803 41.906 39.116 74.854 81.997 74.854s78.194-32.948 81.997-74.854h5.716c4.143 0 7.5-3.358 7.5-7.5s-3.357-7.5-7.5-7.5h-5.711c-1.247-13.802-5.917-27.003-13.717-38.55-2.319-3.432-6.98-4.335-10.413-2.017-3.433 2.319-4.335 6.981-2.017 10.413 6.118 9.057 9.889 19.36 11.085 30.153h-133.866c3.744-33.621 32.323-59.854 66.926-59.854 12.539 0 24.772 3.467 35.378 10.027 3.522 2.178 8.145 1.089 10.323-2.433 2.18-3.523 1.09-8.145-2.433-10.324-10.85-6.711-23.089-10.766-35.769-11.919v-44.292h160.06c4.142 0 7.5-3.358 7.5-7.5s-3.358-7.5-7.5-7.5h-47.589c13.14-11.334 21.482-28.086 21.482-46.759 0-18.674-8.342-35.425-21.482-46.759h118.53c1.379 0 2.5 1.122 2.5 2.5v88.519c0 1.378-1.121 2.5-2.5 2.5h-38.254c-4.143 0-7.5 3.358-7.5 7.5s3.357 7.5 7.5 7.5h38.254c9.649 0 17.5-7.851 17.5-17.5v-88.519c0-9.649-7.851-17.5-17.5-17.5zm36 316.739v-27.239c0-4.142-3.357-7.5-7.5-7.5s-7.5 3.358-7.5 7.5v27.239c-31.156-3.469-55.956-28.269-59.426-59.426h133.851c-3.468 31.157-28.269 55.957-59.425 59.426zm-51-188.375c0 1.378-1.121 2.5-2.5 2.5h-30.602c-1.379 0-2.5-1.122-2.5-2.5v-133.209c0-1.378 1.121-2.5 2.5-2.5h30.602c1.379 0 2.5 1.122 2.5 2.5zm169.953-66.605c0 25.783-20.976 46.759-46.759 46.759h-108.194v-93.519h108.194c25.784.001 46.759 20.977 46.759 46.76z"/></g></svg>