<svg id="Capa_1" enable-background="new 0 0 512 512" height="512" viewBox="0 0 512 512" width="512" xmlns="http://www.w3.org/2000/svg"><g><g><path d="m146.551 245.925c-11.673 0-22.384-7.8-25.546-19.599l-6.046-22.564c-3.773-14.081 4.614-28.608 18.695-32.381 14.089-3.774 28.609 4.614 32.383 18.695l6.046 22.564c3.773 14.082-4.613 28.608-18.695 32.382 0 0 0 0-.001 0-2.282.611-4.577.903-6.836.903zm4.895-8.148h.01zm-10.951-52.3c-.978 0-1.97.126-2.958.391-6.093 1.632-9.722 7.918-8.09 14.011l6.046 22.564c1.633 6.092 7.918 9.721 14.013 8.089h-.001c6.093-1.632 9.722-7.918 8.09-14.011l-6.046-22.563c-1.368-5.105-6.003-8.481-11.054-8.481z"/></g><g><path d="m329.053 245.925c-2.26 0-4.553-.292-6.836-.903-.001 0-.001 0-.001 0-14.082-3.774-22.469-18.3-18.695-32.382l6.047-22.564c1.827-6.821 6.202-12.523 12.318-16.054 6.114-3.531 13.238-4.471 20.063-2.642 14.081 3.774 22.469 18.3 18.695 32.382l-6.046 22.564c-3.162 11.798-13.873 19.599-25.545 19.599zm-2.955-15.393c6.101 1.634 12.38-1.997 14.013-8.089l6.046-22.564c1.632-6.093-1.997-12.378-8.09-14.011-2.952-.79-6.035-.384-8.681 1.143-2.646 1.528-4.539 3.995-5.33 6.946l-6.047 22.564c-1.632 6.093 1.997 12.379 8.089 14.011z"/></g><g><g><path d="m200.902 198.405c-14.579 0-26.439-11.861-26.439-26.439v-23.36c0-14.579 11.86-26.44 26.439-26.44s26.441 11.861 26.441 26.44v23.36c0 14.578-11.862 26.439-26.441 26.439zm0-61.24c-6.308 0-11.439 5.132-11.439 11.44v23.36c0 6.308 5.132 11.439 11.439 11.439 6.309 0 11.441-5.132 11.441-11.439v-23.36c0-6.308-5.132-11.44-11.441-11.44z"/></g></g><g><g><path d="m274.701 198.405c-14.579 0-26.441-11.861-26.441-26.439v-23.36c0-14.579 11.861-26.44 26.441-26.44s26.439 11.861 26.439 26.44v23.36c.001 14.578-11.86 26.439-26.439 26.439zm0-61.24c-6.309 0-11.44 5.132-11.44 11.44v23.36c0 6.308 5.132 11.439 11.44 11.439s11.439-5.132 11.439-11.439v-23.36c.001-6.308-5.131-11.44-11.439-11.44z"/></g></g><g><path d="m205.163 353.845c-1.001 0-2.002-.027-3.005-.082-28.207-1.536-50.843-24.879-51.533-53.143-.564-23.099 13.551-44.146 35.125-52.373 1.532-.584 2.793-1.747 3.552-3.275 9.292-18.716 28.031-30.342 48.907-30.342 20.877 0 39.617 11.626 48.907 30.341.759 1.528 2.02 2.692 3.553 3.275 21.574 8.228 35.689 29.276 35.125 52.376-.189 7.689-1.974 15.11-5.304 22.06-1.791 3.736-6.276 5.311-10.005 3.522-3.735-1.79-5.313-6.27-3.523-10.005 2.408-5.024 3.699-10.389 3.835-15.944.41-16.757-9.827-32.026-25.474-37.993-5.066-1.932-9.201-5.704-11.643-10.621-6.74-13.578-20.332-22.012-35.472-22.012-15.139 0-28.732 8.435-35.472 22.012-2.44 4.917-6.576 8.689-11.644 10.621-15.646 5.966-25.883 21.234-25.473 37.991.5 20.494 16.907 37.419 37.352 38.532 7.283.394 14.475-1.187 20.824-4.577 9.023-4.821 19.801-4.819 28.826.001 6.347 3.389 13.537 4.971 20.82 4.576 3.612-.196 7.175-.894 10.586-2.073 3.917-1.353 8.186.725 9.539 4.639 1.353 3.915-.725 8.185-4.639 9.538-4.73 1.635-9.667 2.601-14.672 2.873-10.008.548-19.934-1.642-28.7-6.322-4.603-2.457-10.095-2.458-14.695-.001-7.886 4.213-16.714 6.405-25.697 6.406z"/></g><g><g><path d="m453.893 461.113c-.021 0-.042 0-.064-.001-4.142-.034-7.472-3.42-7.438-7.561.047-5.605.095-11.94.139-18.504h-32.06c-2.653 0-5.109-1.402-6.458-3.687-1.35-2.285-1.391-5.113-.109-7.436 4.451-8.067 26.883-48.593 31.425-54.164 3.764-4.619 8.834-6.502 13.566-5.036 4.789 1.483 8.192 6.146 8.67 11.878.231 2.783.174 23.779.064 43.446h2.565c4.143 0 7.5 3.358 7.5 7.5s-3.357 7.5-7.5 7.5h-2.66c-.058 8.411-.113 15.331-.141 18.628-.035 4.12-3.386 7.437-7.499 7.437zm-26.685-41.066h19.415c.074-13.398.12-26.173.097-34.145-4.577 7.655-11.991 20.666-19.512 34.145z"/></g></g><g><g><path d="m379.197 461.131c-15.141 0-16.249-.371-17.265-.709-2.503-.835-4.371-2.725-5.128-5.186-1.308-4.25.534-6.661 5.456-13.106 4.027-5.273 11.524-15.089 24.083-33.033 3.742-5.346 6.154-10.134 7.175-14.242l.272-2.133c-.224-6.841-5.859-12.338-12.754-12.338-6.085 0-11.351 4.323-12.521 10.279-.798 4.063-4.731 6.713-8.805 5.914-4.064-.798-6.712-4.74-5.914-8.805 2.547-12.973 14.003-22.388 27.239-22.388 15.308 0 27.761 12.454 27.761 27.761 0 .317-.021.634-.061.949l-.391 3.063c-.031.251-.076.5-.133.745-1.406 6.061-4.629 12.722-9.581 19.796-9.458 13.513-16.094 22.493-20.56 28.415 7.519.008 17.307-.066 26.486-.182.032-.001.064-.001.097-.001 4.098 0 7.445 3.296 7.497 7.406.053 4.142-3.263 7.542-7.404 7.594-11.307.142-19.536.201-25.549.201zm-13.663-15.21c0 .001 0 .001 0 0 .001.001 0 .001 0 0z"/></g></g><g><path d="m238.006 476.011c-63.574 0-123.343-24.757-168.296-69.71-44.953-44.953-69.71-104.722-69.71-168.296 0-60.238 22.511-117.675 63.385-161.728 2.816-3.037 7.56-3.214 10.6-.397 3.036 2.817 3.214 7.563.396 10.599-38.292 41.27-59.381 95.084-59.381 151.526 0 59.567 23.196 115.568 65.317 157.688 42.119 42.12 98.12 65.317 157.689 65.317 6.466 0 11.725-5.261 11.725-11.727s-5.26-11.726-11.725-11.726c-110.034 0-199.554-89.519-199.554-199.553s89.52-199.553 199.554-199.553c52.029 0 101.309 19.986 138.764 56.278 37.364 36.205 58.906 84.661 60.659 136.444.068 2.032-.69 4.004-2.104 5.466-1.413 1.462-3.359 2.287-5.393 2.287h-9.646c-1.256 0-1.896.783-2.165 1.25-.27.467-.628 1.413 0 2.5l28.998 50.227c.628 1.088 1.626 1.251 2.166 1.251.538-.001 1.536-.163 2.164-1.25l28.999-50.227c.628-1.087.27-2.033 0-2.5s-.909-1.25-2.165-1.25h-9.873c-4.061 0-7.384-3.232-7.497-7.292-1.589-57.113-24.751-110.853-65.219-151.32-42.12-42.118-98.121-65.315-157.688-65.315-51.994 0-100.637 17.265-140.669 49.929-3.211 2.619-7.934 2.14-10.553-1.069-2.618-3.21-2.14-7.934 1.07-10.553 42.741-34.874 94.663-53.307 150.152-53.307 63.574 0 123.342 24.757 168.295 69.71 41.464 41.463 65.904 95.986 69.293 154.218h2.689c6.326 0 11.992 3.271 15.155 8.749 3.163 5.479 3.163 12.021 0 17.501l-28.999 50.227c-3.162 5.479-8.828 8.75-15.154 8.751-6.326 0-11.992-3.271-15.156-8.75l-28.998-50.227c-3.163-5.479-3.163-12.021 0-17.5 3.164-5.479 8.829-8.75 15.155-8.75h1.727c-3.398-44.948-22.994-86.753-55.682-118.425-34.641-33.565-80.214-52.05-128.325-52.05-101.764 0-184.554 82.79-184.554 184.553s82.79 184.553 184.554 184.553c14.736 0 26.726 11.989 26.726 26.726-.001 14.736-11.99 26.725-26.726 26.725z"/></g><g><path d="m412.675 512c-46.979 0-87.903-33.357-97.308-79.316-.83-4.058 1.786-8.021 5.844-8.851 4.061-.833 8.021 1.786 8.852 5.844 7.982 39.009 42.726 67.323 82.612 67.323 46.497 0 84.325-37.828 84.325-84.325s-37.828-84.325-84.325-84.325c-41.128 0-76.069 29.359-83.082 69.811-.706 4.082-4.587 6.816-8.671 6.108-4.081-.708-6.816-4.589-6.108-8.671 8.263-47.658 49.419-82.248 97.861-82.248 54.769 0 99.325 44.557 99.325 99.325s-44.557 99.325-99.325 99.325z"/></g></g></svg>