<svg id="Capa_1" enable-background="new 0 0 512 512" height="512" viewBox="0 0 512 512" width="512" xmlns="http://www.w3.org/2000/svg"><path d="m379.32 256.19c4.142 0 7.5-3.357 7.5-7.5s-3.358-7.5-7.5-7.5h-41.995c.901-7.101 1.366-14.288 1.366-21.466 0-38.589-13.378-76.368-37.671-106.381-2.605-3.22-7.329-3.716-10.548-1.111-3.22 2.606-3.717 7.329-1.111 10.549 22.138 27.351 34.331 61.779 34.331 96.943 0 7.186-.506 14.38-1.494 21.466h-37.091c1.305-7.056 1.979-14.241 1.979-21.466 0-64.922-52.818-117.74-117.74-117.74s-117.74 52.818-117.74 117.74c0 15.778 3.127 30.837 8.782 44.601 6.098 14.869 15.296 28.458 26.816 39.663 18.991 18.517 44.194 30.687 72.151 33.048 3.32.283 6.66.428 9.992.428h99.647c-27.729 23.434-63.151 36.606-99.647 36.606-85.108.001-154.347-69.238-154.347-154.345 0-85.106 69.239-154.346 154.346-154.346 35.709 0 70.553 12.532 98.114 35.287 3.194 2.638 7.922 2.186 10.559-1.008s2.186-7.922-1.009-10.559c-30.242-24.97-68.478-38.721-107.664-38.721-93.378.001-169.346 75.969-169.346 169.347 0 65.152 36.989 121.82 91.064 150.131l-27.781 70.679c-1.87 4.757-1.268 10.118 1.61 14.342s7.647 6.745 12.758 6.745h183.389c5.111 0 9.881-2.521 12.759-6.745s3.48-9.585 1.61-14.343l-10.169-25.869c-1.515-3.854-5.869-5.75-9.724-4.236-3.855 1.516-5.752 5.869-4.236 9.725l10.168 25.868c.032.081.085.217-.046.408-.131.192-.276.192-.363.192h-51.567v-26.912c0-9.65-7.85-17.5-17.5-17.5h-45.254c-9.649 0-17.5 7.85-17.5 17.5v26.911h-51.567c-.087 0-.232 0-.363-.191-.131-.192-.078-.328-.046-.408l27.434-69.794c19.937 8.269 41.777 12.844 64.669 12.844 22.332 0 44.295-4.5 64.635-12.93l5.04 12.823c1.161 2.954 3.989 4.758 6.982 4.758.913 0 1.841-.168 2.742-.522 3.855-1.516 5.752-5.869 4.236-9.725l-5.383-13.693c15.956-8.327 30.631-19.199 43.345-32.317h49.932v106.656c0 9.649 7.851 17.5 17.5 17.5h91.393c9.649 0 17.5-7.851 17.5-17.5v-106.657h17.384c15.08 0 27.349-12.269 27.349-27.349v-41.577c0-15.08-12.269-27.349-27.349-27.349h-72.645c-4.142 0-7.5 3.357-7.5 7.5s3.358 7.5 7.5 7.5h72.645c6.809 0 12.349 5.54 12.349 12.349v41.577c0 6.809-5.54 12.349-12.349 12.349h-315.305c-3.542 0-8.594.413-11.917-.695-23.522-2.757-45.014-13.572-61.188-29.933-10.011-10.118-17.874-22.347-22.942-35.647zm-235.101 163.52c0-1.379 1.122-2.5 2.5-2.5h45.254c1.378 0 2.5 1.121 2.5 2.5v26.911h-50.254zm25.127-302.726c56.651 0 102.74 46.089 102.74 102.74 0 7.244-.77 14.439-2.268 21.466h-200.95c-1.478-6.926-2.262-14.105-2.262-21.466 0-56.651 46.089-102.74 102.74-102.74zm282.922 285.226h-96.393v-20.334h96.393zm-2.5 44.411h-91.393c-1.378 0-2.5-1.121-2.5-2.5v-26.911h96.393v26.911c0 1.379-1.122 2.5-2.5 2.5zm2.5-79.745h-96.393v-29.411h96.393z"/></svg>