<svg id="Capa_1" enable-background="new 0 0 512 512" height="512" viewBox="0 0 512 512" width="512" xmlns="http://www.w3.org/2000/svg"><g><path d="m267.217 408.753h-57.398c-9.65 0-17.5 7.851-17.5 17.5v9.334h-36.606c-4.142 0-7.5 3.357-7.5 7.5s3.358 7.5 7.5 7.5h88.211c4.142 0 7.5-3.357 7.5-7.5s-3.358-7.5-7.5-7.5h-36.605v-9.334c0-1.379 1.122-2.5 2.5-2.5h57.398c4.142 0 7.5-3.357 7.5-7.5 0-4.142-3.358-7.5-7.5-7.5z"/><path d="m401.772 209.358c14.251 0 25.846-11.595 25.846-25.846s-11.594-25.846-25.846-25.846c-14.251 0-25.846 11.595-25.846 25.846s11.595 25.846 25.846 25.846zm0-36.692c5.98 0 10.846 4.865 10.846 10.846 0 5.98-4.865 10.846-10.846 10.846-5.98 0-10.846-4.865-10.846-10.846.001-5.981 4.866-10.846 10.846-10.846z"/><path d="m334.02 257.072c14.251 0 25.846-11.595 25.846-25.846s-11.594-25.845-25.846-25.845c-14.251 0-25.845 11.594-25.845 25.845 0 14.252 11.594 25.846 25.845 25.846zm0-36.69c5.98 0 10.846 4.865 10.846 10.845s-4.865 10.846-10.846 10.846c-5.98 0-10.845-4.865-10.845-10.846 0-5.98 4.865-10.845 10.845-10.845z"/><path d="m334.02 171.58c14.251 0 25.846-11.595 25.846-25.846s-11.594-25.846-25.846-25.846c-14.251 0-25.845 11.595-25.845 25.846 0 14.252 11.594 25.846 25.845 25.846zm0-36.691c5.98 0 10.846 4.865 10.846 10.846 0 5.98-4.865 10.846-10.846 10.846-5.98 0-10.845-4.865-10.845-10.846s4.865-10.846 10.845-10.846z"/><path d="m209.575 220.382c4.142 0 7.5-3.358 7.5-7.5 0-4.142-3.358-7.5-7.5-7.5s-7.5 3.358-7.5 7.5c0 4.142 3.357 7.5 7.5 7.5z"/><path d="m252.83 226.348c4.476-6.189 4.476-14.506-.001-20.696-14.502-20.052-37.906-32.023-62.607-32.023-18.102 0-35.515 6.444-49.237 17.781-2.044-15.968-15.711-28.353-32.226-28.353h-11.177c-6.893 0-12.5 5.607-12.5 12.5v15.443c0 10.043 4.58 19.034 11.759 25-7.179 5.966-11.759 14.958-11.759 25v15.444c0 6.893 5.607 12.5 12.5 12.5h11.178c16.515 0 30.182-12.385 32.226-28.353 13.722 11.337 31.137 17.781 49.236 17.781 24.701 0 48.106-11.971 62.608-32.024zm-152.748-35.348v-12.944h8.678c9.649 0 17.5 7.851 17.5 17.5v12.944h-8.678c-9.649 0-17.5-7.85-17.5-17.5zm26.178 45.444c0 9.65-7.851 17.5-17.5 17.5h-8.678v-12.944c0-9.649 7.851-17.5 17.5-17.5h8.678zm15-16.953v-3.491-3.491c11.763-14.984 29.884-23.881 48.963-23.881 19.901 0 38.762 9.65 50.452 25.814.685.947.685 2.17.001 3.116-11.69 16.164-30.551 25.814-50.452 25.814-19.078 0-37.201-8.898-48.964-23.881z"/><path d="m489.478 167.737c-11.695-25.886-27.403-49.362-46.795-70.01h3.233c22.382 0 40.591-18.209 40.591-40.592 0-22.382-18.209-40.591-40.591-40.591h-238.337c-4.142 0-7.5 3.357-7.5 7.5s3.358 7.5 7.5 7.5h238.337c14.111 0 25.591 11.481 25.591 25.592s-11.48 25.591-25.591 25.591h-379.832c-14.111 0-25.591-11.48-25.591-25.592 0-14.11 11.48-25.591 25.591-25.591h108.809c4.142 0 7.5-3.357 7.5-7.5s-3.358-7.5-7.5-7.5h-108.809c-22.382 0-40.591 18.209-40.591 40.592 0 22.382 18.209 40.591 40.591 40.591h2.922c-19.486 20.796-35.228 44.47-46.893 70.603-14.673 32.872-22.113 67.935-22.113 104.215 0 86.056 42.873 165.866 114.686 213.491 9.291 6.162 20.197 9.419 31.541 9.419h219.535c11.369 0 22.35-3.304 31.756-9.555 72.175-47.966 114.97-128.281 114.478-214.844-.205-35.937-7.781-70.698-22.518-103.319zm-100.262 305.671c-6.938 4.61-15.048 7.047-23.454 7.047h-219.535c-8.385 0-16.424-2.393-23.25-6.919-20.674-13.711-38.796-30.259-54-48.938 19.538-8.565 42.412-15.664 68.157-21.139 4.052-.861 6.638-4.845 5.776-8.896s-4.848-6.634-8.896-5.775c-28.192 5.996-53.168 13.916-74.374 23.561-28.669-40.228-44.64-88.852-44.64-139.804 0-34.159 7.001-67.165 20.81-98.101 12.947-29.005 31.234-54.794 54.349-76.717h331.348c23.032 21.804 41.302 47.414 54.301 76.186 13.867 30.693 20.996 63.406 21.188 97.229.293 51.484-15.687 100.618-44.625 141.213-22.021-9.994-48.792-18.339-78.139-24.346v-21.17h14.515c6.097 0 12.061-1.092 17.726-3.245 3.871-1.472 5.817-5.804 4.346-9.676-1.472-3.872-5.805-5.816-9.676-4.346-3.956 1.504-8.126 2.267-12.395 2.267h-22.015c-4.142 0-7.5 3.357-7.5 7.5v66.248c0 5.514-4.486 10-10 10s-10-4.486-10-10v-66.248c0-4.143-3.358-7.5-7.5-7.5h-22.015c-19.299 0-35-15.701-35-35v-12.134c0-5.514 4.486-10 10-10s10 4.486 10 10v12.134c0 8.271 6.729 15 15 15h22.015c4.142 0 7.5-3.358 7.5-7.5v-27.895c0-5.514 4.486-10 10-10s10 4.486 10 10v27.895c0 4.142 3.358 7.5 7.5 7.5h22.015c8.271 0 15-6.729 15-15v-30.847c0-5.514 4.486-10 10-10s10 4.486 10 10v30.847c0 4.949-1.016 9.733-3.02 14.22-1.689 3.782.007 8.217 3.789 9.906 3.784 1.691 8.217-.008 9.907-3.789 2.869-6.424 4.324-13.266 4.324-20.337v-30.847c0-13.785-11.215-25-25-25s-25 11.215-25 25v30.847h-14.515v-20.395c0-13.785-11.215-25-25-25s-25 11.215-25 25v20.395h-14.515v-12.134c0-13.785-11.215-25-25-25s-25 11.215-25 25v12.134c0 27.57 22.43 50 50 50h14.515v13.439c-22.153-2.406-45.061-3.63-68.232-3.63-30.685 0-60.74 2.122-89.331 6.308-4.098.6-6.934 4.409-6.334 8.507.546 3.73 3.75 6.415 7.412 6.415.361 0 .727-.026 1.096-.08 27.874-4.08 57.198-6.15 87.158-6.15 23.2 0 46.113 1.262 68.232 3.728v30.211c0 13.785 11.215 25 25 25s25-11.215 25-25v-22.251c25.691 5.436 49.161 12.692 68.796 21.275-15.155 18.607-33.21 35.104-53.814 48.797z"/></g></svg>