<svg id="Capa_1" enable-background="new 0 0 512 512" height="512" viewBox="0 0 512 512" width="512" xmlns="http://www.w3.org/2000/svg"><g><path d="m334.861 343.571c1.465 1.464 3.385 2.196 5.304 2.196s3.839-.732 5.304-2.196l9.83-9.83c3.768 4.391 7.28 9.053 10.493 13.987 2.261 3.471 6.907 4.451 10.378 2.192 3.471-2.26 4.452-6.906 2.192-10.378-27.07-41.574-72.814-66.395-122.362-66.395-36.993 0-72.276 13.866-99.349 39.045-26.93 25.046-43.313 58.963-46.13 95.505-.374 4.853 1.308 9.683 4.614 13.253 3.302 3.566 7.983 5.612 12.842 5.612h256.047c4.859 0 9.54-2.046 12.842-5.612 3.306-3.57 4.987-8.4 4.613-13.253-.98-12.724-3.623-25.25-7.853-37.23-1.38-3.906-5.668-5.953-9.569-4.575-3.906 1.38-5.954 5.664-4.575 9.569 3.794 10.742 6.163 21.976 7.043 33.389.073.958-.385 1.607-.664 1.91-.278.3-.886.803-1.836.803h-71.35c-3.363-25.539-23.634-45.81-49.173-49.173v-29.382c0-4.143-3.357-7.5-7.5-7.5-4.142 0-7.5 3.357-7.5 7.5v29.382c-25.539 3.363-45.81 23.634-49.173 49.173h-71.35c-.95 0-1.558-.503-1.835-.803-.28-.303-.738-.952-.664-1.91 2.15-27.888 13.118-54.072 31.227-75.106l9.828 9.828c1.464 1.464 3.384 2.196 5.303 2.196 1.92 0 3.839-.732 5.303-2.196 2.929-2.93 2.929-7.678 0-10.607l-10.018-10.018c22.415-20.738 51.059-32.856 81.38-34.577v14.779c0 4.143 3.358 7.5 7.5 7.5 4.143 0 7.5-3.357 7.5-7.5v-14.778c30.654 1.737 59.287 14.066 81.4 34.556l-10.039 10.038c-2.931 2.929-2.931 7.677-.003 10.606zm-37.361 67.992h-34v-34c17.255 3.111 30.888 16.744 34 34zm-49-34v34h-34c3.112-17.256 16.745-30.889 34-34z"/><path d="m482.457 445.503h-3.169v-123.796c0-45.49-37.01-82.5-82.5-82.5h-100.137v-49.341h96.603c45.49 0 82.5-37.01 82.5-82.5v-40.869h6.703c16.29 0 29.543-13.253 29.543-29.544 0-16.29-13.253-29.543-29.543-29.543h-452.914c-16.29 0-29.543 13.253-29.543 29.543 0 16.291 13.253 29.544 29.543 29.544h6.703v40.869c0 45.49 37.009 82.5 82.5 82.5h96.603v49.341h-100.137c-45.491 0-82.5 37.01-82.5 82.5v46.172c0 4.143 3.358 7.5 7.5 7.5s7.5-3.357 7.5-7.5v-46.172c0-37.22 30.28-67.5 67.5-67.5h281.576c37.22 0 67.5 30.28 67.5 67.5v123.796h-416.576v-44.938c0-4.142-3.358-7.5-7.5-7.5s-7.5 3.358-7.5 7.5v44.938h-3.168c-16.291 0-29.544 13.253-29.544 29.544 0 16.29 13.253 29.543 29.543 29.543h452.914c16.29 0 29.543-13.253 29.543-29.543 0-16.291-13.253-29.544-29.543-29.544zm-467.457-408.55c0-8.018 6.524-14.543 14.543-14.543h452.914c8.02 0 14.543 6.524 14.543 14.543 0 8.02-6.523 14.544-14.543 14.544h-452.914c-8.019 0-14.543-6.524-14.543-14.544zm36.246 70.413v-40.869h409.508v40.869c0 37.22-30.28 67.5-67.5 67.5h-23.45v-35.623c0-17.921-14.579-32.5-32.5-32.5h-31.623c-4.143 0-7.5 3.357-7.5 7.5 0 4.142 3.357 7.5 7.5 7.5h31.623c9.649 0 17.5 7.851 17.5 17.5v35.623h-197.607v-35.623c0-9.649 7.851-17.5 17.5-17.5h98.111c4.143 0 7.5-3.358 7.5-7.5 0-4.143-3.357-7.5-7.5-7.5h-98.111c-17.92 0-32.5 14.579-32.5 32.5v35.623h-23.451c-37.22 0-67.5-30.28-67.5-67.5zm179.103 82.5h51.302v49.341h-51.302zm252.108 299.724h-452.914c-8.02 0-14.543-6.524-14.543-14.543 0-8.02 6.524-14.544 14.543-14.544h452.914c8.02 0 14.543 6.524 14.543 14.544 0 8.018-6.523 14.543-14.543 14.543z"/></g></svg>