<svg id="Capa_1" enable-background="new 0 0 511.921 511.921" height="512" viewBox="0 0 511.921 511.921" width="512" xmlns="http://www.w3.org/2000/svg"><g><path d="m359.864 306.643s0 0 .001-.001c5.214-5.213 8.085-12.146 8.085-19.518 0-7.373-2.871-14.306-8.085-19.52-10.765-10.763-28.276-10.762-39.039.001-10.762 10.763-10.762 28.275 0 39.038 5.214 5.214 12.147 8.085 19.52 8.085 7.372 0 14.305-2.871 19.518-8.085zm-28.432-28.432c2.458-2.457 5.685-3.686 8.913-3.686s6.456 1.228 8.912 3.686c2.381 2.381 3.692 5.546 3.692 8.912 0 3.367-1.311 6.532-3.691 8.912l-.001.001c-2.38 2.38-5.545 3.691-8.912 3.691-3.366 0-6.531-1.311-8.912-3.692-4.914-4.914-4.914-12.91-.001-17.824z"/><path d="m251.486 170.66c-7.373 0-14.306 2.871-19.52 8.086-10.762 10.763-10.762 28.274.001 39.038 5.382 5.381 12.45 8.071 19.519 8.071s14.138-2.69 19.52-8.071c10.763-10.764 10.763-28.275 0-39.038-5.215-5.215-12.146-8.086-19.52-8.086zm8.912 36.516c-4.913 4.915-12.909 4.914-17.824.001-4.914-4.915-4.914-12.911 0-17.825 2.381-2.381 5.546-3.692 8.912-3.692 3.367 0 6.532 1.311 8.912 3.692 4.915 4.914 4.915 12.91 0 17.824z"/><path d="m163.811 246.9c-5.214 5.214-8.085 12.146-8.085 19.52s2.871 14.306 8.085 19.518c5.214 5.215 12.145 8.086 19.52 8.086 7.373 0 14.306-2.871 19.519-8.085 10.762-10.763 10.762-28.275-.001-39.039-10.765-10.763-28.275-10.761-39.038 0zm28.431 10.606c4.914 4.915 4.914 12.911 0 17.825-2.381 2.381-5.546 3.692-8.912 3.692-3.367 0-6.532-1.311-8.913-3.692-2.38-2.38-3.691-5.545-3.691-8.912 0-3.366 1.311-6.531 3.692-8.912 2.457-2.458 5.684-3.686 8.912-3.686 3.228.001 6.455 1.229 8.912 3.685z"/><path d="m252.671 335.76c-5.215 5.214-8.086 12.146-8.086 19.52 0 7.373 2.871 14.306 8.086 19.52 5.381 5.381 12.45 8.071 19.519 8.071 7.068 0 14.138-2.69 19.518-8.071h.001c5.214-5.214 8.085-12.147 8.085-19.52 0-7.374-2.871-14.306-8.085-19.52-10.764-10.764-28.275-10.763-39.038 0zm28.432 10.608c2.38 2.38 3.691 5.545 3.691 8.912 0 3.366-1.312 6.531-3.691 8.912-4.916 4.914-12.913 4.914-17.825 0-2.381-2.381-3.692-5.546-3.692-8.912 0-3.367 1.312-6.532 3.692-8.912 2.457-2.458 5.685-3.687 8.912-3.687s6.455 1.23 8.913 3.687z"/><path d="m261.838 249.167c-7.374 0-14.306 2.871-19.519 8.085-10.763 10.764-10.763 28.275 0 39.039 5.382 5.382 12.449 8.071 19.519 8.071 7.067 0 14.138-2.691 19.519-8.071l.001-.001c10.762-10.763 10.762-28.274 0-39.038-5.214-5.214-12.147-8.085-19.52-8.085zm8.913 36.517c-4.916 4.914-12.913 4.914-17.825 0-4.915-4.914-4.915-12.91 0-17.825 2.38-2.38 5.545-3.691 8.912-3.691 3.366 0 6.531 1.312 8.912 3.691 4.914 4.915 4.914 12.911.001 17.825z"/><path d="m373.227 243.635c-2.929 2.93-2.929 7.678 0 10.607 1.465 1.464 3.385 2.196 5.304 2.196s3.839-.732 5.304-2.196l65.853-65.854c4.523-4.523 10.518-7.006 16.905-7.006.082 0 .165 0 .248.001 6.477.066 12.52 2.678 17.016 7.357 8.95 9.315 8.598 24.526-.785 33.908l-94.243 94.243c-2.929 2.93-2.929 7.678 0 10.607 1.465 1.464 3.385 2.196 5.304 2.196s3.839-.732 5.304-2.196l94.242-94.243c15.116-15.115 15.563-39.746.995-54.908-6.279-6.536-14.42-10.594-23.272-11.675l11.17-11.17c15.114-15.115 15.561-39.747.994-54.908-6.28-6.536-14.42-10.593-23.271-11.674l11.17-11.17c15.114-15.115 15.561-39.747.994-54.908-7.311-7.609-17.143-11.858-27.685-11.964-10.494-.092-20.453 3.942-27.908 11.396l-11.608 11.608c-1.093-8.953-5.226-17.169-11.886-23.475-15.153-14.344-39.701-13.798-54.72 1.221l-82.011 82.011c-2.929 2.93-2.929 7.678 0 10.607 2.93 2.928 7.678 2.928 10.607 0l82.011-82.011c9.327-9.33 24.491-9.747 33.8-.935 4.739 4.487 7.398 10.543 7.488 17.054.089 6.514-2.398 12.637-7.004 17.241l-99.177 99.177c-2.929 2.93-2.929 7.678 0 10.607 1.465 1.464 3.385 2.196 5.304 2.196s3.839-.732 5.304-2.196l132.499-132.495c4.58-4.58 10.643-7.066 17.151-7.004 6.478.065 12.522 2.677 17.018 7.357 8.949 9.315 8.597 24.527-.785 33.909l-132.06 132.06c-2.929 2.93-2.929 7.678 0 10.607 1.465 1.464 3.385 2.196 5.304 2.196s3.839-.732 5.304-2.196l99.176-99.176c4.523-4.524 10.519-7.006 16.906-7.006.082 0 .164 0 .247.001 6.478.064 12.521 2.678 17.016 7.356 8.949 9.315 8.597 24.527-.785 33.909z"/><path d="m57.638 319.092c-1.113-1.114-2.593-1.727-4.167-1.727-1.575 0-3.055.613-4.168 1.727l-25.968 25.968c-1.114 1.113-1.728 2.593-1.728 4.168 0 1.574.613 3.054 1.727 4.167l31.023 31.022c2.929 2.93 2.929 7.678 0 10.607-2.93 2.928-7.678 2.928-10.607 0l-31.022-31.022c-3.946-3.946-6.12-9.193-6.12-14.774 0-5.582 2.174-10.829 6.121-14.775l25.967-25.968c3.946-3.946 9.193-6.12 14.775-6.12 5.581 0 10.828 2.174 14.774 6.121l2.33 2.33 23.265-23.266c3.521-3.521 5.034-8.536 4.049-13.417l-30.037-148.707c-2.082-10.31 2.679-20.697 11.846-25.849 9.893-5.561 21.749-6.725 32.534-3.201 10.785 3.525 19.666 11.471 24.364 21.798l26.347 57.908c1.66 3.651 6.683 4.577 9.532 1.726l61.053-61.053c2.93-2.928 7.678-2.928 10.607 0 2.929 2.93 2.929 7.678 0 10.607l-61.053 61.053c-10.13 10.126-27.878 6.884-33.793-6.122l-26.347-57.907c-3.008-6.611-8.467-11.495-15.371-13.752-6.904-2.256-14.192-1.539-20.524 2.02-3.477 1.954-5.281 5.893-4.492 9.803l30.037 148.707c1.983 9.82-1.062 19.911-8.145 26.994l-23.265 23.265 117.028 117.026 23.533-23.533c6.858-6.858 16.654-9.957 26.213-8.291l27.499 4.796c10.057 1.756 20.355-1.508 27.566-8.721l62.693-62.693c2.93-2.928 7.678-2.928 10.607 0 2.929 2.93 2.929 7.678 0 10.607l-62.693 62.693c-10.662 10.661-25.897 15.479-40.75 12.891l-27.5-4.796c-4.754-.828-9.62.712-13.028 4.121l-23.533 23.533 1.237 1.237c8.145 8.148 8.145 21.403 0 29.55l-25.969 25.969c-4.073 4.072-9.424 6.109-14.774 6.109-5.351 0-10.701-2.036-14.774-6.109l-87.675-87.675c-2.929-2.93-2.929-7.678 0-10.608 2.931-2.929 7.679-2.927 10.607 0l87.674 87.675c2.296 2.298 6.037 2.3 8.335 0l25.969-25.969c2.299-2.298 2.298-6.037 0-8.336z"/></g></svg>