<svg id="Capa_1" enable-background="new 0 0 511.97 511.97" height="512" viewBox="0 0 511.97 511.97" width="512" xmlns="http://www.w3.org/2000/svg"><g><path d="m366.276 163.54c1.919 0 3.839-.732 5.304-2.196l86.972-86.972c2.929-2.93 2.929-7.678 0-10.607-2.93-2.928-7.678-2.928-10.607 0l-86.972 86.972c-2.929 2.93-2.929 7.678 0 10.607 1.464 1.464 3.384 2.196 5.303 2.196z"/><path d="m260.445 251.267c-2.929 2.929-2.929 7.678 0 10.607s7.678 2.929 10.607 0 2.929-7.678 0-10.607c-2.93-2.929-7.678-2.929-10.607 0z"/><path d="m58.854 474.07c2.929-2.929 2.929-7.678 0-10.606-2.929-2.929-7.678-2.929-10.607 0s-2.929 7.678 0 10.606c2.929 2.929 7.678 2.929 10.607 0z"/><path d="m187.294 324.416-71.027 71.027c-2.929 2.93-2.929 7.678 0 10.607 1.465 1.464 3.385 2.196 5.304 2.196s3.839-.732 5.304-2.196l71.027-71.027c2.929-2.93 2.929-7.678 0-10.607-2.93-2.927-7.678-2.927-10.608 0z"/><path d="m54.984 404.493c-2.929 2.93-2.929 7.678 0 10.607 1.465 1.464 3.385 2.196 5.304 2.196s3.839-.733 5.304-2.196l7.223-7.223c.631 10.464 4.925 20.745 12.902 28.723 7.978 7.977 18.259 12.271 28.723 12.902l-38.868 38.868c-11.476 11.477-30.149 11.476-41.625.001-11.477-11.478-11.477-30.15 0-41.626l8.532-8.532c2.929-2.93 2.929-7.678 0-10.607-2.93-2.928-7.678-2.928-10.607 0l-8.532 8.532c-17.324 17.324-17.324 45.514.001 62.84 8.662 8.662 20.041 12.993 31.419 12.993 11.379 0 22.758-4.331 31.42-12.993l109.991-109.991c2.929-2.93 2.929-7.678 0-10.607-2.93-2.928-7.678-2.928-10.607 0l-47.614 47.614c-11.475 11.477-30.15 11.477-41.625 0-11.477-11.476-11.477-30.15 0-41.625l85.043-85.043c11.478-11.455 30.136-11.452 41.606.019 11.477 11.476 11.477 30.15 0 41.625l-13.892 13.892c-2.929 2.93-2.929 7.678 0 10.608 2.93 2.928 7.678 2.928 10.607 0l76.269-76.269c15.516-15.516 17.124-39.742 4.846-57.079l35.342-35.343 16.576 16.576c5.263 5.261 13.82 5.259 19.081 0l109.53-109.53c27.053-27.054 27.053-71.072 0-98.126-7.597-7.596-19.955-7.596-27.554 0l-88.782 88.782c-2.929 2.93-2.929 7.678 0 10.607 2.93 2.928 7.678 2.928 10.608 0l88.782-88.782c.847-.847 1.972-1.313 3.169-1.313 1.198 0 2.323.467 3.17 1.313 21.205 21.204 21.205 55.707 0 76.911l-108.462 108.462-16.576-16.576c-5.263-5.261-13.82-5.259-19.081 0l-36.409 36.409c-6.893-4.882-14.87-7.568-22.962-8.055l85.258-85.258c2.929-2.93 2.929-7.678 0-10.607-2.93-2.928-7.678-2.928-10.607 0zm230.367-125.902-38.868 38.868c-.631-10.463-4.925-20.745-12.903-28.723-7.978-7.977-18.26-12.27-28.723-12.901l38.869-38.869c5.559-5.56 12.95-8.621 20.812-8.621s15.254 3.063 20.813 8.622c5.56 5.559 8.621 12.95 8.621 20.813 0 7.861-3.062 15.253-8.621 20.811z"/></g></svg>