<svg id="Capa_1" enable-background="new 0 0 511.943 511.943" height="512" viewBox="0 0 511.943 511.943" width="512" xmlns="http://www.w3.org/2000/svg"><g><path d="m198.155 303.095-31.823 31.823c-2.929 2.93-2.929 7.678 0 10.607 1.464 1.464 3.384 2.196 5.303 2.196s3.839-.732 5.303-2.196l31.823-31.823c2.929-2.93 2.929-7.678 0-10.607-2.928-2.927-7.677-2.927-10.606 0z"/><path d="m218.956 282.296c-2.929 2.929-2.929 7.677 0 10.606s7.678 2.929 10.607 0c2.929-2.929 2.929-7.678 0-10.606-2.93-2.93-7.678-2.929-10.607 0z"/><path d="m373.72 174.988c4.922-4.922 7.632-11.466 7.632-18.426s-2.711-13.504-7.632-18.425-11.465-7.632-18.425-7.632-13.503 2.711-18.424 7.632c-4.922 4.921-7.632 11.465-7.632 18.425s2.71 13.504 7.632 18.426c5.08 5.079 11.752 7.618 18.424 7.618 6.673 0 13.345-2.539 18.425-7.618zm-26.243-10.608c-2.088-2.088-3.238-4.864-3.238-7.818 0-2.953 1.15-5.729 3.238-7.817 2.156-2.156 4.987-3.233 7.818-3.233s5.663 1.077 7.818 3.233c2.088 2.088 3.238 4.864 3.238 7.817s-1.15 5.73-3.238 7.818c-4.311 4.31-11.325 4.311-15.636 0z"/><path d="m278.042 296.654c8.681 0 16.842-3.381 22.98-9.519l109.946-109.945c12.516-12.516 12.517-33.444 0-45.963l-30.338-30.338c-12.671-12.669-33.29-12.67-45.962 0l-51.91 51.91c-2.929 2.93-2.929 7.678 0 10.607 2.929 2.928 7.678 2.928 10.607 0l51.91-51.91c6.823-6.823 17.926-6.823 24.749 0l30.338 30.337c6.734 6.735 6.737 18.013 0 24.749l-109.946 109.946c-6.824 6.824-17.926 6.824-24.749 0l-30.338-30.337c-6.734-6.735-6.737-18.013 0-24.749l34.922-34.923c2.929-2.93 2.929-7.678 0-10.607-2.929-2.928-7.678-2.928-10.607 0l-34.922 34.923c-12.516 12.516-12.516 33.445 0 45.963l30.338 30.338c6.139 6.137 14.301 9.518 22.982 9.518z"/><path d="m10.959 447.487c-14.55 14.552-14.552 38.859 0 53.412 7.363 7.362 17.034 11.044 26.706 11.044s19.343-3.682 26.705-11.044l50.479-50.478c2.929-2.93 2.929-7.678 0-10.608-2.929-2.928-7.678-2.928-10.606 0l-17.374 17.375-32.199-32.198 55.094-55.094c6.286-6.286 11.232-14.018 14.306-22.36l28.998-78.723c2.328-6.318 6.075-12.176 10.837-16.938l156.546-156.546c2.929-2.93 2.929-7.678 0-10.607-2.929-2.928-7.678-2.928-10.606 0l-156.546 156.546c-6.287 6.287-11.233 14.02-14.306 22.36l-28.999 78.722c-2.328 6.32-6.076 12.178-10.837 16.939zm65.302 20.308-22.497 22.497c-8.877 8.877-23.321 8.877-32.198 0-8.774-8.773-8.78-23.418 0-32.197l22.497-22.498z"/><path d="m332.958 61.609c-2.929 2.93-2.929 7.678 0 10.608 2.929 2.928 7.678 2.928 10.607 0l17.215-17.217 96.077 96.077-196.874 196.876c-4.761 4.762-10.619 8.509-16.938 10.837l-78.723 28.998c-8.343 3.074-16.075 8.021-22.36 14.307l-14.527 14.526c-2.929 2.929-2.929 7.678-.001 10.606 1.465 1.465 3.384 2.197 5.304 2.197 1.919 0 3.839-.732 5.303-2.196l14.528-14.527c4.761-4.762 10.619-8.509 16.938-10.837l78.723-28.999c8.343-3.073 16.075-8.02 22.36-14.306l217.016-217.016c15.665-15.665 24.292-36.492 24.292-58.646s-8.627-42.981-24.292-58.646c-32.336-32.336-84.953-32.335-117.29 0zm144.041 69.327-9.535 9.535-96.077-96.078 9.534-9.534c26.488-26.49 69.588-26.491 96.078 0 12.832 12.831 19.898 29.892 19.898 48.039s-7.067 35.207-19.898 48.038z"/></g></svg>