<svg id="Capa_1" enable-background="new 0 0 512 512" height="512" viewBox="0 0 512 512" width="512" xmlns="http://www.w3.org/2000/svg"><g><path d="m256 239.665c4.142 0 7.5-3.358 7.5-7.5 0-4.142-3.358-7.5-7.5-7.5s-7.5 3.358-7.5 7.5c0 4.142 3.358 7.5 7.5 7.5z"/><path d="m488.165 232.166c0-73.886-35.959-144.273-95.626-187.834-3.345-2.442-8.037-1.71-10.48 1.636-2.442 3.345-1.71 8.037 1.635 10.479 7.11 5.19 13.967 10.877 20.466 16.951l-25.247 25.247c-30.645-28.233-70.996-46.073-115.413-47.887v-35.617c32.666 1.124 64.804 9.561 93.388 24.592 3.665 1.928 8.201.519 10.129-3.146 1.928-3.666.518-8.201-3.147-10.129-32.914-17.31-70.215-26.458-107.87-26.458-96.644 0-185.597 62.151-218.446 153.179-9.122 25.278-13.719 52.121-13.719 78.987 0 79.716 41.97 155.066 109.612 197.267l-28.184 48.817c-4.067 7.044-4.067 15.455 0 22.5 4.067 7.044 11.352 11.25 19.486 11.25h262.504c8.134 0 15.419-4.206 19.486-11.25s4.067-15.456 0-22.5l-28.184-48.817c67.64-42.2 109.61-117.552 109.61-197.267zm-73.403-148.156c36.008 38.521 56.484 87.955 58.261 140.655h-35.615c-1.815-44.417-19.655-84.767-47.887-115.412zm-102.963 259.801 20.894 36.19c-22.969 11.964-49.053 18.739-76.693 18.739s-53.725-6.775-76.693-18.739l59.252-102.627c5.492 2.116 11.379 3.236 17.441 3.236s11.949-1.12 17.441-3.236l22.015 38.131c1.389 2.406 3.91 3.751 6.502 3.751 1.272 0 2.562-.324 3.743-1.006 3.587-2.071 4.816-6.658 2.745-10.245l-22.021-38.142c1.326-1.074 2.607-2.218 3.831-3.442 3.515-3.515 6.417-7.478 8.666-11.756h122.128c-6.703 49.42-35.152 92.028-75.375 117.822l-20.886-36.176c-2.071-3.588-6.658-4.815-10.245-2.745-3.587 2.072-4.816 6.659-2.745 10.245zm-103.663-104.146h-118.523c-.111-2.488-.187-4.984-.187-7.499 0-2.506.062-5.007.173-7.501h118.537c-.38 2.46-.58 4.964-.58 7.5-.001 2.536.2 5.04.58 7.5zm4.943 15c2.249 4.278 5.151 8.241 8.666 11.756 1.224 1.224 2.505 2.368 3.831 3.442l-59.251 102.624c-40.222-25.795-68.672-68.402-75.374-117.822zm42.921-55.944c8.934 0 17.332 3.479 23.649 9.796 6.317 6.316 9.796 14.715 9.796 23.648 0 8.934-3.479 17.332-9.796 23.649s-14.716 9.797-23.649 9.797-17.332-3.48-23.649-9.797c-6.316-6.316-9.795-14.715-9.795-23.649s3.479-17.332 9.795-23.648c6.317-6.318 14.716-9.796 23.649-9.796zm166.574 33.445c0 2.515-.076 5.011-.187 7.499h-118.522c.38-2.46.58-4.964.58-7.5s-.2-5.04-.58-7.5h118.533c.11 2.488.176 4.987.176 7.501zm-1.525-22.501h-122.128c-2.249-4.278-5.151-8.241-8.666-11.756s-7.478-6.416-11.756-8.665v-122.128c73.885 10.021 132.528 68.665 142.55 142.549zm-157.549-143.897v118.533c-2.46-.38-4.964-.58-7.5-.58s-5.041.2-7.5.58v-118.52c2.492-.112 4.99-.19 7.5-.19 2.514 0 5.013.066 7.5.177zm-15-50.626v35.622c-43.386 1.797-84.145 19.116-115.41 47.885l-25.245-25.245c38.521-36.009 87.955-56.485 140.655-58.262zm-151.262 68.868 25.231 25.232c-9.716 10.544-18.276 22.318-25.405 35.183-2.008 3.624-.698 8.188 2.925 10.196 3.623 2.006 8.188.698 10.195-2.925 25.741-46.453 71.709-77.514 123.315-84.574v122.121c-4.278 2.249-8.241 5.151-11.756 8.665-3.515 3.515-6.417 7.478-8.666 11.756h-122.134c1.35-9.954 3.594-19.753 6.727-29.305 1.291-3.937-.853-8.173-4.789-9.464s-8.173.852-9.464 4.788c-5.191 15.826-8.154 32.27-8.836 48.98h-35.604c1.777-52.698 22.254-102.131 58.261-140.653zm-58.261 155.655h35.616c1.814 44.417 19.654 84.768 47.888 115.414l-25.243 25.241c-36.008-38.521-56.484-87.954-58.261-140.655zm68.868 151.262 25.242-25.242c9.765 8.996 20.511 16.94 32.065 23.644.027.016.052.036.08.052.014.008.029.013.044.021 24.677 14.294 53.012 22.937 83.225 24.171v35.615c-52.701-1.777-102.135-22.253-140.656-58.261zm285.902 94.823c1.954 3.385.651 6.372 0 7.5s-2.587 3.75-6.496 3.75h-262.503c-3.908 0-5.844-2.623-6.495-3.75-.651-1.128-1.954-4.115 0-7.5l28.166-48.786c33.307 17.877 70.714 27.366 109.581 27.366s76.274-9.489 109.58-27.366zm-130.247-36.562v-35.615c44.417-1.814 84.768-19.655 115.413-47.888l25.242 25.241c-38.521 36.009-87.954 56.485-140.655 58.262zm126.02-94.109c28.233-30.646 46.073-70.996 47.887-115.414h35.616c-1.777 52.701-22.253 102.134-58.261 140.655z"/></g></svg>