<svg id="Capa_1" enable-background="new 0 0 512 512" height="512" viewBox="0 0 512 512" width="512" xmlns="http://www.w3.org/2000/svg"><g><path d="m356.779 130.128c0-4.143-3.357-7.5-7.5-7.5h-114.867c-4.142 0-7.5 3.357-7.5 7.5s3.358 7.5 7.5 7.5h114.868c4.142 0 7.499-3.358 7.499-7.5z"/><path d="m67.627 466.723c0 18.884 15.363 34.246 34.246 34.246h68.198c18.884 0 34.247-15.362 34.247-34.246s-15.363-34.246-34.247-34.246h-16.404v-63.842h24.952c11.046 0 20.031-8.986 20.031-20.032v-58.354c0-11.046-8.986-20.032-20.031-20.032h-24.952v-29.501l166.25-15.217c4.125-.378 7.163-4.027 6.785-8.152s-4.02-7.167-8.152-6.785l-195.377 17.884c-27.647 2.64-55.285-6.55-75.835-25.228-20.551-18.68-32.338-45.32-32.338-73.09s11.787-54.411 32.337-73.089c20.551-18.678 48.189-27.875 75.866-25.225l282.214 25.833v144.96l-54.311 4.972c-4.125.378-7.163 4.027-6.785 8.152.356 3.893 3.626 6.817 7.46 6.817.228 0 .46-.011.692-.032l53.625-4.909c3.391 17.975 19.201 31.617 38.146 31.617h50.256c9.649 0 17.5-7.851 17.5-17.5v-203.193c0-9.649-7.851-17.5-17.5-17.5h-50.255c-18.945 0-34.754 13.642-38.146 31.616l-281.498-25.767c-31.843-3.05-63.681 7.545-87.353 29.059-23.671 21.514-37.248 52.201-37.248 84.189s13.577 62.674 37.248 84.188c9.079 8.251 19.36 14.892 30.379 19.777v59.698c0 4.143 3.358 7.5 7.5 7.5s7.5-3.357 7.5-7.5v-54.263c10.089 2.874 20.584 4.364 31.18 4.364 3.579 0 7.173-.17 10.763-.514l14.097-1.29v190.389h-56.04v-106c0-4.142-3.358-7.5-7.5-7.5s-7.5 3.358-7.5 7.5zm121.691 0c0 10.612-8.634 19.246-19.247 19.246h-68.198c-10.613 0-19.246-8.634-19.246-19.246v-19.246h87.444c10.613 0 19.247 8.633 19.247 19.246zm-10.699-181.507c2.775 0 5.031 2.258 5.031 5.032v58.354c0 2.775-2.257 5.032-5.031 5.032h-24.952v-68.419h24.952zm318.381-53.491c0 1.379-1.121 2.5-2.5 2.5h-50.255c-13.139 0-23.828-10.689-23.828-23.828v-.859c0-.002 0-.003 0-.005v-158.811c0-.002 0-.003 0-.005v-.858c0-13.139 10.689-23.828 23.828-23.828h50.255c1.379 0 2.5 1.121 2.5 2.5z"/><path d="m116.076 89.168c-2.929-2.928-7.678-2.928-10.606 0l-27.756 27.756c-2.929 2.93-2.929 7.678 0 10.607 1.464 1.464 3.384 2.196 5.303 2.196s3.839-.732 5.303-2.196l27.756-27.756c2.929-2.929 2.929-7.677 0-10.607z"/><path d="m104.794 151.506c1.92 0 3.839-.732 5.303-2.196l27.756-27.757c2.929-2.93 2.929-7.678 0-10.607-2.929-2.928-7.678-2.928-10.606 0l-27.756 27.757c-2.929 2.93-2.929 7.678 0 10.607 1.465 1.463 3.384 2.196 5.303 2.196z"/><path d="m126.572 173.284c1.919 0 3.839-.732 5.303-2.196l27.757-27.757c2.929-2.93 2.929-7.678 0-10.607-2.929-2.928-7.678-2.928-10.606 0l-27.757 27.757c-2.929 2.93-2.929 7.678 0 10.607 1.464 1.464 3.384 2.196 5.303 2.196z"/><path d="m154.241 64.525c-10.851-5.894-23.15-9.009-35.569-9.009-41.141 0-74.611 33.471-74.611 74.611 0 41.141 33.47 74.61 74.611 74.61s74.611-33.47 74.611-74.61c0-14.951-4.408-29.378-12.747-41.721-2.319-3.433-6.98-4.334-10.414-2.017-3.432 2.319-4.335 6.981-2.016 10.413 6.657 9.854 10.176 21.377 10.176 33.324 0 32.869-26.741 59.61-59.611 59.61s-59.611-26.741-59.611-59.61c0-32.87 26.741-59.611 59.611-59.611 9.925 0 19.749 2.486 28.41 7.19 3.64 1.977 8.194.628 10.17-3.011 1.978-3.638.63-8.191-3.01-10.169z"/></g></svg>