<svg id="Capa_1" enable-background="new 0 0 512.038 512.038" height="512" viewBox="0 0 512.038 512.038" width="512" xmlns="http://www.w3.org/2000/svg"><g><path d="m336.315 165.128c-2.929 2.929-2.929 7.678 0 10.607s7.678 2.929 10.607 0c2.929-2.929 2.929-7.678 0-10.607s-7.678-2.929-10.607 0z"/><path d="m401.51 121.146c2.929-2.929 2.929-7.678 0-10.607s-7.678-2.929-10.607 0c-2.929 2.929-2.929 7.678 0 10.607s7.678 2.929 10.607 0z"/><path d="m349.745 121.811c2.929-2.929 2.929-7.678 0-10.607s-7.678-2.929-10.607 0c-2.929 2.929-2.929 7.678 0 10.607 2.93 2.929 7.678 2.929 10.607 0z"/><path d="m390.239 172.911c2.929 2.929 7.678 2.929 10.607 0 2.929-2.929 2.929-7.678 0-10.606-2.929-2.929-7.678-2.929-10.607 0-2.929 2.928-2.929 7.677 0 10.606z"/><path d="m281.727 230.322c2.929 2.929 7.678 2.929 10.607 0s2.929-7.678 0-10.607-7.678-2.929-10.607 0c-2.929 2.93-2.929 7.678 0 10.607z"/><path d="m333.492 219.051c-2.929 2.929-2.929 7.677 0 10.606s7.678 2.929 10.607 0c2.929-2.929 2.929-7.678 0-10.607-2.929-2.928-7.678-2.928-10.607.001z"/><path d="m282.392 167.951c-2.929 2.929-2.929 7.677 0 10.606s7.678 2.929 10.606 0c2.929-2.929 2.929-7.678 0-10.606-2.928-2.929-7.677-2.929-10.606 0z"/><path d="m307.137 135.949c2.929-2.929 2.929-7.677 0-10.606s-7.678-2.929-10.606 0c-2.929 2.929-2.929 7.678 0 10.606 2.928 2.929 7.677 2.929 10.606 0z"/><path d="m376.101 204.913c-2.929 2.929-2.929 7.678 0 10.606 2.929 2.929 7.678 2.929 10.607 0 2.929-2.929 2.929-7.678 0-10.606-2.93-2.929-7.679-2.929-10.607 0z"/><path d="m272.445 123.629c2.717-3.127 2.383-7.864-.744-10.58-3.127-2.717-7.864-2.385-10.58.744-48.699 56.066-58.724 125.046-23.317 160.453 13.953 13.953 33.218 21.174 55.671 21.173 7.884-.001 16.167-.892 24.744-2.694 31.848-6.693 64.294-25.286 91.359-52.352 27.066-27.066 45.657-59.512 52.352-91.359 6.937-33.004.374-61.563-18.478-80.415-17.232-17.231-43.087-24.276-72.82-19.845-28.423 4.24-58.544 18.715-84.814 40.757-3.174 2.662-3.588 7.393-.925 10.565 2.663 3.175 7.392 3.589 10.565.925 49.347-41.402 108.41-50.774 137.387-21.795 15.149 15.149 20.266 38.845 14.406 66.722-6.102 29.033-23.248 58.808-48.279 83.838-25.03 25.032-54.805 42.178-83.838 48.279-27.879 5.861-51.572.743-66.722-14.406-14.049-14.049-19.523-35.82-15.414-61.304 4.251-26.362 18.26-54.314 39.447-78.706z"/><path d="m483.155 28.894c-25.774-25.773-64.97-34.71-110.367-25.173-44.242 9.299-89.354 35.166-127.024 72.837-56.982 56.982-85.946 130.742-73.788 187.911 1.694 7.964-1.24 16.154-7.658 21.376-.061.05-.122.101-.183.153l-89.367 77.563c-3.128 2.715-3.463 7.452-.748 10.58 1.483 1.709 3.569 2.584 5.667 2.584 1.743 0 3.493-.603 4.913-1.836l27.485-23.855 48.93 48.93-70.509 81.24c-.052.059-.104.121-.153.183-7.565 9.298-18.77 14.981-30.74 15.595-11.966.604-23.696-3.896-32.173-12.372s-12.985-20.202-12.372-32.173 6.297-23.175 15.595-30.74c.062-.05.123-.102.183-.153l29.373-25.493c3.128-2.715 3.463-7.452.748-10.58-2.717-3.129-7.455-3.464-10.58-.748l-29.287 25.419c-12.529 10.238-20.185 25.366-21.013 41.528-.83 16.203 5.273 32.075 16.745 43.548 10.781 10.78 25.447 16.82 40.622 16.82.974 0 1.949-.025 2.926-.075 16.161-.828 31.29-8.484 41.528-21.012l124.143-143.036c.053-.061.104-.121.153-.183 5.222-6.418 13.413-9.353 21.376-7.658 57.173 12.157 130.929-16.806 187.91-73.788 29.474-29.473 51.843-63.631 64.689-98.784 1.422-3.891-.579-8.196-4.47-9.618-3.894-1.423-8.196.579-9.618 4.47-12.103 33.115-33.268 65.387-61.208 93.326-26.751 26.752-57.657 47.401-89.375 59.717-30.526 11.854-59.852 15.315-84.808 10.006-13.457-2.86-27.258 2.028-36.053 12.767l-12.11 13.953-42.611-42.611 13.954-12.111c10.737-8.795 15.628-22.597 12.766-36.052-5.307-24.954-1.847-54.28 10.006-84.808 12.315-31.718 32.965-62.624 59.718-89.375 35.636-35.637 78.076-60.059 119.502-68.765 40.27-8.465 74.603-.972 96.675 21.101 21.214 21.213 29 54.063 21.925 92.497-.75 4.073 1.944 7.983 6.018 8.733 4.069.754 7.983-1.943 8.733-6.019 7.998-43.431-1.261-81.011-26.068-105.819zm-312.284 359.713-47.429-47.429 25.129-21.81 44.109 44.109z"/><path d="m57.072 444.74c-2.929 2.929-2.929 7.678 0 10.607s7.678 2.929 10.607 0c2.929-2.929 2.929-7.677 0-10.607-2.929-2.929-7.678-2.929-10.607 0z"/></g></svg>