<svg id="Capa_1" enable-background="new 0 0 512 512" height="512" viewBox="0 0 512 512" width="512" xmlns="http://www.w3.org/2000/svg"><g><path d="m225.89 96.396c-12.406 0-22.5 10.094-22.5 22.5v28.011h-50.24c-16.99 0-30.91 12.765-32.379 29.691l-17.042 196.422c-.358 4.127 2.696 7.763 6.823 8.12.221.02.44.028.657.028 3.849 0 7.124-2.945 7.463-6.852l17.042-196.422c.791-9.115 8.286-15.988 17.436-15.988h189.65c-1.734 4.327-2.698 9.043-2.698 13.982 0 20.799 16.922 37.72 37.721 37.72.522 0 1.04-.018 1.558-.04l1.6 18.447c.339 3.906 3.614 6.852 7.463 6.852.218 0 .437-.009.657-.028 4.126-.357 7.182-3.993 6.823-8.12l-1.806-20.816c12.663-6.091 21.424-19.048 21.424-34.014 0-20.799-16.921-37.72-37.72-37.72-9.162 0-17.568 3.286-24.111 8.737h-40.861v-28.011c0-12.406-10.094-22.5-22.5-22.5h-8.521v-38.018h17.303c4.143 0 7.5-3.357 7.5-7.5s-3.357-7.5-7.5-7.5h-68.674c-7.823 0-14.188-6.365-14.188-14.188s6.365-14.188 14.188-14.188h121.013v28.377h-19.652c-4.143 0-7.5 3.357-7.5 7.5s3.357 7.5 7.5 7.5h22.152c6.893 0 12.5-5.607 12.5-12.5v-33.378c0-6.893-5.607-12.5-12.5-12.5h-123.513c-16.095 0-29.188 13.094-29.188 29.188s13.094 29.188 29.188 29.188h3.953v38.019h-8.521zm174.652 79.493c0 12.527-10.192 22.72-22.72 22.72s-22.721-10.192-22.721-22.72c0-12.527 10.192-22.72 22.721-22.72 12.528 0 22.72 10.192 22.72 22.72zm-102.691-56.993v28.011h-79.461v-28.011c0-4.136 3.364-7.5 7.5-7.5h64.461c4.135 0 7.5 3.364 7.5 7.5zm-48.44-60.519h17.418v38.019h-17.418z"/><path d="m116.893 144.446c14.8 0 26.841-12.04 26.841-26.84s-12.041-26.841-26.841-26.841-26.84 12.041-26.84 26.841 12.04 26.84 26.84 26.84zm0-38.68c6.529 0 11.841 5.312 11.841 11.841 0 6.528-5.312 11.84-11.841 11.84-6.528 0-11.84-5.312-11.84-11.84 0-6.53 5.311-11.841 11.84-11.841z"/><path d="m256 215.554c-62.805 0-113.899 51.095-113.899 113.899s51.094 113.9 113.899 113.9 113.899-51.095 113.899-113.899-51.094-113.9-113.899-113.9zm0 212.799c-54.533 0-98.899-44.366-98.899-98.899s44.366-98.899 98.899-98.899 98.899 44.366 98.899 98.899-44.366 98.899-98.899 98.899z"/><path d="m207.95 314.027-3.982-14.86c-1.783-6.654-8.622-10.602-15.276-8.82-6.654 1.783-10.602 8.622-8.82 15.276l3.982 14.86c1.783 6.654 8.622 10.603 15.276 8.82s10.602-8.622 8.82-15.276z"/><path d="m308.032 299.167-3.982 14.86c-1.783 6.654 2.166 13.493 8.82 15.276s13.493-2.166 15.276-8.82l3.982-14.86c1.783-6.654-2.166-13.493-8.82-15.276-6.654-1.782-13.493 2.166-15.276 8.82z"/><path d="m231.7 298.435c6.889 0 12.473-5.584 12.473-12.473v-15.384c0-6.889-5.584-12.473-12.473-12.473s-12.473 5.584-12.473 12.473v15.384c0 6.889 5.584 12.473 12.473 12.473z"/><path d="m280.3 298.435c6.889 0 12.473-5.584 12.473-12.473v-15.384c0-6.889-5.584-12.473-12.473-12.473s-12.473 5.584-12.473 12.473v15.384c0 6.889 5.584 12.473 12.473 12.473z"/><path d="m291.461 333.805c-.406-.154-.747-.476-.959-.903-6.555-13.202-19.775-21.403-34.502-21.403s-27.947 8.201-34.502 21.403c-.212.428-.553.749-.959.903-15.219 5.805-25.177 20.652-24.778 36.945.487 19.941 16.458 36.41 36.358 37.493.708.038 1.415.058 2.121.058 6.335 0 12.562-1.548 18.128-4.52 2.241-1.197 5.024-1.195 7.266 0 6.185 3.302 13.186 4.841 20.245 4.462 19.9-1.082 35.872-17.55 36.36-37.49.399-16.295-9.559-31.144-24.778-36.948zm-12.396 59.46c-4.322.229-8.599-.704-12.366-2.716-6.698-3.576-14.696-3.578-21.396.001-3.768 2.012-8.035 2.954-12.367 2.715-12.139-.66-21.881-10.711-22.178-22.881-.244-9.952 5.836-19.02 15.127-22.563 3.94-1.502 7.154-4.432 9.05-8.249 4.003-8.063 12.075-13.073 21.066-13.073s17.064 5.01 21.066 13.073c1.896 3.817 5.108 6.746 9.049 8.249 9.292 3.544 15.372 12.612 15.128 22.565-.299 12.17-10.041 22.219-22.179 22.879z"/><path d="m398.75 263.287c-.358-4.128-3.986-7.177-8.12-6.823-4.127.357-7.182 3.993-6.823 8.12l19.458 224.267c.184 2.12-.507 4.15-1.945 5.719-1.438 1.567-3.4 2.431-5.527 2.431h-279.585c-2.127 0-4.09-.863-5.527-2.431-1.438-1.568-2.129-3.599-1.945-5.718l7.112-81.969c.358-4.127-2.696-7.763-6.823-8.12-4.124-.363-7.762 2.696-8.12 6.823l-7.112 81.97c-.544 6.266 1.583 12.517 5.833 17.151 4.25 4.635 10.295 7.293 16.583 7.293h279.584c6.288 0 12.333-2.658 16.583-7.293s6.377-10.886 5.833-17.152z"/><path d="m395.107 116.034c14.8 0 26.84-12.041 26.84-26.841s-12.04-26.841-26.84-26.841-26.841 12.041-26.841 26.841 12.042 26.841 26.841 26.841zm0-38.681c6.528 0 11.84 5.312 11.84 11.841s-5.312 11.841-11.84 11.841c-6.529 0-11.841-5.312-11.841-11.841.001-6.53 5.312-11.841 11.841-11.841z"/></g></svg>