<svg id="Capa_1" enable-background="new 0 0 512 512" height="512" viewBox="0 0 512 512" width="512" xmlns="http://www.w3.org/2000/svg"><g><path d="m219.315 358.099-2.833-10.574c-1.269-4.735-6.136-7.545-10.871-6.276s-7.545 6.136-6.276 10.871l2.833 10.574c1.269 4.735 6.136 7.545 10.871 6.276s7.545-6.136 6.276-10.871z"/><path d="m304.849 362.693 2.833-10.574c1.269-4.735-1.541-9.602-6.276-10.871s-9.602 1.541-10.871 6.276l-2.833 10.574c-1.269 4.735 1.541 9.602 6.276 10.871s9.602-1.541 10.871-6.276z"/><path d="m245.092 338.128v-10.947c0-4.902-3.974-8.876-8.876-8.876s-8.876 3.974-8.876 8.876v10.947c0 4.902 3.974 8.876 8.876 8.876s8.876-3.974 8.876-8.876z"/><path d="m279.677 338.128v-10.947c0-4.902-3.974-8.876-8.876-8.876s-8.876 3.974-8.876 8.876v10.947c0 4.902 3.974 8.876 8.876 8.876s8.876-3.974 8.876-8.876z"/><path d="m236.396 427.304c5.418.288 10.795-.89 15.546-3.427.966-.518 2.166-.517 3.132-.001 4.274 2.283 9.055 3.472 13.917 3.472.542 0 1.085-.015 1.628-.044 15.28-.831 27.544-13.475 27.919-28.785.303-12.389-7.191-23.688-18.683-28.233-5.079-9.97-15.145-16.148-26.347-16.148-11.201 0-21.267 6.179-26.347 16.148-11.491 4.547-18.984 15.845-18.682 28.232.375 15.31 12.638 27.955 27.917 28.786zm-3.547-43.136c3.313-1.265 6.015-3.726 7.605-6.93 2.481-4.997 7.483-8.102 13.054-8.102s10.573 3.105 13.054 8.102c1.591 3.204 4.292 5.665 7.606 6.93h.001c5.757 2.195 9.524 7.814 9.374 13.983-.185 7.539-6.219 13.766-13.739 14.174-2.683.158-5.33-.436-7.663-1.681-2.703-1.442-5.667-2.164-8.631-2.164-2.965 0-5.93.722-8.632 2.165-2.332 1.245-4.979 1.827-7.665 1.68-7.518-.408-13.553-6.635-13.737-14.175-.152-6.168 3.615-11.787 9.373-13.982z"/><path d="m317.022 422.53c3.476 2.252 8.12 1.26 10.372-2.215 9.223-14.232 14.098-30.758 14.098-47.789 0-48.515-39.47-87.983-87.984-87.983s-87.984 39.469-87.984 87.983c0 48.515 39.469 87.984 87.984 87.984 17.505 0 34.417-5.13 48.906-14.834 3.441-2.306 4.363-6.964 2.058-10.405-2.306-3.442-6.964-4.363-10.405-2.058-12.01 8.045-26.035 12.297-40.558 12.297-40.244 0-72.984-32.74-72.984-72.984 0-40.243 32.74-72.983 72.984-72.983s72.984 32.74 72.984 72.983c0 14.13-4.041 27.834-11.686 39.631-2.253 3.477-1.261 8.12 2.215 10.373z"/><path d="m369.354 309.904c4.142 0 7.5-3.357 7.5-7.5v-17.65c0-27.55-22.414-49.964-49.964-49.964-19.279 0-34.964-15.684-34.964-34.964v-29.259c0-9.626-7.832-17.458-17.458-17.458h-1.286c.114-.805.194-1.622.194-2.458v-24.283c0-9.626-7.832-17.458-17.458-17.458h-10.857l10.941-48.188c.775-3.409 3.757-5.791 7.253-5.791h51.236c6.881 0 12.479-5.598 12.479-12.479v-29.973c0-6.88-5.598-12.479-12.479-12.479h-128.941c-17.863 0-32.395 14.532-32.395 32.396v10.058c0 6.881 5.598 12.479 12.479 12.479h7.882c4.101 0 7.438 3.337 7.438 7.438v5.134c0 4.143 3.358 7.5 7.5 7.5s7.5-3.357 7.5-7.5v-5.134c0-12.372-10.065-22.438-22.438-22.438h-5.361v-7.536c0-9.592 7.803-17.396 17.395-17.396h92.433v24.932h-14.728c-10.546 0-19.544 7.184-21.88 17.469l-11.696 51.51h-33.725v-8.858c0-4.143-3.358-7.5-7.5-7.5s-7.5 3.357-7.5 7.5v8.858h-10.877c-9.626 0-17.458 7.832-17.458 17.458v24.283c0 .836.079 1.653.194 2.458h-.207c-9.627 0-17.459 7.832-17.459 17.458v318.995c0 12.372 10.065 22.438 22.438 22.438h196.834c12.372 0 22.438-10.065 22.438-22.438v-154.473c0-4.143-3.358-7.5-7.5-7.5s-7.5 3.357-7.5 7.5v154.472c0 4.101-3.336 7.438-7.438 7.438h-196.836c-4.101 0-7.438-3.337-7.438-7.438v-318.996c0-1.355 1.103-2.458 2.459-2.458h121.864c1.355 0 2.458 1.102 2.458 2.458v29.259c0 27.55 22.414 49.964 49.964 49.964 19.279 0 34.964 15.685 34.964 34.964v17.65c0 4.143 3.358 7.5 7.5 7.5zm-76.371-294.904h18.987v24.932h-18.987zm-37.065 108.91c1.355 0 2.458 1.103 2.458 2.458v24.283c0 1.355-1.103 2.458-2.458 2.458h-85.842c-1.355 0-2.458-1.103-2.458-2.458v-24.283c0-1.355 1.102-2.458 2.458-2.458z"/></g></svg>