<svg id="Capa_1" enable-background="new 0 0 514.092 514.092" height="512" viewBox="0 0 514.092 514.092" width="512" xmlns="http://www.w3.org/2000/svg"><path d="m306.679 126.591h-19.15v-27.533c8.079-1.546 14.207-8.656 14.207-17.179v-64.379c0-9.649-7.851-17.5-17.5-17.5h-7.846c-4.142 0-7.5 3.357-7.5 7.5s3.358 7.5 7.5 7.5h7.846c1.378 0 2.5 1.121 2.5 2.5v24.689h-29.69c-4.142 0-7.5 3.357-7.5 7.5s3.358 7.5 7.5 7.5h29.69v24.689c0 1.379-1.122 2.5-2.5 2.5h-54.379c-1.378 0-2.5-1.121-2.5-2.5v-64.378c0-1.379 1.122-2.5 2.5-2.5h13.846c4.142 0 7.5-3.357 7.5-7.5s-3.358-7.5-7.5-7.5h-13.846c-9.649 0-17.5 7.851-17.5 17.5v64.379c0 8.523 6.128 15.633 14.207 17.179v27.533h-19.15c-31.706 0-57.5 25.794-57.5 57.5v86.937c0 4.143 3.358 7.5 7.5 7.5s7.5-3.357 7.5-7.5v-34.316h115.276l-12.569 45.409c-3.234-1.441-6.81-2.249-10.573-2.249-14.375 0-26.07 11.695-26.07 26.07 0 2.497.36 4.965 1.06 7.337-1.395 1.189-2.687 2.479-3.891 3.842h-5.281c-4.616 0-8.372-3.756-8.372-8.372 0-4.142-3.358-7.5-7.5-7.5s-7.5 3.358-7.5 7.5c0 11.904 8.946 21.75 20.467 23.185-.318 1.084-.584 2.185-.806 3.297h-18.379c-4.142 0-7.5 3.357-7.5 7.5 0 4.142 3.358 7.5 7.5 7.5h18.359c.221 1.119.495 2.218.81 3.3-11.513 1.443-20.451 11.285-20.451 23.183 0 4.143 3.358 7.5 7.5 7.5s7.5-3.357 7.5-7.5c0-4.616 3.755-8.372 8.372-8.372h5.27c3.582 4.039 7.994 7.321 12.968 9.583l-16.761 60.552h-59.427v-134.763c0-4.143-3.358-7.5-7.5-7.5s-7.5 3.357-7.5 7.5v192.878c0 9.649 7.851 17.5 17.5 17.5h179.267c9.649 0 17.5-7.851 17.5-17.5v-312.501c-.004-31.706-25.798-57.5-57.504-57.5zm-65.116-27.212h30.966v27.212h-30.966zm-76.65 84.712c0-23.435 19.065-42.5 42.5-42.5h99.267c23.435 0 42.5 19.065 42.5 42.5v37.62h-184.267zm115.784 158.639c0 12.071-9.093 22.053-20.788 23.472l11.66-42.126c5.695 4.45 9.128 11.347 9.128 18.654zm-47.302 0c0-8.365 4.498-16.193 11.738-20.428 1.755-1.026 3.018-2.721 3.499-4.696.482-1.976.141-4.062-.944-5.78-1.121-1.775-1.713-3.811-1.713-5.885 0-6.104 4.966-11.07 11.07-11.07 2.413 0 4.641.785 6.462 2.101l-18.326 66.206c-7.04-4.101-11.786-11.728-11.786-20.448zm53.165 110.748c4.142 0 7.5-3.357 7.5-7.5s-3.358-7.5-7.5-7.5h-46.656l15.813-57.129c.442.015.883.034 1.329.034 11.495 0 21.827-5.049 28.913-13.04h5.27c4.616 0 8.372 3.756 8.372 8.372 0 4.143 3.358 7.5 7.5 7.5s7.5-3.357 7.5-7.5c0-11.898-8.938-21.74-20.451-23.183.315-1.082.589-2.181.81-3.3h18.359c4.142 0 7.5-3.358 7.5-7.5 0-4.143-3.358-7.5-7.5-7.5h-18.379c-.222-1.113-.488-2.213-.806-3.297 11.52-1.436 20.467-11.282 20.467-23.185 0-4.142-3.358-7.5-7.5-7.5s-7.5 3.358-7.5 7.5c0 4.616-3.755 8.372-8.372 8.372h-5.281c-1.204-1.363-2.497-2.653-3.891-3.842.7-2.372 1.06-4.84 1.06-7.337 0-4.461-1.128-8.664-3.112-12.339l15.747-56.891h53.427v201.767h-29.933c-4.142 0-7.5 3.357-7.5 7.5s3.358 7.5 7.5 7.5h29.933v43.114c0 1.379-1.122 2.5-2.5 2.5h-179.266c-1.378 0-2.5-1.121-2.5-2.5v-43.114h121.647z"/></svg>