<svg id="Capa_1" enable-background="new 0 0 512 512" height="512" viewBox="0 0 512 512" width="512" xmlns="http://www.w3.org/2000/svg"><g><path d="m416.605 86.207c14.146 0 25.656-11.51 25.656-25.656s-11.51-25.656-25.656-25.656c-14.147 0-25.656 11.51-25.656 25.656s11.509 25.656 25.656 25.656zm0-36.312c5.876 0 10.656 4.78 10.656 10.656s-4.78 10.656-10.656 10.656-10.656-4.78-10.656-10.656 4.78-10.656 10.656-10.656z"/><path d="m512 208.502c0-21.583-12.564-40.785-31.829-49.551.016-.459.035-.918.035-1.38 0-22.176-18.042-40.217-40.218-40.217-16.27 0-30.304 9.717-36.63 23.647l-15.195-9.693c5.624-11.959 3.604-26.647-6.057-36.307-12.09-12.092-32.05-12.221-44.681-.371l-6.18-6.179c-6.249-6.25-14.558-9.691-23.395-9.691s-17.146 3.441-23.396 9.69l-17.101 17.101c-2.929 2.93-2.929 7.678 0 10.607 1.465 1.464 3.385 2.196 5.304 2.196s3.839-.732 5.304-2.196l17.101-17.101c3.416-3.417 7.957-5.298 12.788-5.298 4.83 0 9.372 1.881 12.787 5.298l5.96 5.96-143.336 137.682-3.133-3.133c-3.416-3.415-5.297-7.957-5.297-12.788 0-4.83 1.881-9.372 5.297-12.787l74.18-74.18c2.929-2.93 2.929-7.678 0-10.607-2.929-2.927-7.678-2.929-10.606 0l-74.18 74.18c-6.249 6.249-9.69 14.558-9.69 23.395 0 8.838 3.441 17.146 9.69 23.396l2.919 2.919-82.339 79.091c-2.987 2.87-3.083 7.617-.213 10.604 2.869 2.988 7.618 3.084 10.604.214l59.956-57.59 31.248 31.247-131.71 137.115c-5.089 5.298-11.887 8.256-19.141 8.329-6.957.08-13.518-2.576-18.393-7.451-4.875-4.876-7.522-11.408-7.452-18.394.073-7.254 3.031-14.052 8.329-19.142l53.014-50.922c2.987-2.869 3.083-7.617.214-10.605-2.871-2.987-7.617-3.083-10.604-.214l-53.014 50.924c-8.229 7.905-12.824 18.491-12.937 29.809-.111 11.049 4.096 21.401 11.845 29.151 7.649 7.648 17.835 11.846 28.724 11.846.142 0 .285 0 .427-.002 11.317-.114 21.903-4.708 29.808-12.938l145.287-151.254 26.63 41.749c-4.281 7.894-6.53 16.713-6.53 25.801 0 29.899 24.326 54.225 54.225 54.225 21.973 0 41.528-13.25 49.918-33.022 3.83.848 7.747 1.274 11.712 1.274 28.719 0 52.295-22.442 54.112-50.71 3.765.696 7.597 1.047 11.469 1.047 11.061 0 21.941-2.916 31.466-8.432 3.584-2.076 4.808-6.665 2.731-10.249-2.076-3.584-6.663-4.809-10.249-2.731-7.243 4.195-15.524 6.412-23.948 6.412-5.734 0-11.349-1.008-16.688-2.995-2.475-.92-5.247-.473-7.307 1.177-2.059 1.65-3.099 4.261-2.739 6.874.251 1.825.378 3.637.378 5.383 0 21.629-17.596 39.225-39.225 39.225-4.746 0-9.395-.845-13.819-2.511-1.986-.749-4.194-.619-6.08.352-1.885.973-3.272 2.697-3.814 4.748-4.545 17.169-20.137 29.159-37.917 29.159-21.629 0-39.225-17.596-39.225-39.225 0-3.526.491-6.989 1.4-10.328l12.018 18.841c2.906 4.557 7.655 7.506 13.027 8.092.652.071 1.304.107 1.951.107 4.68 0 9.156-1.839 12.513-5.195l90.465-90.465c.003-.003.007-.006.01-.009s.006-.007.009-.01l90.465-90.465c3.821-3.821 5.676-9.095 5.088-14.467-.57-5.214-3.38-9.826-7.711-12.75 2.537-2.939 4.656-6.246 6.265-9.832 12.39 6.849 20.308 19.934 20.308 34.522 0 20.799-16.247 38.096-36.988 39.377-2.81.173-5.285 1.905-6.411 4.486-1.126 2.58-.712 5.573 1.071 7.751 6.976 8.517 10.816 19.276 10.816 30.299 0 7.034-1.488 13.807-4.425 20.13-1.744 3.757-.112 8.216 3.645 9.961 1.022.475 2.096.699 3.153.699 2.829 0 5.537-1.608 6.808-4.344 3.861-8.316 5.819-17.214 5.819-26.446 0-10.397-2.603-20.618-7.464-29.697 22.612-6.709 38.974-27.7 38.974-52.218zm-72.012-76.148c13.905 0 25.218 11.313 25.218 25.217 0 1.415-.123 2.802-.348 4.154-.133.457-.225.917-.27 1.376-2.528 11.253-12.594 19.688-24.6 19.688-13.904 0-25.217-11.313-25.217-25.218.001-13.905 11.313-25.217 25.217-25.217zm-268.72 142.663 176.261-169.308c6.77-6.503 17.522-6.549 23.97-.102 6.447 6.446 6.401 17.198-.103 23.969l-169.307 176.261zm55.516 26.764 152.25-158.503 20.764 13.244c-.009.35-.027.697-.027 1.048 0 22.176 18.041 40.218 40.217 40.218 6.427 0 12.502-1.524 17.896-4.216l4.095 2.612c.962.613 1.194 1.521 1.247 2.008.054.486.022 1.424-.784 2.229l-36.106 36.106-23.996-23.996c-2.93-2.928-7.678-2.928-10.607 0-2.929 2.93-2.929 7.678 0 10.607l23.996 23.996-38.457 38.457-23.995-23.995c-2.93-2.928-7.678-2.928-10.608 0-2.929 2.93-2.929 7.678 0 10.607l23.995 23.995-38.458 38.458-23.994-23.995c-2.93-2.93-7.679-2.929-10.606-.001-2.93 2.93-2.93 7.678-.001 10.607l23.995 23.996-36.107 36.106c-.805.806-1.735.838-2.229.784-.486-.053-1.395-.286-2.008-1.247z"/></g></svg>