<svg id="Capa_1" enable-background="new 0 0 512 512" height="512" viewBox="0 0 512 512" width="512" xmlns="http://www.w3.org/2000/svg"><g><path d="m161.122 402.409c-4.143 0-7.5 3.357-7.5 7.5s3.357 7.5 7.5 7.5h189.583c4.143 0 7.5-3.357 7.5-7.5s-3.357-7.5-7.5-7.5z"/><path d="m170.361 258.278v15.443c0 6.893 5.607 12.5 12.5 12.5h11.179c16.515 0 30.182-12.384 32.226-28.352 13.721 11.337 31.136 17.781 49.236 17.781 24.7 0 48.104-11.972 62.608-32.024 4.476-6.191 4.475-14.509-.002-20.695-14.502-20.054-37.906-32.025-62.606-32.025-18.102 0-35.515 6.444-49.236 17.781-2.044-15.968-15.711-28.352-32.226-28.352h-11.179c-6.893 0-12.5 5.607-12.5 12.5v15.444c0 10.042 4.58 19.034 11.759 25-7.179 5.966-11.759 14.957-11.759 24.999zm105.141-52.373c19.901 0 38.762 9.65 50.453 25.816.684.945.684 2.169 0 3.114-11.69 16.164-30.552 25.814-50.453 25.814-19.076 0-37.199-8.898-48.962-23.882v-3.49-3.491c11.764-14.983 29.884-23.881 48.962-23.881zm-90.141 2.373v-12.944h8.679c9.649 0 17.5 7.851 17.5 17.5v12.944h-8.679c-9.649 0-17.5-7.85-17.5-17.5zm26.179 32.5v12.943c0 9.649-7.851 17.5-17.5 17.5h-8.679v-12.943c0-9.649 7.85-17.5 17.5-17.5z"/><path d="m294.854 237.659c4.142 0 7.5-3.358 7.5-7.5 0-4.142-3.358-7.5-7.5-7.5s-7.5 3.358-7.5 7.5c0 4.142 3.358 7.5 7.5 7.5z"/><path d="m378.489 214.933c.617 4.096 4.442 6.925 8.533 6.299 4.096-.616 6.916-4.436 6.299-8.532-4.901-32.557-21.364-62.433-46.355-84.125-25.245-21.915-57.582-33.983-91.053-33.983-76.625 0-138.964 62.339-138.964 138.964s62.339 138.964 138.964 138.964c34.732 0 67.98-12.881 93.622-36.27 25.47-23.231 41.337-54.846 44.678-89.018.402-4.122-2.612-7.791-6.735-8.194-4.128-.393-7.791 2.612-8.194 6.735-2.978 30.472-17.134 58.668-39.856 79.394-22.872 20.862-52.531 32.352-83.514 32.352-68.354 0-123.964-55.61-123.964-123.964s55.61-123.964 123.964-123.964c29.858 0 58.702 10.765 81.221 30.311 22.296 19.355 36.983 46 41.354 75.031z"/><path d="m428.245 464.369.335-1.392c16.244-67.38 24.519-136.687 24.594-205.997.077-70.519-8.505-140.785-24.931-209.342l6.461-25.904c1.313-5.264.149-10.734-3.19-15.009-3.341-4.274-8.367-6.725-13.791-6.725h-323.618c-5.425 0-10.451 2.451-13.79 6.726-3.34 4.274-4.503 9.745-3.19 15.009l6.458 25.899c-4.931 20.323-9.192 41.048-12.66 61.639-.688 4.084 2.065 7.953 6.15 8.641.421.071.841.105 1.254.105 3.595 0 6.771-2.593 7.387-6.256 3.186-18.916 7.054-37.947 11.503-56.663h317.38c15.715 66.055 23.651 133.966 23.577 201.865-.074 67.255-8.016 134.504-23.579 199.936h-68.285c-4.143 0-7.5 3.357-7.5 7.5s3.357 7.5 7.5 7.5h8.171v7.55c0 4.143 3.357 7.5 7.5 7.5s7.5-3.357 7.5-7.5v-7.55h45.182l5.485 21.994c.257 1.029-.176 1.785-.456 2.145-.28.358-.909.961-1.97.961h-323.617c-1.062 0-1.689-.602-1.97-.961-.281-.358-.713-1.114-.456-2.145l5.484-21.994h45.182v7.55c0 4.143 3.357 7.5 7.5 7.5s7.5-3.357 7.5-7.5v-7.55h55.713v7.55c0 4.143 3.357 7.5 7.5 7.5s7.5-3.357 7.5-7.5v-7.55h55.712v7.55c0 4.143 3.357 7.5 7.5 7.5 4.142 0 7.5-3.357 7.5-7.5v-7.55h14.854c4.142 0 7.5-3.357 7.5-7.5s-3.358-7.5-7.5-7.5h-216.379l-.548-2.33c-24.057-102.34-29.338-207.084-15.693-311.322.538-4.107-2.356-7.873-6.463-8.41-4.11-.538-7.873 2.355-8.41 6.463-14.142 108.036-7.45 217.098 17.456 323.045l-6.463 25.918c-1.313 5.264-.149 10.734 3.19 15.009 3.339 4.274 8.365 6.726 13.79 6.726h323.618c5.424 0 10.45-2.451 13.79-6.726 3.34-4.274 4.503-9.745 3.19-15.009zm-336.11-448.408c.28-.359.908-.961 1.97-.961h323.618c1.06 0 1.689.602 1.97.961.28.359.713 1.115.456 2.145l-5.486 21.994h-45.182v-7.55c0-4.143-3.357-7.5-7.5-7.5s-7.5 3.357-7.5 7.5v7.55h-55.711v-7.55c0-4.143-3.358-7.5-7.5-7.5-4.143 0-7.5 3.357-7.5 7.5v7.55h-55.712v-7.55c0-4.143-3.357-7.5-7.5-7.5s-7.5 3.357-7.5 7.5v7.55h-55.713v-7.55c0-4.143-3.357-7.5-7.5-7.5s-7.5 3.357-7.5 7.5v7.55h-45.182l-5.484-21.994c-.257-1.031.175-1.787.456-2.145z"/></g></svg>