<svg id="Capa_1" enable-background="new 0 0 511.994 511.994" height="512" viewBox="0 0 511.994 511.994" width="512" xmlns="http://www.w3.org/2000/svg"><g><path d="m370.263 37.24h-41.241v-5.442c0-8.881-6.629-16.534-15.419-17.802l-34.615-4.993c-4.093-.597-7.901 2.253-8.493 6.352s2.252 7.902 6.353 8.493l34.615 4.993c1.459.211 2.56 1.481 2.56 2.956v25.886c0 1.474-1.101 2.744-2.561 2.955l-93.837 13.536c-8.547 1.23-17.189-1.303-23.715-6.954-6.526-5.652-10.27-13.846-10.27-22.48s3.743-16.827 10.268-22.479c6.526-5.653 15.168-8.186 23.716-6.955l26.854 3.874c4.086.59 7.902-2.252 8.494-6.351.592-4.1-2.252-7.903-6.352-8.494l-26.854-3.875c-12.854-1.855-25.859 1.959-35.678 10.462-2.166 1.877-4.116 3.948-5.859 6.163h-16.343c-15.249 0-27.654 12.406-27.654 27.655s12.405 27.655 27.654 27.655h16.343c1.743 2.215 3.693 4.287 5.86 6.164 8.189 7.092 18.592 10.921 29.278 10.921 1.986 0 3.984-.138 5.978-.407v107.543h-6.209c-12.809 0-23.229 10.42-23.229 23.229v167.459c0 4.143 3.357 7.5 7.5 7.5s7.5-3.357 7.5-7.5v-59.674h78.18v161.135c0 4.537-3.691 8.228-8.229 8.228h-61.723c-4.537 0-8.229-3.691-8.229-8.228v-68.775c0-4.143-3.357-7.5-7.5-7.5s-7.5 3.357-7.5 7.5v68.775c0 12.809 10.42 23.228 23.229 23.228h61.723c12.809 0 23.229-10.42 23.229-23.228v-268.92c0-12.809-10.42-23.229-23.229-23.229h-6.209v-35.545c0-4.143-3.357-7.5-7.5-7.5s-7.5 3.357-7.5 7.5v35.545h-19.305v-109.7l19.305-2.785v44.254c0 4.143 3.357 7.5 7.5 7.5s7.5-3.357 7.5-7.5v-46.416l44.953-6.485c8.79-1.268 15.419-8.92 15.419-17.801v-5.443h41.241c4.143 0 7.5-3.357 7.5-7.5s-3.357-7.5-7.499-7.5zm-208.377 20.155c-6.978 0-12.654-5.677-12.654-12.655s5.677-12.655 12.654-12.655h8.594c-1.2 4.068-1.84 8.323-1.84 12.655s.64 8.587 1.839 12.655zm43.021 215.039h78.18v13.745h-78.18zm78.18-15h-78.18v-11.451h78.18zm-78.18 55.197v-11.451h78.18v11.451zm78.18-92.785v11.138h-78.18v-11.138c0-4.537 3.691-8.229 8.229-8.229h61.723c4.536 0 8.228 3.691 8.228 8.229z"/><path d="m236.497 44.74c0 4.143 3.357 7.5 7.5 7.5h42.074c4.143 0 7.5-3.357 7.5-7.5s-3.357-7.5-7.5-7.5h-42.074c-4.143 0-7.5 3.357-7.5 7.5z"/></g></svg>