<svg id="Capa_1" enable-background="new 0 0 512 512" height="512" viewBox="0 0 512 512" width="512" xmlns="http://www.w3.org/2000/svg"><g><path d="m282.335 236.599v-37.434c0-14.52-11.814-26.334-26.335-26.334s-26.335 11.813-26.335 26.334v37.434c0 14.521 11.814 26.335 26.335 26.335s26.335-11.814 26.335-26.335zm-26.335-48.768c6.25 0 11.335 5.084 11.335 11.334v11.217h-22.67v-11.217c0-6.25 5.085-11.334 11.335-11.334zm0 60.103c-6.25 0-11.335-5.085-11.335-11.335v-11.217h22.67v11.217c0 6.25-5.085 11.335-11.335 11.335z"/><path d="m248.5 285.625c0 4.142 3.358 7.5 7.5 7.5s7.5-3.358 7.5-7.5c0-4.142-3.358-7.5-7.5-7.5s-7.5 3.358-7.5 7.5z"/><path d="m237.165 419.994h37.67c4.142 0 7.5-3.357 7.5-7.5s-3.358-7.5-7.5-7.5h-37.67c-4.142 0-7.5 3.357-7.5 7.5s3.358 7.5 7.5 7.5z"/><path d="m237.165 453.165h37.67c4.142 0 7.5-3.357 7.5-7.5s-3.358-7.5-7.5-7.5h-37.67c-4.142 0-7.5 3.357-7.5 7.5s3.358 7.5 7.5 7.5z"/><path d="m358.744 17.489c0-9.643-7.846-17.489-17.489-17.489h-170.51c-9.644 0-17.489 7.846-17.489 17.489v73.302c0 8.832 3.549 16.848 9.289 22.708-.737.614-1.441 1.271-2.098 1.981-4.245 4.585-6.403 10.787-5.922 17.017l19.874 257.52c.303 3.934 3.589 6.923 7.469 6.923.194 0 .389-.007.585-.023 4.13-.318 7.219-3.925 6.9-8.055l-1.64-21.248h136.572l-5.499 71.259c-1.225 15.864-8.329 30.555-20.005 41.365-11.676 10.809-26.869 16.762-42.781 16.762s-31.105-5.953-42.781-16.763c-11.676-10.811-18.781-25.501-20.005-41.365l-1.367-17.712c-.318-4.13-3.929-7.224-8.055-6.9-4.13.318-7.219 3.925-6.9 8.055l1.367 17.712c1.516 19.643 10.313 37.833 24.77 51.218 14.457 13.384 33.269 20.755 52.971 20.755s38.514-7.371 52.972-20.756c14.457-13.385 23.254-31.574 24.771-51.218l9.205-119.28c.319-4.13-2.771-7.736-6.9-8.055-4.126-.333-7.736 2.771-8.055 6.9l-2.548 33.022h-138.888l-7.433-96.318h23.824c4.142 0 7.5-3.357 7.5-7.5s-3.358-7.5-7.5-7.5h-24.982l-1.228-15.913h26.21c4.142 0 7.5-3.357 7.5-7.5s-3.358-7.5-7.5-7.5h-27.368l-1.228-15.913h28.596c4.142 0 7.5-3.357 7.5-7.5s-3.358-7.5-7.5-7.5h-29.753l-3.714-48.127c-.163-2.107.538-4.122 1.974-5.672 1.436-1.551 3.39-2.405 5.503-2.405h158.084c2.113 0 4.068.854 5.503 2.405 1.436 1.55 2.137 3.565 1.974 5.672l-3.714 48.127h-29.753c-4.142 0-7.5 3.357-7.5 7.5s3.358 7.5 7.5 7.5h28.596l-1.228 15.913h-27.367c-4.142 0-7.5 3.357-7.5 7.5s3.358 7.5 7.5 7.5h26.21l-1.228 15.913h-24.982c-4.142 0-7.5 3.357-7.5 7.5s3.358 7.5 7.5 7.5h23.824l-2.369 30.699c-.319 4.13 2.77 7.736 6.9 8.055 4.117.316 7.736-2.771 8.055-6.9l12.012-155.652c.481-6.229-1.677-12.432-5.922-17.017-.657-.71-1.361-1.367-2.098-1.981 5.741-5.86 9.289-13.876 9.289-22.708zm-190.488 0c0-1.373 1.117-2.489 2.489-2.489h14.823v33.547c0 9.643 7.846 17.489 17.489 17.489h17.764c4.142 0 7.5-3.357 7.5-7.5 0-4.142-3.358-7.5-7.5-7.5h-17.764c-1.373 0-2.489-1.116-2.489-2.489v-33.547h110.863v33.547c0 1.373-1.117 2.489-2.489 2.489h-55.434c-4.142 0-7.5 3.358-7.5 7.5 0 4.143 3.358 7.5 7.5 7.5h55.434c9.643 0 17.489-7.846 17.489-17.489v-33.547h14.823c1.372 0 2.489 1.116 2.489 2.489v73.302c0 9.635-7.839 17.474-17.474 17.474h-140.54c-9.635 0-17.474-7.839-17.474-17.474v-73.302z"/></g></svg>