<svg id="Capa_1" enable-background="new 0 0 512 512" height="512" viewBox="0 0 512 512" width="512" xmlns="http://www.w3.org/2000/svg"><g><path d="m198.033 118.036c-2.929-2.928-7.678-2.928-10.606 0l-12.252 12.252c-3.111-1.521-6.541-2.348-10.105-2.348s-6.995.827-10.105 2.347l-12.252-12.252c-2.929-2.928-7.678-2.928-10.606 0-2.929 2.93-2.929 7.678 0 10.607l12.258 12.258c-3.093 6.358-3.093 13.839 0 20.197l-12.258 12.258c-2.929 2.93-2.929 7.678 0 10.607 1.464 1.464 3.384 2.196 5.303 2.196s3.839-.732 5.303-2.196l12.258-12.258c3.179 1.547 6.635 2.343 10.099 2.343 3.463-.001 6.919-.797 10.098-2.343l12.258 12.258c1.464 1.464 3.384 2.196 5.303 2.196s3.839-.732 5.303-2.196c2.929-2.93 2.929-7.678 0-10.607l-12.251-12.251c1.521-3.111 2.348-6.541 2.348-10.105s-.827-6.994-2.348-10.105l12.251-12.251c2.93-2.929 2.93-7.677.001-10.607zm-38.662 38.662c-1.522-1.521-2.36-3.546-2.36-5.698 0-2.151.838-4.174 2.358-5.696l.002-.002.003-.003c1.522-1.521 3.545-2.358 5.696-2.358s4.174.837 5.696 2.358l.003.003c1.522 1.521 2.361 3.546 2.361 5.698s-.838 4.177-2.361 5.698c-1.522 1.523-3.546 2.361-5.699 2.361-2.153.001-4.176-.838-5.699-2.361z"/><path d="m379.894 118.036c-2.929-2.928-7.678-2.928-10.607 0l-12.252 12.252c-3.111-1.521-6.541-2.347-10.105-2.347s-6.995.827-10.105 2.347l-12.252-12.252c-2.929-2.928-7.678-2.928-10.606 0-2.929 2.93-2.929 7.678 0 10.607l12.251 12.251c-1.521 3.111-2.348 6.541-2.348 10.105s.827 6.994 2.348 10.105l-12.251 12.251c-2.929 2.93-2.929 7.678 0 10.607 1.464 1.464 3.384 2.196 5.303 2.196s3.839-.732 5.303-2.196l12.258-12.258c3.179 1.547 6.635 2.342 10.099 2.342s6.92-.796 10.099-2.342l12.258 12.258c1.464 1.464 3.384 2.196 5.303 2.196 1.92 0 3.839-.732 5.303-2.196 2.929-2.93 2.929-7.678 0-10.607l-12.258-12.258c3.094-6.358 3.094-13.839 0-20.198l12.258-12.257c2.93-2.928 2.93-7.676.001-10.606zm-38.663 38.662c-1.522-1.521-2.361-3.546-2.361-5.698 0-2.151.838-4.174 2.359-5.696.001-.001.001-.001.002-.002s.002-.002.003-.003c1.522-1.521 3.545-2.358 5.696-2.358s4.174.837 5.696 2.358c.001.001.002.002.003.003 1.522 1.521 2.36 3.546 2.36 5.698s-.838 4.177-2.36 5.698c-1.522 1.523-3.546 2.361-5.699 2.361-2.153.001-4.176-.838-5.699-2.361z"/><path d="m483.643 177.151v-68.6c0-31.706-25.795-57.5-57.5-57.5h-62.87c-4.142 0-7.5 3.357-7.5 7.5s3.358 7.5 7.5 7.5h62.87c23.434 0 42.5 19.065 42.5 42.5v68.6c-16.183 3.458-28.357 17.862-28.357 35.061v23.004c-10.607-11.622-25.852-18.861-42.5-18.861h-146.616c-4.142 0-7.5 3.357-7.5 7.5s3.358 7.5 7.5 7.5h146.616c20.64 0 38.373 15.028 41.867 35.193-2.252 9.085-10.452 15.849-20.224 15.849h-326.858c-9.77 0-17.969-6.762-20.223-15.845 3.492-20.156 21.252-35.197 41.866-35.197h104.27c4.142 0 7.5-3.357 7.5-7.5s-3.358-7.5-7.5-7.5h-104.27c-16.631 0-31.885 7.247-42.5 18.877v-23.021c0-17.199-12.174-31.603-28.357-35.061v-68.6c0-23.435 19.065-42.5 42.5-42.5h244.73c4.142 0 7.5-3.357 7.5-7.5s-3.358-7.5-7.5-7.5h-244.73c-31.706 0-57.5 25.794-57.5 57.5v68.6c-16.183 3.459-28.357 17.863-28.357 35.062v191.237c0 31.706 25.794 57.5 57.5 57.5h397c31.706 0 57.5-25.794 57.5-57.5v-191.237c0-17.199-12.175-31.603-28.357-35.061zm-426.143 268.798c-23.435 0-42.5-19.065-42.5-42.5v-191.237c0-11.5 9.356-20.856 20.857-20.856s20.857 9.356 20.857 20.856v49.329c0 19.498 16.359 35.857 35.857 35.857h63.515c-19.148 12.75-33.289 32.726-38.1 56.441-.824 4.06 1.8 8.018 5.859 8.842.503.102 1.005.151 1.499.151 3.494 0 6.621-2.455 7.342-6.011 6.985-34.433 37.598-59.424 72.792-59.424h101.044c40.955 0 74.275 33.32 74.275 74.276s-33.32 74.275-74.275 74.275h-101.044c-35.132 0-65.735-24.938-72.767-59.299-.83-4.058-4.795-6.671-8.851-5.844-4.058.83-6.675 4.793-5.844 8.852 4.839 23.646 18.97 43.567 38.082 56.291h-98.598zm439.5-42.5c0 23.435-19.065 42.5-42.5 42.5h-98.504c23.978-16.024 39.802-43.335 39.802-74.276s-15.824-58.252-39.802-74.275h63.433c19.494 0 35.857-16.35 35.857-35.857v-49.329c0-11.5 9.357-20.856 20.857-20.856s20.857 9.356 20.857 20.856z"/><path d="m214.46 366.25c1.027 3.831 4.964 6.105 8.795 5.078 3.831-1.026 6.105-4.964 5.078-8.795l-2.293-8.556c-1.027-3.831-4.964-6.105-8.796-5.078-3.831 1.027-6.105 4.964-5.078 8.795z"/><path d="m288.744 371.328c3.831 1.027 7.769-1.247 8.796-5.078l2.292-8.556c1.027-3.831-1.247-7.769-5.078-8.795-3.831-1.027-7.769 1.247-8.796 5.078l-2.293 8.556c-1.026 3.83 1.248 7.768 5.079 8.795z"/><path d="m242.009 353.555c3.966 0 7.182-3.215 7.182-7.182v-8.857c0-3.966-3.215-7.182-7.182-7.182-3.966 0-7.182 3.215-7.182 7.182v8.857c0 3.967 3.215 7.182 7.182 7.182z"/><path d="m269.991 353.555c3.966 0 7.182-3.215 7.182-7.182v-8.857c0-3.966-3.215-7.182-7.182-7.182-3.966 0-7.182 3.215-7.182 7.182v8.857c.001 3.967 3.216 7.182 7.182 7.182z"/><path d="m218.136 395.27c.32 13.129 10.836 23.973 23.943 24.688.463.024.925.037 1.387.037 4.17 0 8.272-1.019 11.942-2.978.36-.191.824-.192 1.186.001 4.073 2.175 8.685 3.184 13.327 2.939 13.105-.713 23.622-11.557 23.943-24.685.256-10.442-5.949-19.982-15.521-24.007-4.43-8.267-12.918-13.37-22.343-13.37-9.426 0-17.914 5.103-22.343 13.37-9.572 4.024-15.777 13.563-15.521 24.005zm21.659-10.308c3.018-1.15 5.477-3.39 6.926-6.307 1.764-3.554 5.32-5.761 9.279-5.761s7.515 2.207 9.28 5.763c1.448 2.915 3.907 5.154 6.925 6.305.001.001.001.001.001.001 4.092 1.561 6.77 5.556 6.663 9.941-.131 5.358-4.419 9.784-9.761 10.074-1.91.108-3.794-.31-5.449-1.192-4.797-2.563-10.524-2.561-15.316-.001-1.658.884-3.545 1.3-5.45 1.193-5.343-.291-9.631-4.717-9.762-10.075-.107-4.384 2.571-8.38 6.664-9.941z"/></g></svg>