<svg id="Capa_1" enable-background="new 0 0 512 512" height="512" viewBox="0 0 512 512" width="512" xmlns="http://www.w3.org/2000/svg"><g><path d="m125.543 145.334v81.998c0 4.143 3.358 7.5 7.5 7.5s7.5-3.357 7.5-7.5v-81.998c0-4.143-3.358-7.5-7.5-7.5s-7.5 3.357-7.5 7.5z"/><path d="m222.514 227.332v-81.998c0-4.143-3.358-7.5-7.5-7.5s-7.5 3.357-7.5 7.5v81.998c0 4.143 3.358 7.5 7.5 7.5s7.5-3.357 7.5-7.5z"/><path d="m304.485 227.332v-81.998c0-4.143-3.358-7.5-7.5-7.5-4.143 0-7.5 3.357-7.5 7.5v81.998c0 4.143 3.357 7.5 7.5 7.5s7.5-3.357 7.5-7.5z"/><path d="m386.457 227.332v-81.998c0-4.143-3.357-7.5-7.5-7.5-4.142 0-7.5 3.357-7.5 7.5v81.998c0 4.143 3.358 7.5 7.5 7.5 4.143 0 7.5-3.357 7.5-7.5z"/><path d="m221.807 391.236-2.833-10.574c-1.269-4.735-6.136-7.545-10.871-6.276s-7.545 6.136-6.276 10.871l2.833 10.574c1.269 4.735 6.136 7.545 10.871 6.276s7.544-6.136 6.276-10.871z"/><path d="m307.34 395.83 2.833-10.574c1.269-4.735-1.541-9.602-6.276-10.871s-9.602 1.541-10.871 6.276l-2.833 10.574c-1.269 4.735 1.541 9.602 6.276 10.871s9.602-1.541 10.871-6.276z"/><path d="m247.584 371.265v-10.948c0-4.902-3.974-8.876-8.876-8.876s-8.876 3.974-8.876 8.876v10.948c0 4.902 3.974 8.876 8.876 8.876s8.876-3.974 8.876-8.876z"/><path d="m282.168 371.265v-10.948c0-4.902-3.974-8.876-8.876-8.876s-8.876 3.974-8.876 8.876v10.948c0 4.902 3.974 8.876 8.876 8.876s8.876-3.974 8.876-8.876z"/><path d="m238.89 460.441c.542.029 1.082.044 1.622.044 4.864 0 9.646-1.189 13.921-3.471.968-.516 2.168-.516 3.134 0 4.75 2.536 10.129 3.722 15.543 3.427 15.28-.831 27.544-13.476 27.919-28.785.303-12.389-7.19-23.688-18.683-28.234-5.08-9.97-15.146-16.148-26.347-16.148s-21.267 6.18-26.346 16.148c-11.492 4.547-18.985 15.845-18.683 28.232.375 15.31 12.638 27.954 27.92 28.787zm-3.552-43.135c3.315-1.263 6.017-3.724 7.608-6.93 2.481-4.998 7.483-8.103 13.054-8.103 5.57 0 10.572 3.104 13.053 8.101 1.591 3.206 4.292 5.667 7.607 6.931 5.758 2.196 9.525 7.815 9.374 13.984-.185 7.539-6.219 13.766-13.736 14.174-2.691.147-5.333-.436-7.665-1.681-5.405-2.885-11.859-2.885-17.263 0-2.333 1.245-4.986 1.828-7.665 1.681-7.519-.409-13.553-6.636-13.738-14.176-.151-6.167 3.616-11.787 9.371-13.981z"/><path d="m484.243 279.928c7.034 0 12.757 5.723 12.757 12.757 0 7.035-5.723 12.758-12.757 12.758h-175.578v-25.515h53.949c4.143 0 7.5-3.357 7.5-7.5s-3.357-7.5-7.5-7.5h-55.007c-2.894-9.085-11.411-15.687-21.443-15.687h-60.33c-10.032 0-18.549 6.601-21.443 15.687h-152.137l34.453-143.086c2-8.304 9.361-14.102 17.902-14.102h21.471c4.142 0 7.5-3.358 7.5-7.5 0-4.143-3.358-7.5-7.5-7.5h-21.471c-15.498 0-28.856 10.523-32.485 25.591l-35.299 146.597h-9.068c-15.305 0-27.757 12.452-27.757 27.757 0 15.306 12.452 27.758 27.757 27.758h9.068l35.299 146.597c3.628 15.068 16.987 25.592 32.485 25.592h302.783c15.499 0 28.856-10.524 32.484-25.592l9.97-41.403c.97-4.027-1.509-8.078-5.536-9.048-4.027-.966-8.078 1.51-9.048 5.536l-9.97 41.404c-1.999 8.303-9.359 14.103-17.9 14.103h-302.783c-8.54 0-15.902-5.8-17.902-14.104l-34.453-143.086h152.139c2.894 9.085 11.411 15.686 21.443 15.686h60.33c10.032 0 18.549-6.601 21.443-15.686h152.138l-16.716 69.422c-.97 4.027 1.509 8.078 5.536 9.048.59.142 1.181.21 1.762.21 3.386 0 6.458-2.31 7.286-5.746l17.562-72.934h9.068c15.306 0 27.757-12.452 27.757-27.758 0-15.305-12.451-27.757-27.757-27.757h-9.068l-35.301-146.597c-3.628-15.067-16.985-25.591-32.484-25.591h-70.854v-27.654c0-25.208-20.509-45.716-45.717-45.716h-69.641c-25.208 0-45.716 20.508-45.716 45.716v27.654h-16.696c-4.142 0-7.5 3.357-7.5 7.5 0 4.142 3.358 7.5 7.5 7.5h248.625c8.541 0 15.901 5.799 17.9 14.102l34.454 143.086h-64.445c-4.143 0-7.5 3.357-7.5 7.5s3.357 7.5 7.5 7.5h88.941zm-293.78-214.843c0-16.937 13.779-30.716 30.716-30.716h69.641c16.938 0 30.717 13.779 30.717 30.716v27.654h-15v-27.654c0-8.666-7.051-15.716-15.717-15.716h-69.641c-8.666 0-15.716 7.05-15.716 15.716v27.654h-15zm101.074 27.654h-71.074v-27.654c0-.388.328-.716.716-.716h69.641c.389 0 .717.328.717.716zm-88.202 187.189v25.515h-175.578c-7.034 0-12.757-5.723-12.757-12.758 0-7.034 5.723-12.757 12.757-12.757zm90.33 33.701c0 4.136-3.364 7.5-7.5 7.5h-60.33c-4.136 0-7.5-3.364-7.5-7.5v-41.888c0-4.136 3.364-7.5 7.5-7.5h60.33c4.136 0 7.5 3.364 7.5 7.5z"/></g></svg>