<svg id="Capa_1" enable-background="new 0 0 511.979 511.979" height="512" viewBox="0 0 511.979 511.979" width="512" xmlns="http://www.w3.org/2000/svg"><g><path d="m92.183 416.525c-1.228 3.956.984 8.158 4.94 9.386.74.23 1.488.339 2.225.339 3.199 0 6.163-2.063 7.161-5.279l2.177-7.017 87.077 27.017-16.821 54.216c-.406 1.308-1.439 1.661-2.021 1.755-.577.093-1.669.087-2.469-1.026l-22.609-31.515c-4.555-6.348-12.865-8.925-20.213-6.272l-36.478 13.183c-1.285.465-2.193-.145-2.617-.552-.425-.405-1.077-1.281-.671-2.589l4.958-15.982c1.228-3.956-.984-8.158-4.94-9.386-3.961-1.228-8.158.986-9.386 4.94l-4.958 15.981c-1.986 6.4-.21 13.252 4.637 17.882 4.848 4.63 11.775 6.089 18.075 3.812l36.479-13.183c1.06-.386 2.267-.012 2.927.908l22.609 31.515c3.342 4.658 8.608 7.32 14.203 7.319.944 0 1.898-.075 2.854-.23 6.615-1.072 11.96-5.715 13.946-12.116l41.701-134.406c6.865 1.939 13.941 2.926 21.021 2.926s14.156-.987 21.021-2.926l41.701 134.406c1.986 6.401 7.331 11.044 13.946 12.116.955.155 1.909.23 2.853.23 5.595 0 10.861-2.661 14.203-7.319l22.609-31.515c.66-.919 1.864-1.294 2.928-.908l36.477 13.183c6.304 2.277 13.23.817 18.076-3.812 4.847-4.63 6.623-11.481 4.637-17.882l-46.846-150.993c11.528-12.165 19.142-28.079 20.806-45.749 1.173-12.452 6.009-24.126 13.984-33.761 23.575-28.478 23.575-69.816 0-98.293-5.273-6.371-9.168-13.613-11.573-21.526-1.205-3.964-5.397-6.197-9.358-4.994-3.963 1.205-6.199 5.395-4.994 9.358 2.987 9.824 7.822 18.817 14.37 26.728 18.986 22.936 18.986 56.229 0 79.164-9.902 11.962-15.907 26.457-17.363 41.919-2.793 29.643-26.334 53.184-55.977 55.977-15.462 1.456-29.957 7.461-41.919 17.363-22.936 18.986-56.229 18.986-79.164 0-11.962-9.902-26.457-15.907-41.919-17.363-29.643-2.793-53.184-26.334-55.976-55.977-1.456-15.462-7.461-29.957-17.363-41.919-18.986-22.936-18.986-56.229 0-79.164 9.902-11.962 15.907-26.457 17.363-41.919 2.793-29.643 26.334-53.184 55.976-55.977 15.461-1.456 29.956-7.461 41.919-17.363 22.934-18.988 56.228-18.987 79.164 0 11.963 9.902 26.458 15.907 41.919 17.363 23.368 2.201 43.252 17.117 51.893 38.928 1.524 3.851 5.883 5.736 9.735 4.21 3.851-1.525 5.735-5.884 4.21-9.735-10.729-27.082-35.418-45.604-64.432-48.336-12.451-1.173-24.125-6.009-33.761-13.984-28.478-23.575-69.815-23.575-98.293 0-9.636 7.976-21.31 12.812-33.761 13.984-36.807 3.467-66.037 32.697-69.504 69.504-1.173 12.452-6.009 24.126-13.984 33.761-23.575 28.477-23.575 69.815 0 98.293 7.976 9.635 12.812 21.309 13.984 33.761 1.664 17.67 9.278 33.583 20.806 45.749zm20.948-16.897 9.556-30.799 87.077 27.016-9.556 30.8zm101.077-18.109-87.077-27.016 9.67-31.168c10.51 7.207 22.889 11.892 36.281 13.153 12.452 1.173 24.126 6.009 33.761 13.984 4.427 3.665 9.165 6.758 14.117 9.283zm88.008 14.326 87.077-27.016 9.556 30.799-87.077 27.017zm2.92-45.373c9.635-7.976 21.309-12.812 33.761-13.984 13.392-1.261 25.771-5.946 36.281-13.153l9.67 31.168-87.077 27.016-6.752-21.763c4.952-2.525 9.69-5.619 14.117-9.284zm114.308 120.288c-.425.407-1.331 1.019-2.617.552l-36.477-13.182c-7.346-2.653-15.659-.077-20.214 6.272l-22.609 31.515c-.8 1.112-1.894 1.118-2.469 1.026-.581-.094-1.614-.447-2.021-1.755l-16.821-54.216 87.077-27.017 16.821 54.218c.406 1.306-.245 2.182-.67 2.587z"/><path d="m190.097 185.555c3.441-5.96 4.355-12.904 2.573-19.552l-5.831-21.761c-1.781-6.647-6.045-12.204-12.005-15.646-5.96-3.441-12.904-4.354-19.552-2.573s-12.204 6.045-15.646 12.005c-3.44 5.96-4.355 12.904-2.573 19.552l5.831 21.761c1.781 6.647 6.045 12.204 12.005 15.646 3.97 2.292 8.376 3.463 12.841 3.463 2.238 0 4.491-.295 6.711-.89 6.648-1.781 12.205-6.045 15.646-12.005zm-12.991-7.5c-1.438 2.49-3.759 4.271-6.537 5.017-2.779.744-5.679.362-8.169-1.076s-4.271-3.759-5.017-6.537l-5.831-21.761c-.744-2.777-.362-5.679 1.076-8.169s3.759-4.271 6.537-5.017c.928-.248 1.869-.371 2.804-.371 1.865 0 3.706.489 5.365 1.447 2.49 1.438 4.271 3.759 5.017 6.537l5.831 21.761c.744 2.778.362 5.679-1.076 8.169z"/><path d="m356.687 194.987c5.96-3.441 10.224-8.998 12.005-15.646l5.831-21.762c3.677-13.723-4.496-27.879-18.219-31.556-6.645-1.78-13.592-.869-19.553 2.573-5.96 3.441-10.224 8.998-12.004 15.646l-5.831 21.761c-1.782 6.648-.867 13.592 2.573 19.552 3.441 5.96 8.998 10.224 15.646 12.005 2.221.596 4.473.89 6.711.89 4.464 0 8.871-1.171 12.841-3.463zm-22.206-16.932c-1.438-2.49-1.82-5.392-1.076-8.169l5.831-21.762c.744-2.777 2.525-5.099 5.016-6.536 1.659-.958 3.5-1.447 5.366-1.447.935 0 1.876.123 2.804.371 5.733 1.537 9.149 7.452 7.613 13.186l-5.831 21.761c-.745 2.778-2.526 5.1-5.017 6.537-2.49 1.438-5.39 1.819-8.169 1.076-2.778-.745-5.1-2.526-6.537-5.017z"/><path d="m245.973 126.846v-22.528c0-14.208-11.559-25.767-25.766-25.767-14.208 0-25.767 11.559-25.767 25.767v22.528c0 14.207 11.559 25.766 25.767 25.766 14.207 0 25.766-11.559 25.766-25.766zm-36.532 0v-22.528c0-5.937 4.83-10.767 10.767-10.767s10.766 4.83 10.766 10.767v22.528c0 5.937-4.829 10.766-10.766 10.766s-10.767-4.829-10.767-10.766z"/><path d="m317.145 126.846v-22.528c0-14.208-11.559-25.767-25.766-25.767s-25.766 11.559-25.766 25.767v22.528c0 14.207 11.559 25.766 25.766 25.766s25.766-11.559 25.766-25.766zm-36.531 0v-22.528c0-5.937 4.829-10.767 10.766-10.767s10.766 4.83 10.766 10.767v22.528c0 5.937-4.829 10.766-10.766 10.766s-10.766-4.829-10.766-10.766z"/><path d="m322.253 265.833c-1.79 3.735-.213 8.215 3.522 10.005 3.736 1.79 8.215.213 10.005-3.523 3.228-6.736 4.957-13.93 5.141-21.383.548-22.392-13.135-42.793-34.046-50.768-1.415-.539-2.581-1.615-3.283-3.029-9.006-18.141-27.171-29.41-47.406-29.41-20.234 0-38.399 11.27-47.407 29.411-.701 1.413-1.866 2.488-3.28 3.028-20.912 7.975-34.595 28.375-34.047 50.765.669 27.397 22.61 50.024 49.951 51.513.974.053 1.944.079 2.914.079 8.706 0 17.263-2.125 24.909-6.208 4.355-2.327 9.562-2.328 13.921-.001 8.495 4.537 18.114 6.662 27.819 6.13 4.854-.265 9.639-1.201 14.222-2.785 3.915-1.354 5.992-5.624 4.64-9.538-1.353-3.915-5.623-5.994-9.538-4.64-3.267 1.129-6.677 1.797-10.138 1.984-6.963.383-13.86-1.136-19.939-4.383-8.784-4.689-19.271-4.688-28.054 0-6.08 3.247-12.977 4.763-19.941 4.383-19.579-1.066-35.292-17.274-35.771-36.9-.393-16.048 9.41-30.669 24.396-36.383 4.95-1.89 8.989-5.574 11.371-10.375 6.456-13.003 19.473-21.08 33.971-21.08 14.499 0 27.516 8.077 33.971 21.08 2.385 4.803 6.424 8.487 11.374 10.375 14.984 5.714 24.788 20.336 24.395 36.384-.13 5.32-1.366 10.457-3.672 15.269z"/></g></svg>