<svg id="Capa_1" enable-background="new 0 0 511.967 511.967" height="512" viewBox="0 0 511.967 511.967" width="512" xmlns="http://www.w3.org/2000/svg"><g><path d="m507.424 240.449c-26.532-41.334-63.196-75.831-106.029-99.761-44.196-24.693-94.48-37.745-145.411-37.745s-101.215 13.052-145.411 37.745c-42.833 23.93-79.497 58.427-106.029 99.761-6.058 9.436-6.058 21.632 0 31.068 6.597 10.276 13.904 20.255 21.719 29.656 2.649 3.185 7.377 3.623 10.561.974 3.186-2.647 3.621-7.376.974-10.562-7.423-8.932-14.364-18.41-20.631-28.172-2.897-4.514-2.897-10.348 0-14.861 25.205-39.267 60.034-72.037 100.722-94.77 15.117-8.446 30.987-15.449 47.364-20.963-37.766 27.895-62.308 72.714-62.308 123.163 0 50.515 24.607 95.385 62.458 123.273-39.361-13.237-75.612-35.121-106.265-64.69-2.98-2.876-7.729-2.789-10.605.19-2.876 2.981-2.791 7.729.191 10.604 55.927 53.951 129.533 83.663 207.261 83.663 50.932 0 101.215-13.052 145.411-37.745 42.833-23.93 79.497-58.427 106.029-99.761 6.057-9.435 6.057-21.63-.001-31.067zm-12.623 22.965c-25.205 39.267-60.034 72.037-100.722 94.77-15.117 8.446-30.988 15.449-47.365 20.964 37.767-27.896 62.309-72.715 62.309-123.164 0-10.379-1.046-20.753-3.109-30.835-.827-4.042-4.767-6.644-8.815-5.819-4.04.826-6.645 4.773-5.819 8.814 1.861 9.098 2.806 18.465 2.806 27.84 0 74.228-58.866 134.955-132.365 137.975-3.869.079-7.736.074-11.605-.005-73.438-3.086-132.236-63.786-132.236-137.971 0-74.226 58.864-134.952 132.361-137.974 3.813-.077 7.624-.078 11.436-.001 52.123 2.152 98.973 33.695 120.422 81.609 1.685 3.764 6.104 5.45 9.868 3.765s5.451-6.104 3.765-9.868c-11.015-24.604-28.085-45.298-48.968-60.677 16.359 5.512 32.212 12.51 47.314 20.947 40.688 22.732 75.517 55.503 100.722 94.77 2.898 4.513 2.898 10.347.001 14.86z"/><path d="m269.86 136.072c-8.17-6.467-19.582-6.468-27.752.001-32.207 25.498-52.563 61.903-57.315 102.509-.482 4.114 2.463 7.84 6.577 8.321 4.103.474 7.839-2.463 8.321-6.577 4.288-36.631 22.658-69.479 51.728-92.492 2.645-2.096 6.486-2.093 9.131-.001 33.476 26.503 52.675 66.157 52.675 108.797s-19.199 82.294-52.675 108.796c-2.645 2.096-6.486 2.095-9.131.001-29.304-23.2-47.706-56.329-51.817-93.282-.458-4.116-4.179-7.071-8.283-6.625-4.117.458-7.083 4.167-6.625 8.283 4.558 40.964 24.948 77.68 57.415 103.385 4.085 3.233 8.98 4.85 13.876 4.85s9.791-1.616 13.876-4.851c37.092-29.364 58.364-73.306 58.364-120.557s-21.274-91.192-58.365-120.558z"/><path d="m263.484 296.654v-81.34c0-4.143-3.357-7.5-7.5-7.5s-7.5 3.357-7.5 7.5v81.34c0 4.143 3.357 7.5 7.5 7.5s7.5-3.358 7.5-7.5z"/></g></svg>