<svg id="Capa_1" enable-background="new 0 0 512.036 512.036" height="512" viewBox="0 0 512.036 512.036" width="512" xmlns="http://www.w3.org/2000/svg"><g><path d="m163.518 392.797c-10.758-3.487-22.241-2.571-32.337 2.58s-17.577 13.913-21.064 24.67c-3.488 10.757-2.572 22.241 2.58 32.337 5.151 10.096 13.913 17.577 24.67 21.065 4.329 1.403 8.723 2.07 13.047 2.07 17.882 0 34.549-11.414 40.355-29.32 3.488-10.758 2.572-22.241-2.58-32.337-5.152-10.095-13.914-17.577-24.671-21.065zm12.981 48.775c-4.658 14.368-20.14 22.27-34.507 17.607-6.946-2.252-12.605-7.087-15.936-13.613-3.331-6.527-3.924-13.946-1.672-20.893 2.252-6.946 7.087-12.605 13.614-15.935 6.527-3.331 13.947-3.925 20.892-1.672 6.946 2.252 12.606 7.087 15.936 13.613 3.332 6.528 3.926 13.948 1.673 20.893z"/><path d="m289.729 66.893c0-18.588-15.123-33.711-33.711-33.711s-33.711 15.123-33.711 33.711c0 16.01 11.222 29.44 26.211 32.86v21.095l-.591-.617c-2.864-2.991-7.612-3.095-10.604-.229-2.991 2.865-3.094 7.612-.23 10.604l13.508 14.105c.019.019.039.036.058.055.099.102.205.197.31.292.077.071.152.144.232.211.119.1.244.191.369.283.072.053.141.111.215.161.161.111.329.211.499.309.042.024.081.052.123.075 1.071.59 2.301.926 3.61.926s2.539-.337 3.61-.926c.042-.023.081-.051.123-.075.17-.098.338-.198.499-.309.074-.05.143-.108.215-.161.125-.092.25-.184.369-.283.08-.067.155-.14.232-.211.105-.096.211-.191.31-.292.019-.019.04-.036.058-.055l13.508-14.105c2.865-2.992 2.762-7.739-.229-10.604-2.992-2.865-7.739-2.763-10.604.229l-.591.617v-21.095c14.99-3.42 26.212-16.85 26.212-32.86zm-52.422 0c0-10.317 8.394-18.711 18.711-18.711s18.711 8.394 18.711 18.711-8.394 18.712-18.711 18.712c-10.317-.001-18.711-8.395-18.711-18.712z"/><path d="m256.018 338.128c-4.142 0-7.5 3.358-7.5 7.5 0 4.142 3.358 7.5 7.5 7.5s7.5-3.358 7.5-7.5c0-4.142-3.358-7.5-7.5-7.5z"/><path d="m256.018 180.205c17.148 0 33.832-4.838 48.246-13.992 3.497-2.221 4.531-6.855 2.311-10.352-2.221-3.498-6.857-4.532-10.352-2.311-12.006 7.624-25.909 11.654-40.205 11.654-41.412 0-75.102-33.69-75.102-75.103s33.69-75.101 75.102-75.101 75.103 33.69 75.103 75.103c0 15.052-4.434 29.569-12.822 41.985-2.319 3.432-1.416 8.094 2.016 10.413 3.433 2.317 8.095 1.417 10.414-2.017 10.069-14.904 15.392-32.326 15.392-50.382 0-49.682-40.42-90.102-90.103-90.102s-90.102 40.42-90.102 90.103c0 49.682 40.419 90.102 90.102 90.102z"/><path d="m437.832 412.906c-7.497-28.146-29.784-49.81-58.164-56.538-4.027-.952-8.072 1.538-9.028 5.567-.956 4.031 1.538 8.072 5.568 9.028 22.997 5.452 41.056 23.003 47.128 45.804 4.034 15.143 2.29 31.251-4.91 45.359-7.2 14.107-19.221 24.972-33.849 30.591-16.553 6.357-34.474 5.656-50.462-1.975-16.008-7.639-27.826-21.105-33.278-37.92l-17.314-53.398c-1.19-3.672-3.574-6.856-6.748-9.035l-9.421-8.311 7.087-6.253c3.173-2.18 5.557-5.363 6.747-9.035l3.09-9.528 15.217 25.841c1.937 3.217 5.176 5.371 8.889 5.912.608.089 1.217.133 1.822.133 3.108 0 6.116-1.155 8.459-3.291 6.724-6.134 14.539-10.672 23.227-13.489 1.676-.543 3.385-1.021 5.081-1.421 4.031-.952 6.528-4.992 5.576-9.023s-4.991-6.526-9.022-5.576c-2.09.494-4.196 1.083-6.259 1.751-9.774 3.17-18.656 8.104-26.442 14.685l-20.365-34.584 49.264-151.929c1.994-6.146-.827-12.555-6.707-15.235-5.881-2.682-12.567-.609-15.939 4.99l-61.059 103.688-61.1-103.753c-3.333-5.536-10.022-7.607-15.9-4.927-5.88 2.681-8.701 9.089-6.708 15.235l21.959 67.722c1.277 3.941 5.508 6.095 9.448 4.821 3.94-1.278 6.099-5.508 4.821-9.448l-14.948-46.1 53.722 91.228-15.569 26.438-13.104-40.415c-1.277-3.94-5.506-6.097-9.448-4.821-3.94 1.278-6.099 5.508-4.821 9.448l17.204 53.056-20.365 34.583c-7.787-6.581-16.668-11.515-26.442-14.685-20.772-6.735-42.803-4.678-62.034 5.79-19.213 10.458-32.896 27.867-38.531 49.019-4.988 18.727-2.841 38.628 6.044 56.039s23.742 30.826 41.832 37.774c9.24 3.55 18.824 5.316 28.379 5.316 11.575-.001 23.107-2.595 33.921-7.755 19.76-9.431 34.352-26.063 41.086-46.831l17.314-53.398c.181-.558.554-1.037 1.05-1.351.34-.214.662-.455.963-.721l11.223-9.901 11.223 9.901c.301.266.624.507.963.721.497.313.87.793 1.05 1.351l17.314 53.398c6.734 20.769 21.326 37.4 41.086 46.831 10.815 5.161 22.345 7.755 33.921 7.755 9.554 0 19.141-1.767 28.38-5.316 18.09-6.948 32.947-20.363 41.832-37.774 8.888-17.41 11.035-37.311 6.047-56.038zm-119.388-209.642-51.524 158.899c-.181.558-.554 1.037-1.05 1.351-.34.214-.662.455-.963.721l-29.646 26.155c-3.173 2.179-5.557 5.363-6.748 9.035l-17.314 53.398c-5.452 16.814-17.27 30.281-33.278 37.92-15.988 7.632-33.909 8.333-50.462 1.975-14.628-5.619-26.649-16.483-33.849-30.591s-8.943-30.217-4.91-45.359c4.563-17.135 15.646-31.235 31.207-39.705 9.565-5.206 19.98-7.845 30.489-7.845 6.608 0 13.255 1.044 19.747 3.149 8.689 2.817 16.504 7.355 23.23 13.49 2.797 2.551 6.544 3.705 10.28 3.157 3.712-.541 6.952-2.695 8.889-5.912.013-.021.025-.041.038-.063z"/><path d="m323.848 413.862c-5.152 10.096-6.068 21.579-2.58 32.337 5.807 17.907 22.472 29.32 40.355 29.32 4.322 0 8.719-.667 13.047-2.07 10.757-3.488 19.519-10.97 24.67-21.065 5.152-10.096 6.068-21.58 2.58-32.337s-10.969-19.519-21.065-24.67-21.579-6.067-32.337-2.58c-10.757 3.488-19.519 10.97-24.67 21.065zm37.746-8.139c4.272 0 8.52 1.013 12.444 3.016 6.527 3.33 11.362 8.989 13.614 15.935s1.659 14.365-1.672 20.893c-3.331 6.526-8.99 11.361-15.936 13.613-14.368 4.661-29.847-3.239-34.507-17.607-2.253-6.945-1.658-14.365 1.672-20.893 3.331-6.526 8.99-11.361 15.937-13.613 2.769-.899 5.614-1.344 8.448-1.344z"/></g></svg>