<svg id="Capa_1" enable-background="new 0 0 512.036 512.036" height="512" viewBox="0 0 512.036 512.036" width="512" xmlns="http://www.w3.org/2000/svg"><g><path d="m110.116 420.047c-3.488 10.757-2.572 22.241 2.58 32.337 5.151 10.096 13.913 17.577 24.67 21.065 4.329 1.403 8.723 2.07 13.047 2.07 17.882 0 34.549-11.414 40.355-29.32 3.488-10.758 2.572-22.241-2.58-32.337-5.151-10.096-13.913-17.577-24.67-21.065-10.759-3.487-22.241-2.571-32.337 2.58s-17.577 13.913-21.065 24.67zm27.883-11.309c6.526-3.331 13.947-3.925 20.892-1.672 6.946 2.252 12.606 7.087 15.936 13.613 3.331 6.527 3.925 13.947 1.672 20.893-4.659 14.368-20.139 22.27-34.507 17.607-6.946-2.252-12.605-7.087-15.936-13.613-3.331-6.527-3.924-13.946-1.672-20.893 2.253-6.945 7.088-12.605 13.615-15.935z"/><path d="m256.018 147.024c4.142 0 7.5-3.357 7.5-7.5v-15.71h5.985c4.142 0 7.5-3.357 7.5-7.5s-3.358-7.5-7.5-7.5h-5.985v-9.062c14.989-3.42 26.211-16.85 26.211-32.86 0-18.588-15.123-33.711-33.711-33.711s-33.711 15.123-33.711 33.711c0 16.01 11.222 29.44 26.211 32.86v9.062h-5.985c-4.142 0-7.5 3.357-7.5 7.5s3.358 7.5 7.5 7.5h5.985v15.71c0 4.143 3.358 7.5 7.5 7.5zm-18.711-80.131c0-10.317 8.394-18.711 18.711-18.711s18.711 8.394 18.711 18.711-8.394 18.712-18.711 18.712c-10.317-.001-18.711-8.395-18.711-18.712z"/><path d="m248.518 345.628c0 4.142 3.358 7.5 7.5 7.5s7.5-3.358 7.5-7.5c0-4.142-3.358-7.5-7.5-7.5s-7.5 3.358-7.5 7.5z"/><path d="m380.855 395.377c-10.096-5.151-21.579-6.067-32.337-2.58-10.757 3.488-19.519 10.97-24.67 21.065-5.152 10.096-6.068 21.579-2.58 32.337 5.807 17.907 22.472 29.32 40.355 29.32 4.322 0 8.719-.667 13.047-2.07 10.757-3.488 19.519-10.97 24.67-21.065 5.152-10.096 6.068-21.58 2.58-32.337s-10.969-19.519-21.065-24.67zm5.124 50.189c-3.33 6.526-8.99 11.361-15.936 13.613-14.367 4.661-29.848-3.239-34.507-17.607-2.253-6.945-1.658-14.365 1.672-20.893 3.331-6.526 8.99-11.361 15.936-13.613 2.77-.898 5.614-1.344 8.448-1.344 4.272 0 8.52 1.013 12.444 3.016 6.527 3.33 11.362 8.989 13.614 15.935 2.254 6.947 1.66 14.366-1.671 20.893z"/><path d="m437.832 412.906c-5.634-21.151-19.318-38.561-38.531-49.019-19.233-10.468-41.265-12.523-62.034-5.79-9.775 3.17-18.656 8.104-26.442 14.684l-20.365-34.583 12.005-37.023c1.278-3.94-.881-8.17-4.821-9.448-3.941-1.275-8.17.882-9.448 4.821l-21.276 65.615c-.181.558-.554 1.037-1.05 1.351-.34.214-.662.455-.963.721l-29.646 26.155c-3.174 2.179-5.557 5.363-6.748 9.035l-17.315 53.398c-5.452 16.813-17.27 30.281-33.277 37.92-15.988 7.631-33.909 8.333-50.463 1.975-14.628-5.619-26.649-16.483-33.849-30.591s-8.943-30.217-4.91-45.359c6.073-22.801 24.132-40.352 47.129-45.804 4.031-.956 6.523-4.997 5.568-9.028-.956-4.029-4.998-6.524-9.028-5.567-28.38 6.729-50.667 28.393-58.164 56.538-4.988 18.727-2.841 38.628 6.044 56.039s23.742 30.826 41.832 37.774c9.24 3.55 18.824 5.316 28.38 5.316 11.575-.001 23.107-2.595 33.921-7.755 19.76-9.431 34.351-26.063 41.085-46.831l17.315-53.398c.181-.558.554-1.037 1.05-1.351.34-.214.662-.455.963-.721l11.223-9.901 11.223 9.901c.301.266.624.507.963.721.497.313.87.793 1.05 1.351l17.315 53.398c6.734 20.769 21.326 37.4 41.086 46.831 10.815 5.161 22.345 7.755 33.921 7.755 9.554 0 19.141-1.767 28.38-5.316 18.09-6.948 32.947-20.363 41.832-37.774 8.886-17.412 11.033-37.313 6.045-56.04zm-19.405 49.221c-7.2 14.107-19.221 24.972-33.849 30.591-16.552 6.357-34.474 5.656-50.462-1.975-16.008-7.639-27.826-21.107-33.278-37.92l-17.314-53.398c-1.19-3.672-3.574-6.856-6.748-9.035l-9.421-8.312 7.087-6.253c3.174-2.179 5.557-5.363 6.748-9.035l3.09-9.528 15.218 25.841c1.937 3.217 5.176 5.371 8.889 5.912 3.734.542 7.482-.607 10.281-3.158 6.723-6.134 14.539-10.672 23.228-13.489 16.814-5.452 34.657-3.784 50.236 4.695 15.56 8.47 26.643 22.57 31.207 39.705 4.032 15.142 2.288 31.251-4.912 45.359z"/><path d="m238.199 178.442c.498.1.994.147 1.483.147 3.5 0 6.63-2.462 7.346-6.025.815-4.061-1.816-8.014-5.878-8.829-34.902-7.005-60.234-37.972-60.234-73.633 0-41.412 33.69-75.102 75.102-75.102s75.102 33.69 75.102 75.103c0 35.524-25.216 66.468-59.958 73.577-4.058.83-6.675 4.793-5.844 8.852s4.794 6.673 8.851 5.844c41.692-8.531 71.952-45.655 71.952-88.272 0-49.684-40.42-90.104-90.103-90.104s-90.103 40.42-90.103 90.103c.001 42.781 30.4 79.933 72.284 88.339z"/><path d="m318.444 203.264-19.651 60.605c-1.278 3.94.881 8.17 4.821 9.448 3.944 1.28 8.17-.882 9.448-4.821l26.662-82.227c1.994-6.146-.827-12.555-6.708-15.235-5.879-2.682-12.566-.609-15.938 4.99l-61.059 103.688-61.099-103.751c-3.333-5.536-10.021-7.607-15.901-4.927-5.88 2.681-8.701 9.089-6.707 15.235l49.264 151.93-20.365 34.583c-7.787-6.581-16.668-11.515-26.443-14.685-2.065-.669-4.171-1.258-6.26-1.75-4.031-.95-8.07 1.548-9.021 5.58-.95 4.031 1.548 8.07 5.58 9.02 1.691.398 3.399.876 5.075 1.42 8.689 2.817 16.504 7.355 23.229 13.489 2.342 2.137 5.349 3.291 8.458 3.291.605 0 1.213-.044 1.822-.133 3.712-.541 6.952-2.695 8.926-5.975zm-124.852.001 53.722 91.228-15.569 26.438z"/></g></svg>