<svg id="Capa_1" enable-background="new 0 0 511.996 511.996" height="512" viewBox="0 0 511.996 511.996" width="512" xmlns="http://www.w3.org/2000/svg"><g><path d="m508.334 428.141-31.411-31.41c-6.158-6.159-14.346-9.551-23.056-9.551-3.404 0-6.725.525-9.879 1.524l-27.956-27.958c25.757-36.464 40.328-79.727 41.661-125.086 1.713-58.313-18.538-114.446-57.022-158.058-2.739-3.107-7.479-3.401-10.586-.662-3.107 2.741-3.402 7.48-.662 10.586 74.478 84.402 70.402 212.936-9.28 292.617-40.399 40.399-94.112 62.648-151.246 62.648s-110.848-22.249-151.247-62.648-62.648-94.112-62.648-151.246 22.248-110.847 62.647-151.246c38.159-38.159 88.851-60.349 142.737-62.48 53.583-2.112 105.562 15.695 146.361 50.163 3.164 2.673 7.896 2.274 10.569-.89s2.274-7.896-.89-10.569c-43.667-36.892-99.295-55.965-156.632-53.693-57.668 2.281-111.916 26.026-152.751 66.861-43.233 43.234-67.042 100.714-67.042 161.855 0 61.14 23.809 118.621 67.042 161.853 43.232 43.232 100.713 67.041 161.853 67.041 47.901 0 93.554-14.618 131.87-41.737l27.936 27.934c-.999 3.154-1.524 6.476-1.524 9.879 0 8.71 3.392 16.897 9.55 23.056l31.411 31.411c2.441 2.44 5.647 3.661 8.853 3.661 3.207 0 6.413-1.221 8.855-3.661l62.486-62.486c4.883-4.882 4.883-12.826.001-17.708zm-117.584-37.39c5.724-5.725 11.099-11.718 16.137-17.935l23.919 23.92-34.071 34.072-23.911-23.909c6.207-5.038 12.195-10.417 17.926-16.148zm46.244 105.224-29.659-29.658c-3.325-3.325-5.156-7.745-5.156-12.448 0-4.702 1.831-9.122 5.157-12.447l34.084-34.085c3.325-3.325 7.745-5.156 12.447-5.156 4.703 0 9.123 1.831 12.448 5.157l29.658 29.658z"/><path d="m63.442 237.845c-4.122.409-7.132 4.081-6.724 8.203 3.925 39.629 21.623 76.988 49.831 105.197 33.731 33.73 78.039 50.597 122.348 50.597 44.308 0 88.616-16.866 122.348-50.597 67.462-67.463 67.462-177.232 0-244.695-32.681-32.681-76.131-50.678-122.348-50.678s-89.667 17.997-122.347 50.678c-28.355 28.354-46.072 65.917-49.886 105.767-.394 4.123 2.628 7.786 6.751 8.181 4.126.391 7.786-2.628 8.181-6.751 3.483-36.39 19.664-70.692 45.561-96.589 29.847-29.848 69.531-46.285 111.741-46.285s81.894 16.438 111.741 46.285c61.614 61.613 61.614 161.867 0 223.48-61.612 61.614-161.867 61.616-223.481 0-25.763-25.763-41.926-59.881-45.511-96.068-.41-4.123-4.079-7.12-8.205-6.725z"/><path d="m160.426 183.352c-1.776-6.629-6.028-12.17-11.971-15.602-5.944-3.432-12.868-4.342-19.497-2.566-13.685 3.668-21.835 17.784-18.169 31.469l5.808 21.676c3.073 11.466 13.48 19.047 24.825 19.047 2.195 0 4.425-.284 6.644-.879h.001c13.684-3.668 21.834-17.784 18.168-31.469zm-16.243 38.656c-5.698 1.522-11.571-1.866-13.098-7.563l-5.808-21.676c-1.526-5.695 1.866-11.571 7.562-13.098.921-.246 1.856-.368 2.785-.368 1.853 0 3.682.485 5.33 1.437 2.474 1.429 4.243 3.734 4.982 6.494l5.808 21.676c1.526 5.695-1.866 11.571-7.561 13.098z"/><path d="m316.785 237.383c4.452 0 8.847-1.168 12.805-3.453 5.944-3.432 10.195-8.973 11.972-15.602l5.808-21.676c3.667-13.685-4.483-27.801-18.168-31.469-6.629-1.776-13.553-.864-19.497 2.566-5.943 3.432-10.194 8.973-11.971 15.602l-5.809 21.676c-3.667 13.685 4.483 27.801 18.168 31.469 2.214.594 4.46.887 6.692.887zm-10.372-28.473 5.809-21.676c1.526-5.696 7.395-9.089 13.097-7.563 5.695 1.527 9.088 7.402 7.563 13.098l-5.808 21.676c-1.526 5.695-7.402 9.087-13.098 7.563-5.696-1.527-9.088-7.403-7.563-13.098z"/><path d="m219.327 166.031v-22.44c0-14.168-11.526-25.694-25.694-25.694-14.167 0-25.694 11.526-25.694 25.694v22.44c0 14.168 11.526 25.694 25.694 25.694 14.168.001 25.694-11.526 25.694-25.694zm-36.388 0v-22.44c0-5.896 4.797-10.694 10.694-10.694s10.694 4.798 10.694 10.694v22.44c0 5.896-4.797 10.694-10.694 10.694-5.897.001-10.694-4.797-10.694-10.694z"/><path d="m290.22 166.031v-22.44c0-14.168-11.526-25.694-25.694-25.694s-25.694 11.526-25.694 25.694v22.44c0 14.168 11.526 25.694 25.694 25.694 14.167.001 25.694-11.526 25.694-25.694zm-36.389 0v-22.44c0-5.896 4.798-10.694 10.694-10.694s10.694 4.798 10.694 10.694v22.44c0 5.896-4.798 10.694-10.694 10.694-5.896.001-10.694-4.797-10.694-10.694z"/><path d="m145.041 289.627c.667 27.306 22.534 49.855 49.782 51.338 9.671.529 19.261-1.585 27.729-6.107 4.333-2.314 9.506-2.314 13.839 0 7.621 4.068 16.146 6.186 24.822 6.186.966 0 1.935-.026 2.903-.079 4.834-.263 9.602-1.196 14.173-2.775 3.915-1.352 5.993-5.622 4.641-9.537-1.353-3.915-5.62-5.998-9.537-4.641-3.253 1.123-6.648 1.788-10.092 1.975-6.941.379-13.795-1.13-19.844-4.361-8.757-4.676-19.212-4.677-27.97.001-6.049 3.23-12.908 4.739-19.848 4.36-19.487-1.06-35.125-17.191-35.602-36.726-.39-15.972 9.367-30.524 24.281-36.212 4.938-1.884 8.967-5.559 11.344-10.348 6.425-12.941 19.38-20.98 33.811-20.98 14.43 0 27.385 8.039 33.81 20.979 2.377 4.79 6.406 8.466 11.345 10.35 14.914 5.688 24.672 20.241 24.28 36.214-.129 5.293-1.359 10.405-3.654 15.195-1.79 3.736-.213 8.215 3.522 10.005 3.736 1.789 8.215.212 10.005-3.522 3.217-6.715 4.94-13.885 5.123-21.311.546-22.315-13.09-42.648-33.931-50.597-1.403-.535-2.559-1.601-3.254-3.002-8.977-18.079-27.08-29.311-47.246-29.311-20.167 0-38.271 11.231-47.247 29.311-.695 1.4-1.85 2.466-3.253 3.001-20.843 7.949-34.478 28.281-33.932 50.594z"/></g></svg>