<svg id="Capa_1" enable-background="new 0 0 512 512" height="512" viewBox="0 0 512 512" width="512" xmlns="http://www.w3.org/2000/svg"><g><path d="m95.783 191.085 2.833 10.574c1.269 4.735 6.136 7.545 10.871 6.276s7.545-6.136 6.276-10.871l-2.833-10.574c-1.269-4.735-6.136-7.545-10.871-6.276s-7.545 6.137-6.276 10.871z"/><path d="m190.426 207.936c4.735 1.269 9.602-1.541 10.871-6.276l2.833-10.574c1.269-4.735-1.541-9.602-6.276-10.871s-9.602 1.541-10.871 6.276l-2.833 10.574c-1.269 4.735 1.541 9.602 6.276 10.871z"/><path d="m141.54 177.094v-10.947c0-4.902-3.974-8.876-8.876-8.876s-8.876 3.974-8.876 8.876v10.947c0 4.902 3.974 8.876 8.876 8.876s8.876-3.974 8.876-8.876z"/><path d="m176.125 177.094v-10.947c0-4.902-3.974-8.876-8.876-8.876s-8.876 3.974-8.876 8.876v10.947c0 4.902 3.974 8.876 8.876 8.876s8.876-3.974 8.876-8.876z"/><path d="m104.928 237.483c.374 15.312 12.637 27.956 27.917 28.787.543.029 1.086.044 1.628.044 4.863 0 9.645-1.189 13.917-3.471.966-.517 2.166-.518 3.132-.001 4.748 2.536 10.12 3.723 15.545 3.428 15.28-.831 27.544-13.475 27.92-28.785.303-12.388-7.19-23.687-18.683-28.233-5.079-9.97-15.145-16.15-26.347-16.15-11.203 0-21.27 6.18-26.347 16.15-11.492 4.546-18.985 15.844-18.682 28.231zm24.369-14.348c3.313-1.264 6.015-3.725 7.606-6.93 2.48-4.998 7.482-8.103 13.054-8.103 5.57 0 10.572 3.105 13.053 8.101 1.59 3.205 4.291 5.667 7.606 6.932h.001c5.758 2.195 9.524 7.815 9.373 13.983-.185 7.539-6.22 13.766-13.737 14.174-2.683.143-5.334-.436-7.665-1.681-5.404-2.885-11.858-2.886-17.265.001-2.33 1.244-4.981 1.822-7.663 1.68-7.519-.408-13.553-6.635-13.736-14.175-.152-6.168 3.615-11.787 9.373-13.982z"/><path d="m398.099 325.734c-14.56 0-26.404 11.845-26.404 26.404s11.845 26.403 26.404 26.403 26.403-11.845 26.403-26.403c0-14.559-11.845-26.404-26.403-26.404zm0 37.808c-6.288 0-11.404-5.115-11.404-11.403s5.116-11.404 11.404-11.404 11.403 5.116 11.403 11.404-5.115 11.403-11.403 11.403z"/><path d="m113.901 325.734c-14.559 0-26.403 11.845-26.403 26.404s11.845 26.403 26.403 26.403c14.56 0 26.404-11.845 26.404-26.403.001-14.559-11.844-26.404-26.404-26.404zm0 37.808c-6.288 0-11.403-5.115-11.403-11.403s5.115-11.404 11.403-11.404 11.404 5.116 11.404 11.404c.001 6.288-5.116 11.403-11.404 11.403z"/><path d="m305.57 236.477c-4.143 0-7.5 3.358-7.5 7.5v12.063c0 9.068 7.377 16.445 16.444 16.445h88.77c4.412 0 8.451-2.413 10.543-6.298 2.091-3.885 1.88-8.586-.588-12.326l-42.876-63.69c-3.052-4.626-8.184-7.388-13.726-7.388h-42.123c-9.067 0-16.444 7.377-16.444 16.444v12.064c0 4.143 3.357 7.5 7.5 7.5s7.5-3.357 7.5-7.5v-12.064c0-.797.647-1.444 1.444-1.444h42.123c.487 0 .938.242 1.244.707l39.715 58.995h-83.082c-.797 0-1.444-.648-1.444-1.445v-12.063c0-4.142-3.357-7.5-7.5-7.5z"/><path d="m493.218 329.011v-43.562c0-16.466-13.396-29.861-29.861-29.861h-14.494c-.48 0-.929-.238-1.197-.638l-57.919-85.944c-5.559-8.249-14.816-13.174-24.764-13.174h-11.495v-22.014c0-16.512-13.434-29.944-29.945-29.944-16.512 0-29.944 13.433-29.944 29.944v22.014h-12.467v-31.041c0-11.533-9.384-20.917-20.917-20.917h-138.099c-4.143 0-7.5 3.357-7.5 7.5s3.357 7.5 7.5 7.5h138.098c3.263 0 5.917 2.654 5.917 5.917v171.36h-31.245c-4.143 0-7.5 3.357-7.5 7.5s3.357 7.5 7.5 7.5h31.245v17.357h-101.49c-3.077-6.581-7.395-12.467-12.655-17.357h50.213c4.143 0 7.5-3.357 7.5-7.5s-3.357-7.5-7.5-7.5h-168.417v-171.36c0-3.263 2.654-5.917 5.917-5.917h49.731c4.143 0 7.5-3.357 7.5-7.5s-3.357-7.5-7.5-7.5h-49.731c-11.533 0-20.917 9.384-20.917 20.917v204.22c-10.712 2.242-18.782 11.76-18.782 23.128 0 13.029 10.601 23.63 23.63 23.63h39.532c8.928 19.092 28.309 32.357 50.739 32.357 22.431 0 41.813-13.265 50.74-32.357h182.717c8.928 19.092 28.309 32.357 50.74 32.357 22.43 0 41.812-13.265 50.739-32.357h39.532c13.029 0 23.63-10.601 23.63-23.63.001-11.368-8.069-20.886-18.781-23.128zm-44.38-.502c-3.077-6.581-7.395-12.467-12.655-17.357h42.035v17.357zm-140.24-194.691c0-8.24 6.704-14.944 14.945-14.944 8.24 0 14.944 6.704 14.944 14.944v22.014h-29.89v-22.014zm56.384 37.014c4.95 0 9.558 2.451 12.324 6.557l57.919 85.943c3.061 4.544 8.159 7.256 13.637 7.256h14.494c8.194 0 14.861 6.667 14.861 14.861v10.702h-197.086v-125.319zm-83.851 140.319h78.883c-5.26 4.891-9.578 10.776-12.655 17.357h-66.228zm-205.314 0c-5.26 4.891-9.578 10.776-12.655 17.357h-29.38v-17.357zm-52.187 49.618c-4.759 0-8.63-3.871-8.63-8.63s3.871-8.63 8.63-8.63h34.951c-.437 2.814-.667 5.695-.667 8.63s.23 5.816.667 8.63zm90.271 32.357c-22.601 0-40.987-18.387-40.987-40.987 0-22.601 18.387-40.987 40.987-40.987s40.988 18.387 40.988 40.987c.001 22.6-18.387 40.987-40.988 40.987zm55.322-32.357c.437-2.814.667-5.695.667-8.63s-.23-5.816-.667-8.63h173.555c-.437 2.814-.667 5.695-.667 8.63s.23 5.816.667 8.63zm228.876 32.357c-22.601 0-40.988-18.387-40.988-40.987 0-22.601 18.388-40.987 40.988-40.987 22.601 0 40.987 18.387 40.987 40.987s-18.387 40.987-40.987 40.987zm90.271-32.357h-34.951c.437-2.814.667-5.695.667-8.63s-.23-5.816-.667-8.63h34.951c4.759 0 8.63 3.871 8.63 8.63s-3.871 8.63-8.63 8.63z"/></g></svg>