<svg id="Capa_1" enable-background="new 0 0 512 512" height="512" viewBox="0 0 512 512" width="512" xmlns="http://www.w3.org/2000/svg"><g><path d="m201.539 104.909c4.835 4.834 11.186 7.251 17.537 7.251s12.702-2.417 17.537-7.251c0-.001 0-.001 0-.001 9.669-9.67 9.669-25.403 0-35.073l-30.006-30.006c-4.684-4.684-10.912-7.264-17.537-7.264s-12.853 2.58-17.537 7.264c-9.67 9.669-9.67 25.403 0 35.073zm24.467-10.607c-3.821 3.822-10.039 3.821-13.86 0l-9.7-9.7 13.86-13.86 9.7 9.7c3.821 3.821 3.821 10.039 0 13.86zm-43.867-43.866c1.851-1.851 4.313-2.871 6.93-2.871 2.618 0 5.079 1.02 6.93 2.871l9.7 9.7-13.86 13.86-9.7-9.7c-3.821-3.822-3.821-10.039 0-13.86z"/><path d="m305.395 104.909c4.835 4.835 11.185 7.252 17.536 7.252 6.35 0 12.702-2.417 17.537-7.251 0-.001 0-.001 0-.001 9.67-9.67 9.67-25.403 0-35.073l-30.006-30.006c-4.684-4.684-10.912-7.264-17.537-7.264-6.624 0-12.852 2.58-17.537 7.264-9.67 9.669-9.67 25.403 0 35.073zm27.336-17.537c0 2.618-1.02 5.079-2.871 6.93-3.821 3.821-10.039 3.822-13.86 0l-9.7-9.7 13.86-13.86 9.7 9.7c1.852 1.851 2.871 4.312 2.871 6.93zm-46.737-36.936c1.851-1.851 4.313-2.871 6.93-2.871 2.618 0 5.079 1.02 6.93 2.871l9.7 9.7-13.86 13.86-9.7-9.7c-1.851-1.851-2.871-4.313-2.871-6.93.001-2.618 1.02-5.079 2.871-6.93z"/><path d="m171.533 164.562 30.006 30.006c4.835 4.835 11.186 7.252 17.537 7.252s12.702-2.417 17.537-7.252c9.669-9.67 9.669-25.403 0-35.073l-30.006-30.006c-4.684-4.684-10.912-7.264-17.537-7.264s-12.853 2.58-17.537 7.264-7.264 10.912-7.264 17.537c0 6.624 2.58 12.852 7.264 17.536zm54.473 19.4c-1.851 1.851-4.313 2.871-6.93 2.871s-5.079-1.02-6.93-2.871l-9.7-9.7 13.86-13.86 9.7 9.7c3.821 3.821 3.821 10.039 0 13.86zm-43.867-43.866c1.851-1.851 4.313-2.871 6.93-2.871 2.618 0 5.079 1.02 6.93 2.871l9.7 9.7-13.86 13.86-9.7-9.7c-1.851-1.851-2.871-4.313-2.871-6.93.001-2.618 1.02-5.079 2.871-6.93z"/><path d="m275.388 164.562 30.006 30.006c4.684 4.684 10.912 7.264 17.537 7.264s12.853-2.58 17.537-7.264 7.264-10.912 7.264-17.537-2.58-12.852-7.264-17.537l-30.006-30.006c-4.684-4.684-10.912-7.264-17.537-7.264-6.624 0-12.852 2.58-17.537 7.264-4.684 4.684-7.264 10.912-7.264 17.537s2.58 12.853 7.264 17.537zm57.343 12.47c0 2.618-1.02 5.079-2.871 6.929v.001c-1.851 1.851-4.313 2.871-6.93 2.871-2.618 0-5.079-1.02-6.93-2.871l-9.7-9.7 13.86-13.86 9.7 9.7c1.852 1.851 2.871 4.313 2.871 6.93zm-46.737-36.936c1.851-1.851 4.313-2.871 6.93-2.871 2.618 0 5.079 1.02 6.93 2.871l9.7 9.7-13.86 13.86-9.7-9.7c-1.851-1.851-2.871-4.313-2.871-6.93.001-2.618 1.02-5.079 2.871-6.93z"/><path d="m204.611 330.156c-1.761-6.572-8.516-10.472-15.087-8.711-6.572 1.761-10.472 8.515-8.711 15.087l3.932 14.676c1.761 6.572 8.516 10.472 15.087 8.711 6.572-1.761 10.472-8.516 8.711-15.087z"/><path d="m322.477 321.445c-6.572-1.761-13.327 2.139-15.087 8.711l-3.932 14.676c-1.761 6.572 2.139 13.326 8.711 15.087s13.327-2.139 15.087-8.711l3.932-14.676c1.76-6.571-2.14-13.326-8.711-15.087z"/><path d="m232 329.433c6.804 0 12.319-5.515 12.319-12.319v-15.194c0-6.804-5.515-12.319-12.319-12.319s-12.319 5.515-12.319 12.319v15.194c0 6.804 5.515 12.319 12.319 12.319z"/><path d="m292.319 317.114v-15.194c0-6.804-5.515-12.319-12.319-12.319s-12.319 5.515-12.319 12.319v15.194c0 6.804 5.515 12.319 12.319 12.319s12.319-5.515 12.319-12.319z"/><path d="m196.413 400.857c.482 19.742 16.294 36.047 35.997 37.119 6.991.383 13.923-1.147 20.047-4.417 2.186-1.167 4.902-1.167 7.088 0 5.511 2.943 11.675 4.475 17.948 4.475.698 0 1.397-.019 2.097-.057 19.703-1.071 35.515-17.374 35.999-37.117.395-16.133-9.463-30.833-24.532-36.581-.379-.145-.697-.445-.897-.847-6.489-13.071-19.578-21.191-34.159-21.191s-27.669 8.12-34.159 21.191c-.199.401-.518.702-.896.846-15.069 5.747-24.927 20.447-24.533 36.579zm29.877-22.562c3.914-1.493 7.106-4.402 8.987-8.192 3.938-7.933 11.879-12.861 20.723-12.861s16.785 4.928 20.724 12.862c1.882 3.79 5.074 6.699 8.987 8.191 9.141 3.486 15.122 12.407 14.882 22.198-.293 11.971-9.877 21.857-21.818 22.506-4.245.229-8.458-.692-12.164-2.671-6.644-3.548-14.576-3.547-21.219 0-3.706 1.979-7.913 2.9-12.166 2.671-11.941-.65-21.524-10.537-21.817-22.508-.24-9.79 5.74-18.711 14.881-22.196z"/><path d="m293.534 463.476c0 4.142 3.358 7.5 7.5 7.5h57.372c4.142 0 7.5-3.358 7.5-7.5s-3.358-7.5-7.5-7.5h-57.372c-4.142 0-7.5 3.358-7.5 7.5z"/><path d="m401.021 414.5c-4.142 0-7.5 3.358-7.5 7.5v72.5c0 1.378-1.122 2.5-2.5 2.5h-270.042c-1.378 0-2.5-1.122-2.5-2.5v-173.478c0-4.142-3.358-7.5-7.5-7.5s-7.5 3.358-7.5 7.5v173.478c0 9.649 7.851 17.5 17.5 17.5h270.041c9.649 0 17.5-7.851 17.5-17.5v-72.5c.001-4.143-3.357-7.5-7.499-7.5z"/><path d="m391.021 216.96h-7.01v-199.46c0-9.649-7.851-17.5-17.5-17.5h-221.022c-9.65 0-17.5 7.851-17.5 17.5v75.444c0 4.142 3.358 7.5 7.5 7.5s7.5-3.358 7.5-7.5v-75.444c0-1.378 1.121-2.5 2.5-2.5h221.021c1.378 0 2.5 1.122 2.5 2.5v199.46h-226.021v-91.33c0-4.142-3.358-7.5-7.5-7.5s-7.5 3.358-7.5 7.5v91.329h-7.01c-9.649 0-17.5 7.851-17.5 17.5v53.627c0 4.142 3.358 7.5 7.5 7.5s7.5-3.358 7.5-7.5v-53.626c0-1.378 1.122-2.5 2.5-2.5h270.041c1.378 0 2.5 1.122 2.5 2.5v155.679c0 4.142 3.358 7.5 7.5 7.5s7.5-3.358 7.5-7.5v-155.679c.001-9.65-7.85-17.5-17.499-17.5z"/></g></svg>