<svg id="Capa_1" enable-background="new 0 0 512 512" height="512" viewBox="0 0 512 512" width="512" xmlns="http://www.w3.org/2000/svg"><g><g><path d="m189.711 263.805c-9.386 0-17.997-6.272-20.54-15.759l-4.392-16.391c-3.033-11.323 3.71-23.003 15.032-26.037 5.485-1.47 11.214-.716 16.132 2.124 4.918 2.839 8.436 7.423 9.905 12.908l4.392 16.392c3.034 11.322-3.709 23.002-15.032 26.037-1.835.491-3.681.726-5.497.726zm-4.398-43.912c-.535 0-1.078.069-1.618.214-3.333.893-5.319 4.332-4.426 7.666l4.392 16.39c.433 1.615 1.468 2.965 2.916 3.801s3.137 1.059 4.749.625c3.333-.893 5.319-4.332 4.425-7.666l-4.392-16.391c-.747-2.792-3.283-4.639-6.046-4.639z"/></g><g><path d="m322.289 263.805c-1.816 0-3.661-.235-5.498-.727-11.322-3.034-18.065-14.714-15.032-26.037l4.392-16.391c1.47-5.485 4.988-10.069 9.905-12.909s10.646-3.594 16.132-2.124c11.322 3.034 18.065 14.714 15.032 26.036l-4.392 16.392c-2.542 9.488-11.154 15.76-20.539 15.76zm4.398-43.912c-2.763 0-5.299 1.847-6.047 4.64l-4.392 16.391c-.893 3.334 1.092 6.773 4.425 7.666 1.614.432 3.301.21 4.749-.625 1.448-.836 2.483-2.186 2.916-3.801l4.392-16.391c.893-3.333-1.092-6.772-4.426-7.665-.539-.146-1.082-.215-1.617-.215z"/></g><g><g><path d="m229.195 229.284c-11.722 0-21.259-9.537-21.259-21.258v-16.97c0-11.722 9.537-21.259 21.259-21.259s21.259 9.537 21.259 21.259v16.97c0 11.722-9.537 21.258-21.259 21.258zm0-44.487c-3.451 0-6.259 2.808-6.259 6.259v16.97c0 3.451 2.808 6.258 6.259 6.258s6.259-2.808 6.259-6.258v-16.97c0-3.451-2.808-6.259-6.259-6.259z"/></g></g><g><g><path d="m282.805 229.284c-11.722 0-21.259-9.537-21.259-21.258v-16.97c0-11.722 9.537-21.259 21.259-21.259s21.259 9.537 21.259 21.259v16.97c0 11.722-9.537 21.258-21.259 21.258zm0-44.487c-3.451 0-6.259 2.808-6.259 6.259v16.97c0 3.451 2.808 6.258 6.259 6.258s6.259-2.808 6.259-6.258v-16.97c0-3.451-2.808-6.259-6.259-6.259z"/></g></g><g><path d="m316.617 451.421h-121.234c-14.56 0-26.406-11.846-26.406-26.406v-70.588c0-6.289-5.116-11.405-11.405-11.405h-70.588c-14.56 0-26.406-11.846-26.406-26.406v-121.233c0-14.56 11.846-26.406 26.406-26.406h70.588c6.289 0 11.405-5.116 11.405-11.405v-70.588c0-14.56 11.846-26.406 26.406-26.406h121.233c14.56 0 26.406 11.846 26.406 26.406v70.588c0 6.289 5.116 11.405 11.405 11.405h18.693c4.142 0 7.5 3.358 7.5 7.5s-3.358 7.5-7.5 7.5h-18.693c-14.56 0-26.405-11.845-26.405-26.405v-70.588c0-6.289-5.117-11.406-11.406-11.406h-121.233c-6.289 0-11.406 5.117-11.406 11.406v70.588c0 14.56-11.845 26.405-26.405 26.405h-70.588c-6.289 0-11.406 5.117-11.406 11.406v121.233c0 6.289 5.117 11.406 11.406 11.406h70.588c14.56 0 26.405 11.845 26.405 26.405v70.588c0 6.289 5.117 11.406 11.406 11.406h121.233c6.289 0 11.406-5.117 11.406-11.406v-70.588c0-14.56 11.845-26.405 26.405-26.405h70.588c6.289 0 11.406-5.117 11.406-11.406v-121.233c0-6.289-5.117-11.406-11.406-11.406h-19.208c-4.142 0-7.5-3.358-7.5-7.5s3.358-7.5 7.5-7.5h19.208c14.56 0 26.406 11.846 26.406 26.406v121.233c0 14.56-11.846 26.406-26.406 26.406h-70.588c-6.289 0-11.405 5.116-11.405 11.405v70.588c0 14.561-11.845 26.406-26.405 26.406z"/></g><g><path d="m280.007 342.202c-6.863 0-13.607-1.675-19.636-4.895-2.738-1.461-6.006-1.461-8.742 0-6.699 3.577-14.282 5.252-21.93 4.832-14.029-.763-26.657-8.548-33.78-20.824-2.079-3.583-.86-8.172 2.723-10.251s8.173-.86 10.251 2.723c4.577 7.887 12.66 12.887 21.622 13.375 4.907.263 9.768-.8 14.049-3.085 7.161-3.824 15.712-3.823 22.873 0 4.281 2.286 9.135 3.353 14.048 3.086 13.789-.75 24.857-12.167 25.196-25.991.276-11.306-6.629-21.607-17.185-25.632-4.165-1.589-7.562-4.686-9.565-8.721-4.548-9.16-13.718-14.851-23.931-14.851s-19.382 5.69-23.93 14.851c-2.004 4.035-5.4 7.132-9.564 8.72-6.33 2.414-11.466 7.095-14.465 13.183-1.83 3.716-6.326 5.245-10.042 3.414-3.716-1.83-5.245-6.326-3.414-10.042 4.678-9.498 12.695-16.803 22.576-20.57.629-.24 1.153-.729 1.475-1.376 7.098-14.298 21.415-23.18 37.365-23.18 15.949 0 30.267 8.882 37.366 23.181.321.647.845 1.135 1.475 1.376 16.482 6.285 27.267 22.366 26.835 40.015-.529 21.595-17.825 39.43-39.377 40.602-.765.039-1.53.06-2.293.06z"/></g><g><path d="m256 512c-66.866 0-130.129-25.621-178.136-72.142-2.975-2.883-3.049-7.631-.166-10.605 2.883-2.976 7.631-3.049 10.605-.167 45.193 43.795 104.749 67.914 167.697 67.914 64.373 0 124.894-25.068 170.413-70.587s70.587-106.039 70.587-170.413-25.068-124.894-70.587-170.413-106.04-70.587-170.413-70.587-124.894 25.068-170.413 70.587-70.587 106.039-70.587 170.413c0 55.005 18.042 106.795 52.176 149.77 2.576 3.243 2.035 7.961-1.209 10.538-3.243 2.576-7.961 2.035-10.538-1.208-36.262-45.656-55.429-100.672-55.429-159.1 0-68.38 26.629-132.668 74.98-181.02 48.352-48.351 112.64-74.98 181.02-74.98s132.667 26.629 181.019 74.98c48.352 48.352 74.981 112.64 74.981 181.02s-26.629 132.668-74.981 181.02c-48.352 48.351-112.639 74.98-181.019 74.98z"/></g></g></svg>