<svg id="Capa_1" enable-background="new 0 0 511.99 511.99" height="512" viewBox="0 0 511.99 511.99" width="512" xmlns="http://www.w3.org/2000/svg"><g><path d="m226.028 171.905c-1.027-3.831-4.964-6.105-8.796-5.078-3.831 1.027-6.105 4.964-5.078 8.796l2.293 8.556c1.027 3.831 4.964 6.105 8.796 5.078 3.831-1.027 6.105-4.964 5.078-8.795z"/><path d="m297.526 184.178 2.293-8.556c1.027-3.831-1.247-7.769-5.078-8.796s-7.769 1.247-8.796 5.078l-2.292 8.556c-1.027 3.831 1.247 7.769 5.078 8.795 3.831 1.028 7.769-1.246 8.795-5.077z"/><path d="m249.177 164.302v-8.858c0-3.966-3.215-7.181-7.181-7.181s-7.182 3.215-7.182 7.181v8.858c0 3.966 3.215 7.181 7.182 7.181 3.965.001 7.181-3.215 7.181-7.181z"/><path d="m277.159 164.302v-8.858c0-3.966-3.215-7.181-7.182-7.181-3.966 0-7.181 3.215-7.181 7.181v8.858c0 3.966 3.215 7.181 7.181 7.181 3.967.001 7.182-3.215 7.182-7.181z"/><path d="m218.122 213.199c.32 13.129 10.837 23.973 23.942 24.686.465.025.928.038 1.392.038 4.171 0 8.272-1.02 11.938-2.977.361-.191.826-.192 1.185-.001 4.075 2.176 8.699 3.197 13.33 2.94 13.104-.713 23.621-11.556 23.943-24.686.254-10.442-5.95-19.981-15.522-24.005-4.43-8.269-12.917-13.371-22.343-13.371-9.425 0-17.913 5.102-22.344 13.371-9.572 4.024-15.776 13.563-15.521 24.005zm21.659-10.308c3.019-1.152 5.478-3.392 6.925-6.307 1.764-3.554 5.32-5.761 9.28-5.761s7.516 2.208 9.28 5.763c1.447 2.914 3.906 5.153 6.923 6.305.001.001.002.001.003.001 4.093 1.561 6.77 5.556 6.663 9.941-.131 5.359-4.419 9.784-9.762 10.075-1.899.104-3.792-.309-5.448-1.193-4.797-2.561-10.522-2.561-15.318 0-1.656.885-3.539 1.294-5.449 1.193-5.343-.291-9.631-4.716-9.762-10.075-.106-4.386 2.572-8.381 6.665-9.942z"/><path d="m471.555 469.641c3.719 0 7.217-1.638 9.599-4.494s3.365-6.592 2.697-10.251l-8.175-44.783c-1.084-5.942-6.256-10.256-12.296-10.256h-13.669l-13.341-23.107c-4.75-8.228-11.67-14.535-19.829-18.42l12.218-113.151 33.428 25.709c5.458 4.197 11.974 6.415 18.843 6.415 9.694 0 18.639-4.403 24.541-12.079 5.038-6.55 7.224-14.671 6.153-22.865-1.069-8.194-5.267-15.481-11.817-20.52l-120.661-92.796c-3.286-2.526-7.992-1.91-10.518 1.373-2.525 3.284-1.91 7.992 1.373 10.518l120.661 92.796c3.375 2.595 5.537 6.35 6.089 10.57.551 4.221-.575 8.404-3.171 11.779-3.041 3.955-7.651 6.223-12.65 6.223-3.532 0-6.887-1.143-9.698-3.306l-210.773-162.096c-2.695-2.073-6.449-2.073-9.145 0l-210.773 162.098c-3.375 2.596-7.559 3.719-11.779 3.17-4.221-.551-7.975-2.713-10.57-6.087-5.357-6.966-4.048-16.992 2.917-22.35l225.062-173.086c5.72-4.4 13.711-4.4 19.431 0l78.489 60.364c3.284 2.524 7.991 1.91 10.518-1.373 2.525-3.283 1.91-7.992-1.373-10.518l-78.489-60.363c-11.104-8.541-26.615-8.54-37.72 0l-225.062 173.086c-13.521 10.399-16.063 29.861-5.663 43.384 5.038 6.551 12.325 10.747 20.519 11.817 1.361.178 2.718.266 4.068.266 6.778-.001 13.334-2.218 18.797-6.419l33.429-25.709 7.407 68.596c.415 3.845 3.666 6.695 7.447 6.695.269 0 .541-.014.815-.044 4.118-.444 7.096-4.143 6.651-8.262l-8.39-77.699 158.842-122.159 158.842 122.159-12.929 119.738c-1.676-.182-3.371-.296-5.09-.296-.001 0 0 0-.001 0-16.515 0-31.306 8.54-39.563 22.842l-9.293 16.096 2.247-39.065c1.29-22.43-5.47-44.613-19.033-62.464-2.506-3.297-7.212-3.94-10.509-1.434-3.299 2.506-3.94 7.211-1.434 10.509 11.403 15.008 17.086 33.663 16.002 52.527l-2.7 46.937h-2.289c-6.041 0-11.213 4.314-12.297 10.256l-8.128 44.528h-127.212l-5.85-101.72c-1.268-22.03 6.377-42.999 21.526-59.044 15.148-16.045 35.644-24.881 57.71-24.881 14.666 0 28.98 4.022 41.397 11.63 3.529 2.164 8.149 1.057 10.313-2.476 2.164-3.532 1.056-8.149-2.476-10.314-14.776-9.055-31.801-13.841-49.234-13.841-26.237 0-50.606 10.506-68.618 29.584s-27.101 44.009-25.595 70.203l5.801 100.859h-44.412c-1.279 0-2.348-.96-2.485-2.231l-11.634-107.74c-.445-4.118-4.146-7.102-8.262-6.651-4.118.444-7.096 4.144-6.651 8.262l11.634 107.74c.961 8.905 8.441 15.621 17.398 15.621zm-2.998-15h-143.499l7.263-39.784h128.974zm-45.177-70.391 9.011 15.606h-71.167l9.01-15.606c5.547-9.607 15.481-15.342 26.573-15.342 11.094.001 21.027 5.736 26.573 15.342z"/><path d="m377.806 442.249h38.003c4.143 0 7.5-3.358 7.5-7.5s-3.357-7.5-7.5-7.5h-38.003c-4.143 0-7.5 3.358-7.5 7.5s3.357 7.5 7.5 7.5z"/></g></svg>